<svg xmlns="http://www.w3.org/2000/svg" width="88" height="15" viewBox="0 0 88 15" fill="none">
<path d="M85.3063 9.92075C85.3063 9.66065 85.3063 9.40055 85.3063 9.1383C85.3063 6.59104 85.302 4.04593 85.3106 1.49867C85.3127 0.666785 85.7018 0.202476 86.3832 0.163784C87.142 0.120792 87.602 0.602298 87.6063 1.49223C87.6171 3.66761 87.6106 5.84299 87.6106 8.01837C87.6106 9.62626 87.602 11.232 87.6149 12.8399C87.6214 13.5192 87.4408 14.0996 86.7508 14.3167C86.0758 14.5273 85.5191 14.2995 85.0634 13.7169C82.8708 10.9139 80.6589 8.12584 78.4512 5.33353C78.3051 5.14866 78.1438 4.97241 77.8085 4.83484C77.8085 6.0515 77.8042 7.26816 77.8085 8.48483C77.815 10.0906 77.8386 11.6985 77.8279 13.3042C77.8236 14.0823 77.4108 14.5037 76.7294 14.5209C76.005 14.5402 75.5257 14.1167 75.5214 13.3278C75.4977 9.39625 75.4977 5.46681 75.5042 1.53521C75.5042 0.920433 75.8567 0.516313 76.4392 0.342197C77.0712 0.153033 77.5269 0.432477 77.9138 0.924733C79.9946 3.56442 82.0819 6.19982 84.1691 8.83521C84.4722 9.21999 84.7839 9.59832 85.0913 9.9788C85.1644 9.95945 85.2353 9.9401 85.3084 9.92075H85.3063Z" fill="#003B66"/>
<path d="M2.53023 4.88941C2.53023 6.07168 2.52808 7.2518 2.53023 8.43407C2.53453 10.0162 2.54958 11.5983 2.54528 13.1782C2.54313 14.066 2.15835 14.5109 1.42104 14.5238C0.642889 14.5367 0.249515 14.0939 0.245216 13.161C0.228019 9.40353 0.22587 5.64821 0.202225 1.89073C0.197925 1.18137 0.374192 0.607429 1.09645 0.358077C1.83591 0.104426 2.30022 0.512848 2.72799 1.05669C4.92916 3.8533 7.14324 6.63917 9.35302 9.42718C9.51208 9.62709 9.6819 9.81841 9.98714 10.1795C10.0086 9.69373 10.0301 9.43578 10.0301 9.17568C10.0323 6.60478 10.0258 4.03387 10.0344 1.46296C10.0387 0.452656 10.8405 -0.181472 11.6165 0.27424C11.9497 0.469853 12.2743 0.99865 12.2808 1.38128C12.328 5.26128 12.3087 9.14128 12.3108 13.0234C12.3108 13.6296 12.0787 14.1111 11.4962 14.3024C10.8212 14.526 10.2558 14.3261 9.80013 13.7436C7.83541 11.2328 5.85349 8.73716 3.87587 6.23504C3.49969 5.75783 3.11921 5.28493 2.74089 4.80988C2.66995 4.83567 2.60116 4.85931 2.53023 4.88511V4.88941Z" fill="#003B66"/>
<path d="M41.7319 9.06179C42.3876 10.33 43.0754 11.5575 43.6429 12.8365C43.7998 13.1911 43.7353 13.7909 43.5225 14.1155C43.3527 14.3756 42.7852 14.5303 42.4348 14.4766C42.1167 14.4272 41.7577 14.0832 41.5836 13.7758C40.8914 12.5506 40.2487 11.2952 39.621 10.0334C39.4168 9.62284 39.1653 9.45302 38.7053 9.47881C38.0454 9.51535 37.3812 9.4874 36.6009 9.4874C36.6009 10.8051 36.6095 12.0562 36.5987 13.3072C36.5901 14.1026 36.2182 14.5067 35.5218 14.5239C34.7501 14.5432 34.3438 14.1241 34.3417 13.2535C34.3331 10.6589 34.3395 8.06224 34.3374 5.46769C34.3374 4.23168 34.3331 2.99566 34.3374 1.75965C34.3438 0.725695 34.7458 0.315124 35.7647 0.308675C37.0243 0.300077 38.2861 0.304376 39.5458 0.308675C41.5858 0.312974 43.2517 1.4931 43.8966 3.38259C44.5393 5.26348 43.9202 7.35717 42.3596 8.57813C42.1683 8.72646 41.9748 8.87263 41.7298 9.05964L41.7319 9.06179ZM36.6052 7.1766C36.7771 7.22389 36.8459 7.26044 36.9169 7.26044C37.8046 7.26689 38.6924 7.28624 39.578 7.26474C40.928 7.23035 41.7749 6.3748 41.8373 5.02701C41.9017 3.64483 41.115 2.67107 39.7479 2.55929C38.8665 2.48621 37.9723 2.51415 37.0888 2.55929C36.9212 2.56789 36.631 2.85163 36.6267 3.01285C36.5901 4.38859 36.6052 5.76648 36.6052 7.1809V7.1766Z" fill="#003B66"/>
<path d="M52.4416 12.1546C54.1032 12.1546 55.5757 12.1546 57.0503 12.1546C57.693 12.1546 58.3357 12.1352 58.9785 12.1632C59.6427 12.1933 60.0963 12.6984 60.0748 13.3218C60.0554 13.9259 59.6191 14.3687 58.9656 14.3708C56.0744 14.3816 53.181 14.4009 50.2898 14.3429C49.9158 14.3343 49.3591 13.9645 49.2323 13.6292C49.0882 13.253 49.1914 12.6211 49.4386 12.2857C50.9218 10.2802 52.4803 8.32833 54.0129 6.35501C54.9502 5.14909 55.8831 3.94103 56.9385 2.5782C56.5301 2.55455 56.2829 2.52875 56.0335 2.52875C54.4514 2.52445 52.8693 2.53091 51.2873 2.52446C50.4317 2.52016 49.9309 2.08809 49.9438 1.39162C49.9567 0.723099 50.4446 0.308227 51.2593 0.308227C53.8044 0.301778 56.3517 0.312526 58.8968 0.301778C59.4664 0.299629 59.9286 0.465147 60.1887 0.987497C60.4617 1.53779 60.3048 2.0322 59.9393 2.49866C57.6887 5.38341 55.4467 8.27245 53.2025 11.1615C52.9919 11.4323 52.7834 11.7053 52.4394 12.1524L52.4416 12.1546Z" fill="#003B66"/>
<path d="M29.355 13.235C29.3743 13.9594 29.1228 14.37 28.5726 14.4969C27.9986 14.6301 27.472 14.4926 27.2097 13.8928C26.8636 13.1018 26.524 12.3043 26.2317 11.4917C26.0575 11.0102 25.8275 10.7888 25.2729 10.8082C23.9638 10.8533 22.6526 10.8469 21.3435 10.8103C20.8319 10.7953 20.589 10.9801 20.4256 11.4466C20.1655 12.1925 19.8538 12.9212 19.5464 13.6478C19.2111 14.441 18.6587 14.7204 17.9729 14.4754C17.3431 14.2496 17.0938 13.5876 17.4098 12.7901C18.5103 10.0107 19.6324 7.23984 20.7459 4.46688C21.1694 3.41143 21.5993 2.36028 22.0185 1.30269C22.2571 0.698653 22.6375 0.30743 23.3383 0.309579C24.0434 0.311729 24.4002 0.728751 24.641 1.32634C26.15 5.08596 27.6633 8.84558 29.1701 12.6052C29.269 12.8546 29.3249 13.1211 29.3572 13.2329L29.355 13.235ZM23.4243 4.55502C23.3534 4.55717 23.2824 4.56146 23.2115 4.56361C22.6848 5.87271 22.1582 7.18181 21.6079 8.55324H25.0408C24.4797 7.16676 23.9531 5.85982 23.4243 4.55287V4.55502Z" fill="#003B66"/>
<path d="M69.1587 12.0917C69.4424 12.1433 69.6746 12.1497 69.8745 12.2293C70.3861 12.4356 70.6698 12.8311 70.6032 13.39C70.5387 13.9382 70.2206 14.3402 69.6509 14.3574C68.5138 14.396 67.3745 14.3939 66.2395 14.3574C65.6656 14.338 65.3539 13.9253 65.2959 13.3814C65.2357 12.8247 65.528 12.4292 66.0375 12.2228C66.2374 12.1411 66.4696 12.1411 66.764 12.0917C66.7791 11.8681 66.8113 11.6338 66.8113 11.3974C66.8156 8.70179 66.807 6.00621 66.8199 3.31063C66.8221 2.83987 66.792 2.54108 66.1858 2.48304C65.5667 2.425 65.2486 1.93704 65.3023 1.31366C65.3539 0.726823 65.7193 0.339899 66.3169 0.320553C67.4046 0.286159 68.4945 0.28401 69.58 0.320553C70.212 0.342048 70.5774 0.754767 70.6054 1.3803C70.6333 1.97358 70.3087 2.38631 69.7262 2.49164C69.3478 2.56042 69.0877 2.59482 69.0899 3.08708C69.1092 5.98042 69.1006 8.87376 69.1049 11.7671C69.1049 11.8617 69.135 11.9584 69.1587 12.0874V12.0917Z" fill="#003B66"/>
</svg>