<svg xmlns="http://www.w3.org/2000/svg" width="76" height="77" viewBox="0 0 76 77" fill="none">
<path d="M37.8839 76.3616C28.5611 76.3616 19.2362 76.3766 9.91349 76.3551C5.14571 76.3444 1.17757 73.0878 0.221004 68.4339C0.0640842 67.6643 0.00174532 66.8625 0.00174532 66.0758C-0.00900261 47.6495 -0.0133015 29.2233 -0.00470318 10.7949C-0.00255359 4.91792 4.33531 0.57146 10.223 0.56931C28.6729 0.556413 47.1228 0.558562 65.5706 0.56931C71.4647 0.57146 75.8069 4.87708 75.8134 10.7755C75.8327 29.2512 75.8306 47.7269 75.8134 66.2048C75.8091 71.4777 72.3805 75.4501 67.1828 76.282C66.5766 76.3788 65.9511 76.3594 65.3341 76.3616C56.1833 76.3659 47.0325 76.3637 37.8818 76.3637L37.8839 76.3616ZM37.8839 72.5117C47.1078 72.5117 56.3317 72.516 65.5555 72.5117C69.3689 72.5095 71.9677 69.9472 71.9699 66.1575C71.9785 47.7076 71.9785 29.2577 71.9699 10.8078C71.9699 7.01162 69.3796 4.42567 65.5706 4.42352C47.1465 4.41277 28.7224 4.41492 10.3004 4.43642C9.47497 4.43642 8.60439 4.55679 7.83484 4.83839C5.26393 5.77991 3.84091 7.97463 3.84091 10.8293C3.84091 29.1567 3.8839 47.4819 3.80652 65.8092C3.78932 69.7881 6.70415 72.6105 10.582 72.5568C19.6812 72.4278 28.7826 72.516 37.8839 72.516V72.5117Z" fill="#3084C2"/>
<path d="M24.3068 46.7482V48.0788C24.3068 53.1497 24.3068 58.2206 24.3068 63.2915C24.3068 63.5644 24.3153 63.8374 24.2939 64.1061C24.2036 65.1981 23.3803 65.9849 22.3571 65.9698C21.3554 65.9548 20.5708 65.1917 20.4719 64.1319C20.4654 64.0589 20.4611 63.9836 20.4611 63.9105C20.4611 55.6991 20.4525 47.4855 20.4676 39.2741C20.4697 37.7372 21.968 36.7677 23.2384 37.49C23.6791 37.7393 24.0381 38.223 24.3025 38.6765C27.0668 43.4207 29.8032 48.1799 32.5504 52.9326C33.6403 54.8156 34.7129 56.7094 35.8414 58.571C36.8302 60.2025 38.1114 61.5223 40.0933 61.8792C41.08 62.0576 42.086 62.1328 43.2854 62.2812C42.9953 61.8878 42.8104 61.6728 42.6642 61.4342C40.9532 58.6569 39.1862 55.9141 37.5525 53.0938C31.8454 43.253 26.1876 33.3864 20.5041 23.5306C19.6035 21.9678 18.0321 21.2778 16.5102 21.7185C15.3236 22.0624 14.6035 22.8405 14.3714 24.0357C14.2639 24.5882 14.2424 25.1664 14.2424 25.7317C14.2359 38.2466 14.2381 50.7637 14.2359 63.2786C14.2359 63.5988 14.2467 63.9234 14.2101 64.2416C14.1005 65.2153 13.3288 65.9333 12.3787 65.9698C11.4415 66.0064 10.6182 65.3336 10.4419 64.3641C10.3946 64.0997 10.3903 63.8224 10.3903 63.5516C10.3882 50.8367 10.3903 38.1241 10.3882 25.4093C10.3882 23.4747 10.8009 21.6669 12.0885 20.1622C14.9754 16.7873 20.2913 16.9507 23.0492 20.4932C23.3975 20.9403 23.7242 21.4132 24.008 21.9033C30.6545 33.3993 37.2946 44.9017 43.9389 56.3999C44.1861 56.8276 44.4527 57.2447 44.7149 57.6638C46.6259 60.7034 49.3774 62.1715 52.9672 62.1414C56.3055 62.1113 59.646 62.135 62.9843 62.1393C63.2788 62.1393 63.5818 62.1414 63.8677 62.2016C64.8222 62.4015 65.4455 63.1775 65.4197 64.0997C65.3961 65.0391 64.6781 65.8215 63.7108 65.9569C63.5647 65.9784 63.4142 65.9741 63.2659 65.9741C56.4646 66.015 49.6654 66.0795 42.8641 66.0773C41.4905 66.0773 40.1084 65.8796 38.7455 65.6753C36.8474 65.3937 35.3298 64.3877 34.182 62.8809C33.3909 61.8405 32.6493 60.7506 31.9894 59.6221C29.6162 55.568 27.2861 51.4859 24.9366 47.4168C24.7947 47.1696 24.6378 46.9288 24.4895 46.6859C24.4271 46.7074 24.3669 46.7289 24.3046 46.7504L24.3068 46.7482Z" fill="#3794D9"/>
<path d="M51.5103 30.1994C51.5103 29.92 51.5103 29.6384 51.5103 29.3589C51.5103 23.9656 51.5081 18.5723 51.5124 13.179C51.5124 11.8248 52.3056 10.9714 53.4965 11.0036C54.438 11.0273 55.1968 11.6958 55.3279 12.6287C55.3623 12.8716 55.358 13.1231 55.358 13.3703C55.358 21.3367 55.358 29.3009 55.358 37.2673C55.358 37.5145 55.3623 37.7638 55.3322 38.0089C55.2333 38.8085 54.6809 39.4276 53.8963 39.6232C53.0902 39.8253 52.4152 39.5824 51.9316 38.9246C51.5962 38.4689 51.334 37.9594 51.0481 37.465C47.6711 31.6182 44.3006 25.767 40.9107 19.9266C40.3776 19.0087 39.8079 18.1037 39.1716 17.2546C37.5552 15.1029 35.2185 14.7504 32.639 14.7633C32.7895 14.9868 32.897 15.133 32.9916 15.2878C34.5672 17.8565 36.1945 20.3973 37.7078 23.0026C43.2945 32.6285 48.8405 42.278 54.4079 51.9167C54.8034 52.6003 55.2076 53.2817 55.6676 53.9201C56.1899 54.6445 56.91 55.1239 57.8021 55.2894C59.7862 55.6548 61.3296 54.4511 61.5467 52.3703C61.5918 51.9296 61.5789 51.4803 61.5789 51.0354C61.5789 38.5914 61.5789 26.1475 61.5789 13.7057C61.5789 13.409 61.5682 13.1102 61.5897 12.8157C61.6671 11.7667 62.456 11.0165 63.4813 11.0036C64.5088 10.9907 65.3149 11.7237 65.4138 12.7706C65.4353 12.992 65.4288 13.2155 65.4288 13.437C65.4288 26.0787 65.4267 38.7204 65.4331 51.36C65.4331 52.7378 65.2655 54.0727 64.6528 55.3259C62.5032 59.7304 56.6585 60.586 53.2385 56.9725C52.7011 56.4029 52.2347 55.743 51.8413 55.0637C45.5301 44.1717 39.2361 33.269 32.9335 22.3706C32.3768 21.4076 31.79 20.4597 31.2203 19.5052C29.2986 16.2873 26.4719 14.7547 22.7187 14.8148C19.3546 14.8686 15.9905 14.832 12.6264 14.8213C11.4248 14.817 10.7283 14.3398 10.4725 13.3961C10.1716 12.2826 10.853 11.2207 11.9944 11.0316C12.2373 10.9907 12.4867 10.9757 12.7317 10.9757C19.7308 10.9499 26.732 10.8768 33.731 10.9434C35.3583 10.9585 37.0285 11.2831 38.5913 11.756C40.4184 12.3084 41.62 13.7895 42.5766 15.3737C44.7369 18.9506 46.8285 22.5705 48.9415 26.1754C49.6165 27.3276 50.2785 28.4884 50.9492 29.6427C51.0674 29.8447 51.2029 30.0361 51.3297 30.2317C51.3877 30.2188 51.4458 30.2059 51.5038 30.1951L51.5103 30.1994Z" fill="#5BB5EF"/>
</svg>