<svg width="25" height="24" viewBox="0 0 25 24" fill="none" xmlns="http://www.w3.org/2000/svg">
<path d="M6.12466 16.4985H12.8747C13.1597 16.4986 13.4341 16.6069 13.6423 16.8015C13.8506 16.9961 13.9773 17.2624 13.9967 17.5468C14.0161 17.8312 13.9269 18.1123 13.747 18.3334C13.5671 18.5546 13.31 18.6991 13.0277 18.738L12.8747 18.7485H6.12466C5.83962 18.7484 5.56525 18.6401 5.35697 18.4455C5.14869 18.2509 5.02205 17.9846 5.00262 17.7002C4.98319 17.4158 5.07243 17.1347 5.25231 16.9136C5.43218 16.6924 5.68928 16.5479 5.97166 16.509L6.12466 16.4985ZM8.32966 7.8285C8.52033 7.6382 8.77296 7.52263 9.04161 7.50281C9.31027 7.48299 9.57713 7.56024 9.79366 7.7205L9.91966 7.83L15.1697 13.08C15.3691 13.281 15.4854 13.5498 15.4954 13.8328C15.5053 14.1158 15.4082 14.3921 15.2234 14.6066C15.0386 14.8212 14.7797 14.9581 14.4984 14.9902C14.217 15.0222 13.934 14.947 13.7057 14.7795L13.5797 14.67L8.32966 9.42C8.11898 9.20906 8.00065 8.92313 8.00065 8.625C8.00065 8.32687 8.11898 8.03944 8.32966 7.8285ZM18.1247 4.5C18.3965 4.50001 18.6592 4.59846 18.8641 4.77715C19.0689 4.95584 19.2022 5.20267 19.2392 5.472L19.2497 5.625V12.375C19.2496 12.66 19.1413 12.9344 18.9467 13.1427C18.7521 13.351 18.4857 13.4776 18.2013 13.497C17.917 13.5165 17.6358 13.4272 17.4147 13.2474C17.1936 13.0675 17.049 12.8104 17.0102 12.528L16.9997 12.375V5.625C16.9997 5.32663 17.1182 5.04048 17.3292 4.8295C17.5401 4.61853 17.8263 4.5 18.1247 4.5Z" fill="white"/>
</svg>
