<svg width="25" height="24" viewBox="0 0 25 24" fill="none" xmlns="http://www.w3.org/2000/svg">
<path fill-rule="evenodd" clip-rule="evenodd" d="M3.41675 3.25L5.49675 3.61L6.45975 15.083C6.53675 16.02 7.31975 16.739 8.25975 16.736H19.1687C20.0657 16.738 20.8267 16.078 20.9537 15.19L21.9027 8.632C22.0087 7.899 21.4998 7.219 20.7677 7.113C20.7038 7.104 5.83075 7.099 5.83075 7.099" fill="url(#paint0_linear_16024_14748)"/>
<path d="M3.41675 3.25L5.49675 3.61L6.45975 15.083C6.53675 16.02 7.31975 16.739 8.25975 16.736H19.1687C20.0657 16.738 20.8267 16.078 20.9537 15.19L21.9027 8.632C22.0087 7.899 21.4997 7.219 20.7677 7.113C20.7037 7.104 5.83075 7.099 5.83075 7.099" stroke="url(#paint1_linear_16024_14748)" stroke-width="1.5" stroke-linecap="round" stroke-linejoin="round"/>
<path d="M14.7917 10.7949H17.5647" stroke="white" stroke-width="1.5" stroke-linecap="round" stroke-linejoin="round"/>
<path fill-rule="evenodd" clip-rule="evenodd" d="M7.8211 20.2021C8.1221 20.2021 8.3651 20.4461 8.3651 20.7461C8.3651 21.0471 8.1221 21.2911 7.8211 21.2911C7.5201 21.2911 7.2771 21.0471 7.2771 20.7461C7.2771 20.4461 7.5201 20.2021 7.8211 20.2021Z" fill="url(#paint2_linear_16024_14748)" stroke="url(#paint3_linear_16024_14748)" stroke-width="1.5" stroke-linecap="round" stroke-linejoin="round"/>
<path fill-rule="evenodd" clip-rule="evenodd" d="M19.1014 20.2021C19.4024 20.2021 19.6464 20.4461 19.6464 20.7461C19.6464 21.0471 19.4024 21.2911 19.1014 21.2911C18.8004 21.2911 18.5574 21.0471 18.5574 20.7461C18.5574 20.4461 18.8004 20.2021 19.1014 20.2021Z" fill="url(#paint4_linear_16024_14748)" stroke="url(#paint5_linear_16024_14748)" stroke-width="1.5" stroke-linecap="round" stroke-linejoin="round"/>
<defs>
<linearGradient id="paint0_linear_16024_14748" x1="21.9167" y1="9.99301" x2="3.41675" y2="9.99301" gradientUnits="userSpaceOnUse">
<stop stop-color="#5BB5EF"/>
<stop offset="1" stop-color="#3084C2"/>
</linearGradient>
<linearGradient id="paint1_linear_16024_14748" x1="21.9167" y1="9.99301" x2="3.41675" y2="9.99301" gradientUnits="userSpaceOnUse">
<stop stop-color="#5BB5EF"/>
<stop offset="1" stop-color="#3084C2"/>
</linearGradient>
<linearGradient id="paint2_linear_16024_14748" x1="8.3651" y1="20.7466" x2="7.2771" y2="20.7466" gradientUnits="userSpaceOnUse">
<stop stop-color="#5BB5EF"/>
<stop offset="1" stop-color="#3084C2"/>
</linearGradient>
<linearGradient id="paint3_linear_16024_14748" x1="8.3651" y1="20.7466" x2="7.2771" y2="20.7466" gradientUnits="userSpaceOnUse">
<stop stop-color="#5BB5EF"/>
<stop offset="1" stop-color="#3084C2"/>
</linearGradient>
<linearGradient id="paint4_linear_16024_14748" x1="19.6464" y1="20.7466" x2="18.5574" y2="20.7466" gradientUnits="userSpaceOnUse">
<stop stop-color="#5BB5EF"/>
<stop offset="1" stop-color="#3084C2"/>
</linearGradient>
<linearGradient id="paint5_linear_16024_14748" x1="19.6464" y1="20.7466" x2="18.5574" y2="20.7466" gradientUnits="userSpaceOnUse">
<stop stop-color="#5BB5EF"/>
<stop offset="1" stop-color="#3084C2"/>
</linearGradient>
</defs>
</svg>
