<svg width="314" height="214" viewBox="0 0 314 214" fill="none" xmlns="http://www.w3.org/2000/svg">
<path d="M264.952 101.363C261.709 101.354 261.694 106.213 264.937 106.217C268.181 106.227 268.195 101.368 264.952 101.363Z" fill="white"/>
<path d="M274.914 97.2703C276.359 99.1772 275.117 101.999 274.59 104.055C274.049 106.184 273.503 108.317 272.956 110.446C272.773 111.163 273.889 111.467 274.068 110.749C274.75 108.091 275.431 105.433 276.108 102.774C276.62 100.766 277.282 98.5031 275.905 96.6924C275.465 96.1145 274.464 96.6828 274.914 97.2703Z" fill="#225E8A"/>
<mask id="mask0_16090_519" style="mask-type:luminance" maskUnits="userSpaceOnUse" x="0" y="65" width="314" height="149">
<path d="M0.5 65.0349H313.5V213.5H0.5V65.0349Z" fill="white"/>
</mask>
<g mask="url(#mask0_16090_519)">
<path d="M0.886713 205.299C-0.326503 206.831 1.52474 211.67 3.63699 211.675L233.795 213.505C235.356 213.505 241.123 212.754 242.549 212.142C259.031 208.964 274.619 206.493 280.763 204.986C282.198 204.635 283.315 203.546 283.706 202.131C291.449 174.118 308.459 95.5322 312.669 77.6712C312.862 76.8718 313.046 76.0724 313.239 75.2682C314.327 70.5152 311.842 68.0207 309.793 66.4219C308.99 65.7959 307.564 65.0591 305.984 65.0543L98.6593 196.289L0.886713 205.299Z" fill="#225E8A"/>
</g>
<path d="M308.85 69.1323C306.506 79.8904 304.147 90.6485 301.798 101.407C295.369 130.777 287.95 160.138 280.796 189.455C280.642 190.076 280.487 190.693 280.342 191.314C279.897 193.115 279.467 194.911 279.042 196.722C278.926 197.242 278.452 197.608 277.916 197.608L59.1259 197.126L61.1994 188.227L89.1469 68.6459C89.6206 66.6041 91.8198 64.9524 94.0626 64.9572L305.675 65.4243C307.908 65.4291 309.333 67.0857 308.85 69.1323Z" fill="white"/>
<path d="M59.527 196.809L277.915 197.285C278.302 197.285 278.645 197.02 278.728 196.65C279.158 194.839 279.583 193.038 280.028 191.237C280.178 190.62 280.332 189.999 280.487 189.378C281.971 183.296 283.464 177.219 284.958 171.137C290.579 148.267 296.389 124.618 301.484 101.339L304.843 85.9773C306.076 80.3383 307.308 74.6992 308.541 69.0601C308.744 68.2077 308.584 67.4035 308.096 66.7919C307.564 66.1178 306.699 65.7421 305.67 65.7421L94.0625 65.2798C91.96 65.2798 89.9009 66.8208 89.461 68.7182L59.527 196.809ZM277.915 197.926L58.7246 197.444L60.89 188.155L88.8327 68.5785C89.3402 66.4019 91.6796 64.6394 94.0529 64.6394C94.0625 64.6394 305.674 65.1065 305.674 65.1065C306.883 65.1065 307.951 65.5784 308.599 66.3971C309.213 67.1628 309.411 68.1596 309.164 69.1998C307.937 74.8388 306.699 80.4779 305.467 86.117L302.107 101.474C297.013 124.762 291.203 148.412 285.581 171.286C284.088 177.368 282.589 183.45 281.11 189.527C280.956 190.149 280.796 190.77 280.651 191.386C280.207 193.187 279.781 194.988 279.351 196.789C279.206 197.449 278.602 197.926 277.915 197.926Z" fill="#225E8A"/>
<path d="M305.549 83.348L309.213 67.7888L307.656 65.9685L305.67 65.4195L94.0626 64.9572L92.1582 65.3424L89.9927 66.9557L88.62 70.8948L85.8214 82.8664L305.549 83.348Z" fill="#225E8A"/>
<path d="M197.897 64.0477C197.834 63.7491 197.558 63.5132 197.278 63.4313C195.514 62.9112 193.087 63.9947 191.613 64.876C191.062 65.2083 191.115 65.8343 191.439 66.2147C191.463 66.2822 191.492 66.3496 191.54 66.417C192.778 68.2517 193.73 70.1924 195.518 71.5697C195.905 71.8683 196.504 71.6178 196.732 71.2567C197.365 70.2406 197.64 69.1474 197.771 67.9676C197.901 66.7541 198.133 65.2468 197.897 64.0477Z" fill="#F2F7FA"/>
<path d="M216.186 64.5193C214.645 63.1951 212.832 62.5305 210.884 62.0393C210.203 61.8659 209.652 62.4679 209.792 63.1228C210.174 64.9865 210.497 66.8645 210.739 68.7523C210.884 69.8887 211.077 71.1601 212.494 71.2419C214.988 71.3912 216.699 64.9624 216.186 64.5193Z" fill="#F2F7FA"/>
<path d="M280.796 189.455C280.642 190.077 280.487 190.693 280.342 191.314C279.897 193.115 279.467 194.911 279.042 196.722C278.926 197.242 278.452 197.608 277.916 197.608L59.1259 197.127L61.1994 188.227L280.796 189.455Z" fill="#B2E0FF"/>
<path d="M59.851 196.554L277.916 197.031C278.186 197.031 278.423 196.848 278.476 196.597C278.907 194.782 279.337 192.976 279.777 191.18C279.926 190.558 280.081 189.937 280.236 189.316C281.72 183.239 283.213 177.157 284.712 171.075C290.328 148.205 296.143 124.561 301.233 101.282L304.592 85.9249C305.824 80.2859 307.057 74.6468 308.29 69.0077C308.473 68.2276 308.333 67.5004 307.898 66.9466C307.41 66.3351 306.622 65.998 305.67 65.998L94.0627 65.5308C92.0713 65.5308 90.1234 66.9852 89.7077 68.7766L59.851 196.554ZM277.916 198.182C277.911 198.182 59.126 197.7 59.126 197.7C58.9471 197.7 58.7828 197.618 58.6716 197.483C58.5653 197.348 58.5218 197.165 58.5653 196.997L60.6389 188.103L88.5863 68.5165C89.1229 66.2002 91.5251 64.3847 94.0531 64.3847C94.0627 64.3847 305.675 64.8518 305.675 64.8518C306.965 64.8518 308.101 65.3575 308.802 66.2387C309.459 67.067 309.677 68.1361 309.416 69.2581C308.183 74.8924 306.951 80.5315 305.718 86.1705L302.359 101.528C297.264 124.821 291.45 148.475 285.828 171.349C284.335 177.431 282.841 183.508 281.357 189.591C281.202 190.212 281.048 190.828 280.903 191.445C280.458 193.25 280.028 195.047 279.603 196.852C279.433 197.618 278.723 198.182 277.916 198.182Z" fill="#225E8A"/>
<path d="M271.637 191.266C269.781 191.266 269.771 194.044 271.632 194.049C273.483 194.049 273.493 191.271 271.637 191.266Z" fill="white"/>
<path d="M204.011 56.9255C201.783 51.2046 202.421 45.6859 202.31 39.7097C202.237 35.9872 201.623 32.1251 199.279 29.1009C195.639 24.4105 188.104 23.5726 185.165 29.3176C184.904 29.3465 184.643 29.4717 184.416 29.751C181.313 33.5265 181.139 38.371 181.4 43.0758C181.564 46.0663 182.154 48.9172 183.101 51.7584C183.536 53.0778 184.397 54.3732 184.174 55.8035C184.073 56.4488 182.927 57.696 182.632 58.3413C178.606 67.2357 183.299 77.4448 191.047 82.4338C195.402 86.3681 202.01 84.8849 205.442 80.2475C211.131 72.5522 206.998 64.6208 204.011 56.9255Z" fill="#572D2D"/>
<path d="M266.997 191.257C265.141 191.252 265.131 194.035 266.992 194.04C268.848 194.04 268.853 191.262 266.997 191.257Z" fill="white"/>
<path d="M277.693 110.417C276.843 117.086 263.666 174.652 263.633 174.864C262.99 176.973 262.448 176.997 261.25 176.969L113.784 176.179C112.938 176.179 112.266 175.35 112.396 174.469L112.59 173.126L126.534 109.444C126.636 108.741 127.298 108.173 128.018 108.178L276.582 109.121C277.302 109.136 277.785 109.714 277.693 110.417Z" fill="#B2E0FF"/>
<path d="M280.995 95.6088C280.144 102.278 279.158 103.468 279.124 103.68C278.486 105.789 277.94 105.808 276.741 105.784L129.28 104.994C128.429 104.99 127.757 104.166 127.888 103.285L128.086 101.941L129.836 94.6361C129.937 93.933 130.599 93.3696 131.32 93.3696L279.883 94.3134C280.598 94.3327 281.087 94.9058 280.995 95.6088Z" fill="#B2E0FF"/>
<path d="M118.303 113.219C118.921 113.219 119.458 112.781 119.574 112.174C119.922 110.407 120.154 109.097 120.246 108.384C120.333 107.681 119.849 107.108 119.134 107.089L99.1378 106.911C98.4176 106.911 97.7506 107.474 97.6539 108.177L96.8854 111.664C96.7114 112.463 97.3252 113.219 98.1469 113.219H118.303Z" fill="#B2E0FF"/>
<path d="M118.09 119.408C118.293 118.459 118.482 117.554 118.66 116.697C118.863 115.714 118.109 114.79 117.099 114.79H97.4896C96.7404 114.79 96.0879 115.31 95.9284 116.042L95.3387 118.748C95.126 119.74 95.8801 120.67 96.8999 120.67H116.529C117.288 120.67 117.935 120.145 118.09 119.408Z" fill="#B2E0FF"/>
<path d="M116.519 126.756C116.756 125.672 116.983 124.618 117.201 123.592C117.351 122.894 116.819 122.239 116.103 122.239H95.4885C94.9568 122.239 94.5024 122.605 94.3864 123.12L93.7001 126.284C93.5454 126.982 94.0819 127.642 94.7973 127.642H115.422C115.949 127.642 116.408 127.271 116.519 126.756Z" fill="#B2E0FF"/>
<path d="M115.05 133.494C115.253 132.564 115.456 131.649 115.654 130.739C115.823 129.954 115.219 129.208 114.407 129.208H94.0868C93.4923 129.208 92.9703 129.622 92.8446 130.204L92.2452 132.954C92.0761 133.744 92.6802 134.49 93.4874 134.49H113.808C114.407 134.49 114.924 134.071 115.05 133.494Z" fill="#B2E0FF"/>
<path d="M113.508 140.495C113.73 139.493 113.948 138.492 114.17 137.495C114.334 136.758 113.764 136.06 113.005 136.06H92.5352C91.9697 136.06 91.4863 136.445 91.3655 136.994L90.713 139.989C90.5535 140.731 91.119 141.429 91.8827 141.429H112.343C112.904 141.429 113.387 141.039 113.508 140.495Z" fill="#B2E0FF"/>
<path d="M111.836 148.007C112.082 146.909 112.333 145.792 112.58 144.675C112.773 143.813 112.111 142.994 111.226 142.994H91.177C90.5245 142.994 89.959 143.452 89.8236 144.083L89.0986 147.415C88.9101 148.272 89.5674 149.086 90.452 149.086H110.482C111.135 149.086 111.695 148.643 111.836 148.007Z" fill="#B2E0FF"/>
<path d="M262.414 191.247C260.563 191.242 260.553 194.025 262.41 194.025C264.266 194.03 264.275 191.252 262.414 191.247Z" fill="white"/>
<path d="M287.824 71.1458C284.339 71.141 284.325 76.3611 287.81 76.366C291.295 76.3756 291.309 71.1555 287.824 71.1458Z" fill="white"/>
<path d="M298.704 71.1458C295.22 71.141 295.205 76.3611 298.69 76.366C302.17 76.3756 302.189 71.1555 298.704 71.1458Z" fill="white"/>
<path d="M228.502 55.4808C227.594 54.455 226.632 53.4678 225.641 52.5192C224.317 51.243 223.21 49.7454 222.649 47.978C220.938 42.5894 222.702 36.7721 220.832 31.3305C220.513 30.4107 219.522 30.2566 218.855 30.6033C215.152 29.4091 209.724 29.3609 208.579 33.8442C207.535 37.9423 207.945 42.9313 207.684 47.1546C207.419 51.4212 207.114 55.6926 207.124 59.9785C207.133 65.738 207.037 73.52 211.392 77.9552C213.717 80.3197 217.013 81.5428 219.957 82.9442C223.77 84.7693 227.589 86.5944 231.407 88.4195C231.857 89.1418 233.143 89.4693 233.723 88.4917C237.145 82.6986 237.938 75.8074 236.289 69.3208C234.946 64.0574 232.074 59.4825 228.502 55.4808Z" fill="#572D2D"/>
<path d="M214.538 48.0644C215.259 50.7804 216.037 53.6023 217.825 55.8416C219.846 58.3698 222.78 59.9108 224.713 62.569C228.879 68.2948 229.348 75.8504 226.134 82.1204C225.796 82.7753 226.791 83.358 227.13 82.6982C230.122 76.8714 230.199 69.961 227.072 64.163C225.515 61.2784 223.306 59.1836 220.793 57.1274C217.762 54.6425 216.626 51.4305 215.65 47.761C215.457 47.0483 214.345 47.3517 214.538 48.0644Z" fill="#2F1717"/>
<path d="M59.0244 196.761L1.68424 204.634C1.20088 204.764 0.741699 205.506 0.741699 205.506L232.161 206.898C233.423 206.903 234.67 206.599 235.791 206.021L278.839 197.488L59.0244 196.761Z" fill="#225E8A"/>
<path d="M195.678 63.9073C194.441 63.9555 193.242 64.1818 192.101 64.6538C191.439 64.9282 190.96 65.5302 191.168 66.2814C191.246 66.5704 191.468 66.8497 191.743 67.0423C191.714 67.3023 191.763 67.572 191.927 67.7935C192.623 68.747 193.87 69.2527 194.977 68.5785C195.881 68.0199 196.35 66.8015 196.823 65.901C197.263 65.0535 196.736 63.864 195.678 63.9073Z" fill="#F2F7FA"/>
<path d="M215.858 66.1276C216.428 65.5787 216.476 64.6059 215.597 64.0666C213.939 63.0601 212.136 62.4919 210.193 62.5978C208.941 62.6652 208.293 64.4037 209.516 65.0634C210.14 65.4005 210.918 65.6798 211.474 66.118C211.711 66.3106 211.773 65.9591 211.556 66.4214C211.425 66.7007 211.363 67.0041 211.218 67.2834C210.454 68.8003 212.745 70.1487 213.518 68.6221C213.567 68.521 213.62 68.4151 213.668 68.3091C214.62 67.8565 215.573 67.1775 215.858 66.1276Z" fill="#F2F7FA"/>
<path d="M191.168 72.4652C190.487 72.6481 187.04 72.8745 186.34 73.0238C185.668 73.1682 185.31 73.8906 185.571 74.5214C188.394 81.297 197.114 85.058 204.915 83.045C209.618 81.8315 216.95 81.3548 220.774 78.2776C221.47 77.7142 221.523 77.9357 220.846 77.3482C218.947 75.6964 215.143 72.7252 214.505 70.2066C213.079 64.5868 212.706 55.5768 212.233 49.8125C212.18 49.1721 211.271 48.599 211.266 48.5942C209.719 43.9471 205.712 45.6133 202.44 47.9826C198.365 50.9394 194.494 55.1627 192.449 59.7423C192.149 60.4213 192.42 61.0666 192.884 61.4374C193.295 63.3588 193.619 65.2899 193.778 67.2595C193.977 69.7203 193.769 71.7573 191.168 72.4652Z" fill="#F7946D"/>
<path d="M277.959 198.875C269.056 201.081 260.07 202.925 251.075 204.712C246.773 205.564 242.471 206.407 238.174 207.273C233.868 208.14 229.227 207.683 224.838 207.668C207.046 207.606 189.254 207.495 171.467 207.365C135.67 207.095 99.8821 206.734 64.085 206.474C44.1128 206.33 24.1359 206.214 4.1589 206.171C3.41937 206.166 3.41937 207.317 4.1589 207.317C40.0575 207.399 75.9561 207.697 111.85 208.01C147.691 208.323 183.526 208.651 219.367 208.795C224.22 208.814 229.073 208.829 233.926 208.843C238.73 208.853 243.607 207.355 248.31 206.426C258.33 204.447 268.35 202.434 278.263 199.983C278.984 199.804 278.679 198.697 277.959 198.875Z" fill="#225E8A"/>
<path d="M177.92 188.935L261.022 189.311C256.092 174.965 249.896 161.977 243.917 152.736C244.086 152.216 243.96 151.619 243.341 151.263C233.302 145.484 220.895 149.375 210.353 151.537C203.798 152.876 197.215 152.77 190.67 153.825C186.944 154.422 183.667 155.866 181.289 158.645C180.655 157.956 179.046 158.255 178.872 159.536C177.586 169.023 177.093 179.323 177.63 188.873C177.702 188.887 177.891 188.935 177.92 188.935Z" fill="#B0C7D6"/>
<path d="M251.955 127.536C251.834 124.127 251.631 120.684 251.384 117.385C250.616 107.34 249.398 98.6523 248.528 96.3457C246.71 91.5204 242.447 87.2394 238.252 84.6341C236.168 83.3532 233.824 81.894 231.359 80.4205C228.991 78.9902 226.516 77.5552 224.094 76.2357C221.658 74.9258 219.285 73.7268 217.11 72.807C216.805 72.677 216.042 71.8246 215.776 72.4506C213.074 78.788 209.304 79.0432 204.156 79.048C201.792 79.048 191.835 71.4442 191.589 71.3719C191.473 71.3141 189.423 71.5597 189.278 71.5501C186.799 71.4056 184.271 71.2467 181.733 71.1263C180.559 71.0734 179.379 71.0252 178.2 70.9963C177.088 70.9578 175.972 70.9337 174.86 70.9337C172.1 70.9 169.359 70.9819 166.672 71.213C160.176 71.7764 153.805 74.4058 147.811 76.8136C147.212 77.0592 147.115 77.7141 147.333 78.1619C147.246 78.3257 147.217 78.5376 147.318 78.7831C150.228 86.0499 156.386 97.564 159.987 102.413C160.379 102.938 160.741 103.386 161.07 103.742C161.751 104.489 163.888 103.271 163.511 104.21C153.336 128.995 176.088 165.681 176.411 166.037C180.81 170.809 188.481 171.435 194.45 171.874C204.518 172.61 214.91 171.854 224.684 169.278C232.857 167.116 246.87 161.265 250.152 152.578C251.984 147.738 252.327 137.784 251.955 127.536Z" fill="#F2F7FA"/>
<path d="M179.254 71.1743C178.915 71.1117 178.567 71.0491 178.2 70.9962C177.204 70.8324 176.121 70.6832 174.976 70.5628C164.961 69.5033 150.161 70.0956 139.087 71.55C126.418 73.221 110.269 74.7283 97.7022 77.0879C97.3155 77.165 97.0255 77.3672 96.837 77.6273C96.7065 77.7091 96.5857 77.8151 96.4745 77.9692C91.786 84.4413 90.9256 98.3488 97.9101 103.27C98.5868 103.747 111.594 105.904 117.718 106.078C127.506 106.352 138.985 106.935 148.696 105.62C152.278 105.139 156.372 104.542 159.538 102.697C159.692 102.611 159.847 102.514 159.987 102.413C162.491 100.733 163.743 97.9636 165.096 95.3487C168.214 89.334 180.501 78.9756 181.501 73.9385C181.777 72.5323 181.182 71.5451 179.254 71.1743Z" fill="#F2F7FA"/>
<path d="M115.712 74.9258C109.593 69.0507 86.4306 64.63 79.4316 62.0681C74.0422 60.0937 68.1212 57.5077 62.4514 59.1547C59.5658 56.7228 56.453 54.6184 53.1372 52.8125C53.0744 52.7788 53.0116 52.7547 52.9439 52.7306C52.1947 52.0613 52.4219 52.7547 52.1609 54.0549C50.4546 62.6652 43.91 67.4857 44.4659 68.0732C45.7371 69.4215 47.0857 70.6736 48.5164 71.8293C48.9659 72.1905 49.4154 72.6865 49.3768 73.2596C48.5599 84.9037 62.0116 92.5846 72.8 97.0294C85.2899 102.182 102.676 106.454 122.938 106.237C124.205 106.222 119.758 78.812 115.712 74.9258Z" fill="#F2F7FA"/>
<path d="M214.563 47.9196C217.646 41.7749 220.174 34.9271 215.404 29.1339C210.222 22.8447 200.627 22.3391 193.817 26.1723C185.416 30.906 183.096 40.9514 181.748 49.7351C181.26 52.9086 180.443 57.1318 182.487 59.9201C184.875 65.0824 192.048 64.7453 196.756 64.023C204.156 62.8817 208.332 60.1705 211.798 53.2745C212.644 51.5843 213.63 49.788 214.563 47.9196Z" fill="#F7946D"/>
<path d="M123.161 90.6779C121.841 90.0375 120.289 90.0615 118.893 90.4709C118.868 90.4612 118.854 90.4468 118.825 90.442C118.245 90.3216 117.945 90.5335 117.844 90.8609C117.597 90.991 117.65 91.2799 117.834 91.4195C117.907 91.7663 118.1 92.1274 118.375 92.3586C119.666 93.4517 121.831 93.9044 123.422 93.2398C124.78 92.6716 124.267 91.2125 123.161 90.6779Z" fill="white"/>
<path d="M93.7195 91.9345C91.9987 90.4176 88.1851 88.9825 86.2468 90.8558C82.9842 94.01 91.7232 97.5976 93.8113 97.2172C96.9048 96.6538 95.387 93.4032 93.7195 91.9345Z" fill="white"/>
<path d="M97.5427 94.0634C101.501 93.0184 105.199 90.7744 108.858 88.9926C109.525 88.6651 108.94 87.6779 108.273 88.0006C104.711 89.739 101.091 91.9397 97.2334 92.9558C96.518 93.1485 96.8225 94.2512 97.5427 94.0634Z" fill="#225E8A"/>
<path d="M176.479 17.0227C174.517 27.8144 163.646 82.2741 163.646 82.2838C162.878 86.1844 161.34 88.1154 157.184 88.1154L36.8626 87.8458C32.5028 87.865 32.5028 86.4878 33.0683 83.7332L33.6338 81.1328L46.5055 18.554C46.7279 17.4223 47.1967 14.6967 51.0394 14.6967L174.792 14.9712C175.952 14.9712 176.682 15.8862 176.479 17.0227Z" fill="#DAEAF5"/>
<path d="M72.0701 35.2689C62.0986 42.0975 52.1318 48.9308 42.1603 55.7593C40.744 56.7273 39.3278 57.7 37.9116 58.6728C37.3026 59.0869 37.8826 60.0789 38.4916 59.66C48.4632 52.8315 58.4299 46.0029 68.4015 39.1744C69.8177 38.2016 71.2339 37.2289 72.6502 36.261C73.2592 35.842 72.6792 34.85 72.0701 35.2689Z" fill="#19425E"/>
<path d="M140.189 39.1462C147.855 46.071 155.511 53.0344 163.375 59.7377C164.221 60.4553 165.744 62.2996 166.947 62.4056C167.687 62.4682 167.682 61.3221 166.947 61.2595C167.329 61.2884 167.068 61.2691 166.87 61.1198C166.648 60.9561 166.435 60.7875 166.222 60.619C165.507 60.0459 164.806 59.4488 164.11 58.8565C161.954 57.0169 159.823 55.1388 157.696 53.2656C153.152 49.2493 148.638 45.2042 144.128 41.1495C143.089 40.2153 142.045 39.2714 141.006 38.3324C140.455 37.8364 139.638 38.6454 140.189 39.1462Z" fill="#19425E"/>
<path d="M174.048 16.1517C159.625 25.8407 145.018 35.2841 130.232 44.4097C124.915 47.6939 119.574 50.9252 114.17 54.0554C111.802 55.4278 109.424 56.7762 107.026 58.0956C104.875 59.2755 101.274 59.7715 99.2298 58.1438C90.4231 51.113 82.1191 43.3936 73.762 35.8427C66.0815 28.9034 58.488 21.8678 50.822 14.9141C50.2758 14.4181 49.459 15.2271 50.0052 15.7231C65.4918 29.7847 80.6932 44.2026 96.7744 57.5996C97.5429 58.2401 98.3211 59.0347 99.1863 59.55C100.153 60.1326 101.41 60.2193 102.507 60.2386C105.354 60.2867 107.282 59.2803 109.694 57.9271C114.929 54.9992 120.087 51.9413 125.215 48.8304C135.926 42.3294 146.502 35.5923 157.01 28.759C162.907 24.9258 168.789 21.0636 174.633 17.1437C175.242 16.7296 174.667 15.7376 174.048 16.1517Z" fill="#19425E"/>
<path d="M44.3837 57.8787C46.496 56.3811 44.9686 53.0872 43.3252 51.6521C40.5314 49.2154 36.2875 47.3181 32.5319 48.0838C28.5491 48.8928 28.1672 52.1674 29.3321 55.4661C28.7231 55.7743 28.2204 56.2173 27.8917 56.8289C26.7703 58.9093 27.8337 61.1533 29.4094 62.8051C29.1533 63.0266 28.9212 63.277 28.7231 63.566C27.0845 65.9352 29.0034 68.4345 31.251 69.388C31.338 69.4265 31.425 69.4362 31.512 69.441C31.164 69.8455 30.9127 70.3415 30.8015 70.9483C30.4293 72.9468 32.3724 75.2245 34.2333 75.8024C34.3638 75.8602 34.5088 75.8891 34.6683 75.865C34.8955 75.8506 35.084 75.7591 35.229 75.6098C36.5437 74.8008 37.9019 74.0303 39.178 73.1538C40.0287 72.5711 40.7972 71.8055 40.9277 70.7364C41.0872 69.4025 40.3525 68.632 39.3375 68.2034C39.584 68.1408 39.8257 68.0734 40.0722 68.0011C40.8987 67.7555 41.8316 67.3703 42.1409 66.4938C42.6195 65.1599 41.8654 64.1005 40.7199 63.3059C41.3289 63.3107 41.9428 63.2866 42.5711 63.2048C43.7408 63.0507 44.9347 62.651 45.4422 61.4904C46.1189 59.9446 45.5002 58.7696 44.3837 57.8787Z" fill="#F7946D"/>
<path d="M217.351 75.5088C217.371 72.7495 217.414 69.9612 217.202 67.2115C217.071 65.5742 216.588 64.404 215.012 63.7876C214.814 63.7058 214.645 63.7202 214.49 63.7684C214.272 63.7491 214.045 63.8261 213.852 64.0525C211.725 66.5566 209.134 68.478 205.906 69.3352C202.179 70.3272 193.943 70.9484 192.976 65.3912C192.942 65.1938 192.845 65.0638 192.739 64.9578C192.551 64.7363 192.261 64.6111 191.893 64.7556C190.322 65.3527 189.646 66.547 189.472 68.1843C189.196 70.9003 189.283 73.8426 189.781 76.5249C190.603 80.9697 211.334 84.5621 217.337 76.3997C217.583 76.0674 217.535 75.7448 217.351 75.5088Z" fill="#F2F7FA"/>
<path d="M168.726 98.0548C170.49 99.8221 172.404 101.522 173.724 103.66C174.111 104.291 175.106 103.713 174.72 103.082C173.347 100.853 171.375 99.0805 169.538 97.241C169.016 96.7209 168.199 97.5299 168.726 98.0548Z" fill="#225E8A"/>
<path d="M189.244 73.1637C186.717 78.7257 196.036 79.5492 199.255 79.9826C205.219 80.7916 211.469 80.6375 216.723 77.3821C217.351 76.9921 216.771 76.0001 216.138 76.3901C212.035 78.9376 207.225 79.5154 202.474 79.1784C200.12 79.0146 188.089 78.4705 190.24 73.7415C190.545 73.0722 189.554 72.4895 189.244 73.1637Z" fill="#225E8A"/>
<path d="M193.788 33.2273C192.961 32.2498 191.68 31.8838 190.438 32.1438C189.38 32.3653 187.731 33.2225 187.591 34.4168C187.485 35.2884 188.2 36.3767 189.162 36.1889C189.868 36.0541 190.564 35.9819 191.279 36.0541C191.835 36.1071 192.367 36.2515 192.923 36.136C194.315 35.8567 194.643 34.2386 193.788 33.2273Z" fill="#572D2D"/>
<path d="M206.689 37.1038C205.848 35.8421 204.596 34.7874 203.01 34.6141C201.686 34.4648 199.714 35.0908 199.815 36.6703C199.931 38.4666 202.116 37.9946 203.266 38.6447C203.943 39.03 204.803 39.4201 205.596 39.2034C206.437 38.977 207.23 37.9224 206.689 37.1038Z" fill="#572D2D"/>
<path d="M168.799 80.1457C169.495 75.0316 167.102 71.2898 163.139 68.2753C163.003 68.1741 162.873 68.1308 162.747 68.126C160.828 66.8113 156.865 64.861 156.391 67.7744C156.343 68.0537 156.7 68.5257 156.768 68.7809C154.583 67.577 150.644 66.9799 151.509 69.8596C151.935 71.2609 152.809 72.2481 153.926 73.0668C151.587 72.0555 150.141 72.1037 149.958 74.4103C149.88 75.3879 150.402 76.0765 150.803 76.5003C148.875 76.1151 148.59 77.8583 148.952 80.1217C149.213 81.7686 151.485 82.4861 151.601 85.0239C151.678 86.6757 151.132 87.7881 149.798 93.0949C149.136 95.7146 149.919 98.1031 151.026 100.54C152.558 103.906 155.076 106.564 157.686 109.213C157.706 109.232 170.534 105.129 170.558 105.038C169.166 103.237 164.753 96.384 164.787 94.5781C165.188 88.7416 168.025 85.7704 168.799 80.1457Z" fill="#F7946D"/>
<path d="M245.178 91.5397C245.115 91.2074 238.561 80.2471 218.903 102.64C211.116 111.505 205.698 119.258 197.075 127.093C193.972 129.915 191.473 133.46 189.254 137.105C185.595 143.105 206.964 154.268 207.912 154.08C215.152 152.64 227.342 148.942 238.851 130.527C245.536 119.841 254.473 102.991 245.178 91.5397Z" fill="#F2F7FA"/>
<path d="M214.616 133.04C212.122 127.517 218.768 131.48 214.297 127.478C195.199 110.378 180.046 106.275 173.439 104.72C173.091 104.633 172.434 104.18 172.187 103.891C170.616 102.033 168.905 99.9041 167.329 98.0452C166.991 97.6504 166.59 97.5396 166.213 97.607C165.99 97.5252 165.744 97.4915 165.468 97.5348C163.622 97.8237 161.882 98.469 160.301 99.3984C158.445 100.472 156.821 101.936 155.511 103.66C154.786 104.614 154.153 105.644 153.631 106.737C153.09 107.898 154.003 109.473 154.501 110.489C155.018 111.519 155.656 112.473 156.372 113.373C155.212 118.887 155.168 122.431 157.077 126.371C157.793 127.868 158.798 129.433 160.132 131.177C160.997 132.308 161.78 133.281 162.534 134.148C165.831 138.015 168.257 139.676 173.352 143.533C184.551 152.004 207.095 162.387 218.545 150.323C219.415 149.409 217.197 138.761 214.616 133.04Z" fill="#F2F7FA"/>
<path d="M173.927 103.867C180.496 107.055 186.683 110.778 192.483 115.193C198.298 119.619 203.977 124.16 210.058 128.225C210.676 128.639 211.256 127.642 210.643 127.232C204.557 123.173 198.878 118.627 193.068 114.206C187.263 109.786 181.081 106.068 174.512 102.875C173.845 102.553 173.26 103.545 173.927 103.867Z" fill="#225E8A"/>
<path d="M210.802 121.762C213.746 122.225 216.385 123.453 218.599 125.441C219.145 125.938 219.966 125.128 219.415 124.632C217.062 122.514 214.248 121.151 211.111 120.655C210.382 120.544 210.072 121.647 210.802 121.762Z" fill="#225E8A"/>
<path d="M226.985 93.5766C222.257 97.718 217.97 102.394 213.828 107.104C209.768 111.712 205.683 116.47 202.44 121.7C202.048 122.331 203.044 122.908 203.436 122.282C206.708 117 210.841 112.213 214.949 107.566C219 102.982 223.19 98.4259 227.801 94.3856C228.357 93.8993 227.54 93.0903 226.985 93.5766Z" fill="#225E8A"/>
<path d="M243.433 124.396C239.721 130.238 235.284 135.492 230.547 140.538C226.317 145.055 221.89 149.587 216.602 152.886C213.958 154.537 211.015 155.919 207.882 156.281C204.716 156.647 201.323 156.247 198.244 155.476C192.454 154.027 187.118 150.791 182.004 147.829C175.778 144.227 170.002 140.047 164.734 135.155C164.192 134.649 163.375 135.458 163.917 135.964C168.755 140.452 174.009 144.396 179.674 147.791C184.986 150.979 190.607 154.422 196.586 156.208C202.406 157.952 208.67 158.164 214.224 155.51C220.106 152.703 224.993 147.993 229.459 143.356C234.965 137.644 240.17 131.678 244.429 124.974C244.825 124.348 243.829 123.77 243.433 124.396Z" fill="#225E8A"/>
<path d="M169.62 103.237C165.227 104.595 160.761 107.301 158.237 111.216C157.836 111.842 158.837 112.416 159.233 111.794C161.587 108.144 165.831 105.611 169.925 104.345C170.635 104.123 170.331 103.015 169.62 103.237Z" fill="#225E8A"/>
<path d="M152.191 78.2966C154.462 80.2132 155.531 82.9581 155.178 85.8956C155.086 86.6276 156.241 86.6228 156.328 85.8956C156.72 82.6932 155.477 79.5727 153.008 77.4827C152.442 77.0108 151.625 77.8198 152.191 78.2966Z" fill="#4595CB"/>
<path d="M155.154 74.454C158.465 76.5873 160.243 80.3339 159.881 84.2249C159.813 84.9616 160.968 84.9568 161.036 84.2249C161.432 79.9245 159.368 75.8024 155.739 73.462C155.11 73.0623 154.53 74.0543 155.154 74.454Z" fill="#4595CB"/>
<path d="M158.407 70.8902C159.832 72.3108 161.577 73.7988 162.554 75.571C163.685 77.6272 163.839 80.1361 163.699 82.4284C163.651 83.17 164.806 83.1652 164.85 82.4284C164.995 80.1313 164.816 77.6031 163.806 75.4891C162.8 73.3847 160.847 71.704 159.219 70.0812C158.697 69.5563 157.88 70.3701 158.407 70.8902Z" fill="#4595CB"/>
<path d="M228.686 23.4275C227.893 20.3937 224.283 18.9827 221.03 19.9891C216.781 21.3086 215.089 25.3393 213.354 28.6332C213.127 29.0617 213.199 29.4807 213.431 29.8034C213.32 30.1501 213.407 30.5305 213.828 30.8483C216.757 33.0587 220.996 32.4856 224.326 31.2384C227.976 29.8756 229.575 26.8321 228.686 23.4275Z" fill="#572D2D"/>
<path d="M43.1124 56.6502C39.9271 53.4093 34.9147 52.6532 30.8932 54.7673C30.2407 55.114 30.8207 56.106 31.4781 55.7593C35.0452 53.8812 39.4824 54.5939 42.2955 57.4592C42.8127 57.9889 43.6296 57.1799 43.1124 56.6502Z" fill="#4595CB"/>
<path d="M39.642 61.6108C36.7757 60.4984 33.6629 60.8211 31.0721 62.4632C30.4486 62.8581 31.0286 63.8501 31.657 63.4552C34.0157 61.9576 36.7273 61.7072 39.3326 62.7136C40.0286 62.9833 40.3283 61.8709 39.642 61.6108Z" fill="#4595CB"/>
<path d="M37.8825 67.6107C35.8282 67.1484 33.7933 67.6781 32.2224 69.0699C31.6665 69.561 32.4834 70.3701 33.0393 69.8789C34.2911 68.7713 35.9394 68.3523 37.5731 68.7183C38.2981 68.882 38.6075 67.7745 37.8825 67.6107Z" fill="#4595CB"/>
<path d="M219.527 28.5175C219.256 28.0552 218.956 27.6025 218.627 27.1643C214.853 22.1223 207.81 20.3357 201.792 20.1913C188.191 19.859 182.656 32.211 182.792 32.5337C182.27 33.7954 183.299 36.3043 184.126 35.0041C187.388 29.8562 193.512 27.015 199.086 27.068C199.482 27.0728 199.786 27.4002 199.806 27.7951C199.965 31.0119 201.352 34.3492 202.933 36.9544C204.625 39.7426 206.897 42.1601 209.569 44.0333C210.928 44.982 212.383 45.791 213.91 46.446C215.727 47.2309 218.748 48.9067 219.86 46.1522C222.098 40.6094 222.63 33.8098 219.527 28.5175Z" fill="#572D2D"/>
<path d="M210.628 53.8913C209.202 56.7422 207.68 59.8675 204.963 61.7263C202.155 63.6477 198.452 63.8548 195.156 63.9896C194.416 64.0185 194.416 65.1647 195.156 65.1358C198.655 64.9961 202.561 64.7409 205.548 62.7135C208.453 60.7439 210.101 57.5175 211.624 54.4692C211.952 53.8143 210.957 53.2316 210.628 53.8913Z" fill="#4595CB"/>
<path d="M203.233 39.4012C202.783 38.9774 202.121 38.8907 201.551 39.0785C199.211 39.8538 199.482 45.0065 202.116 43.9423C203.122 43.533 203.615 42.1846 203.677 41.183C203.716 40.581 203.697 39.8394 203.233 39.4012Z" fill="#2E060A"/>
<path d="M191.473 37.1999C191.033 36.7424 190.375 36.6558 189.81 36.8676C187.495 37.7296 187.751 42.9209 190.356 41.7362C191.352 41.2836 191.821 40.2193 191.893 39.131C191.937 38.4809 191.927 37.6719 191.473 37.1999Z" fill="#2E060A"/>
<path d="M194.093 39.916C193.078 40.3397 192.154 41.0862 192.024 42.2419C191.879 43.5084 192.71 44.5389 193.624 45.3191C194.18 45.7958 195.001 44.9868 194.436 44.5052C193.923 44.067 193.358 43.5614 193.198 42.8679C193 42.0059 193.638 41.3366 194.397 41.0236C195.074 40.7442 194.774 39.6367 194.093 39.916Z" fill="#4595CB"/>
<path d="M196.05 44.429C196.301 44.3856 196.538 44.506 196.707 44.6794C197.23 45.2091 198.046 44.3952 197.524 43.8703C197.046 43.3792 196.408 43.2154 195.741 43.3214C195.436 43.3743 195.262 43.75 195.34 44.0293C195.431 44.3519 195.741 44.4771 196.05 44.429Z" fill="#4595CB"/>
<path d="M198.37 47.9056C195.983 47.5348 191.009 46.3838 190.936 46.5283C190.801 46.5764 190.695 46.6728 190.68 46.822C190.554 47.92 190.661 48.5364 191.599 49.1576C193.691 50.5349 197.906 50.7757 198.68 48.3438C198.738 48.1704 198.602 47.9441 198.37 47.9056Z" fill="white"/>
<path d="M216.617 25.7438C218.584 27.0007 219.788 29.0521 219.908 31.3733C219.947 32.1101 221.097 32.1101 221.059 31.3733C220.919 28.638 219.517 26.2302 217.202 24.7518C216.573 24.3521 215.993 25.3441 216.617 25.7438Z" fill="#2F1717"/>
<path d="M210.845 27.304C215.046 32.2015 214.446 38.9144 213.514 44.8328C213.402 45.5552 214.514 45.8682 214.625 45.1362C215.626 38.7555 216.167 31.744 211.662 26.495C211.179 25.9316 210.367 26.7454 210.845 27.304Z" fill="#2F1717"/>
<path d="M217.753 35.4767C218.328 37.4559 217.627 39.3485 216.863 41.1736C216.583 41.8574 217.695 42.1511 217.98 41.4818C218.826 39.4496 219.498 37.3548 218.864 35.1733C218.657 34.4606 217.545 34.764 217.753 35.4767Z" fill="#2F1717"/>
<path d="M216.646 43.8845C213.03 39.5023 207.346 49.0661 209.062 52.4177C210.526 55.2782 213.765 52.5814 215.157 51.0212C216.66 49.3309 218.366 45.9648 216.646 43.8845Z" fill="#F7946D"/>
<path d="M214.891 44.7222C213.277 45.4494 212.102 46.8844 211.672 48.5892C211.498 49.3067 212.605 49.6149 212.784 48.8974C213.146 47.4479 214.113 46.3258 215.471 45.7142C216.148 45.4109 215.563 44.4237 214.891 44.7222Z" fill="#4595CB"/>
<path d="M244.767 161.057C238.991 167.539 230.818 171.343 222.509 173.496C213.543 175.822 204.083 176.371 194.875 175.432C189.863 174.917 184.904 173.915 180.124 172.326C179.418 172.09 179.118 173.198 179.819 173.429C188.611 176.361 198.07 177.353 207.307 176.906C216.549 176.453 225.945 174.556 234.245 170.371C238.493 168.228 242.413 165.425 245.584 161.866C246.077 161.317 245.265 160.504 244.767 161.057Z" fill="#225E8A"/>
<path d="M188.742 8.84568C187.567 5.0895 184.894 1.89676 180.752 0.890295C174.594 -0.607358 167.88 2.32053 164.637 7.69475C161.394 13.0593 162.81 19.3004 167.581 23.2251C174.492 28.9171 186.861 25.9218 189.022 16.8877C189.646 14.2873 189.549 11.4317 188.742 8.84568Z" fill="#F2F7FA"/>
<path d="M175.16 9.50604C176.01 8.99559 177.291 8.66813 178.152 9.36639C179.592 10.5414 177.717 12.0583 176.803 12.6314C175.561 13.4115 173.642 13.8208 172.612 14.8899C171.979 15.5544 172.313 16.3298 173.149 16.5272C174.029 16.7343 175.203 16.5754 176.107 16.585C177.224 16.5994 178.345 16.5994 179.466 16.5802C180.206 16.5754 180.211 15.4244 179.466 15.4341C178.181 15.4533 176.89 15.4485 175.599 15.4292C175.019 15.4244 174.444 15.4148 173.864 15.4003C173.632 15.3137 173.555 15.3763 173.637 15.5833C173.859 15.4437 174.087 15.3137 174.319 15.1933C175.986 14.3024 177.934 13.6764 179.128 12.1209C180.027 10.9459 180.129 9.32305 178.809 8.40327C177.543 7.52201 175.831 7.76279 174.58 8.51884C173.942 8.89928 174.522 9.89129 175.16 9.50604Z" fill="#225E8A"/>
<path d="M236.072 101.676C235.211 100.063 233.065 99.6006 231.678 100.862C231.485 101.036 231.33 101.224 231.185 101.421C230.818 101.792 230.518 102.249 230.32 102.755C229.875 103.891 229.662 105.312 230.001 106.501C230.421 107.994 231.794 109.001 233.346 108.914C237.019 108.707 237.459 104.267 236.072 101.676Z" fill="white"/>
<path d="M196.331 92.5651C196.219 92.7635 196.277 92.6909 196.331 92.5651V92.5651Z" fill="white"/>
<path d="M198.651 90.764C196.49 90.7014 195.243 93.0996 195.46 95.0066C195.726 97.3662 198.211 99.5332 200.444 97.8141C201.372 97.1014 201.662 96.0805 201.749 94.9584C201.908 92.9888 200.893 90.8266 198.651 90.764Z" fill="white"/>
<path d="M181.501 73.9383C181.492 73.9527 181.487 73.972 181.477 73.9865C180.51 76.2016 177.886 77.2948 175.899 75.5949C174.478 74.3765 174.381 72.5755 174.86 70.9334C174.899 70.8082 174.933 70.683 174.976 70.5626C176.122 70.683 177.204 70.8322 178.2 70.996C179.379 71.0249 180.559 71.073 181.733 71.126C181.956 72.0265 181.883 73.0282 181.501 73.9383Z" fill="white"/>
<path d="M134.282 97.1067C133.364 96.837 132.354 96.7166 131.44 97.0922C130.333 97.5497 129.642 98.7344 129.865 99.9238C130.15 101.446 131.779 102.63 133.209 103.251C133.321 103.3 133.432 103.343 133.548 103.381C133.615 103.405 133.683 103.439 133.746 103.458C134.046 103.564 134.365 103.593 134.684 103.569C134.838 103.564 134.993 103.555 135.152 103.521C136.254 103.314 137.207 102.481 137.463 101.388C137.937 99.3989 136.071 97.6268 134.282 97.1067Z" fill="white"/>
<path d="M194.102 135.285C193.899 133.98 193.261 132.776 192.401 131.784C191.468 130.71 189.984 129.641 188.485 129.911C186.32 130.296 185.885 132.506 186.625 134.269C187.18 135.593 188.147 136.682 189.414 137.385C189.665 137.529 189.945 137.616 190.221 137.649C190.762 137.876 191.352 138.011 192.009 138.02C193.551 138.049 194.315 136.629 194.102 135.285Z" fill="white"/>
<path d="M174.657 107.59C172.98 107.166 171.452 108.327 171.38 109.926C170.93 110.59 170.872 111.438 171.283 112.208C172.187 113.903 174.12 115.006 176.049 114.905C177.204 114.838 178.248 113.961 178.224 112.743C178.18 110.634 176.861 108.139 174.657 107.59Z" fill="white"/>
<path d="M164.758 131.711C164.7 132.988 163.723 133.927 162.534 134.148C161.78 133.281 160.997 132.309 160.132 131.177C158.798 129.434 157.793 127.869 157.077 126.371C157.295 126.246 157.532 126.145 157.802 126.072C159.929 125.485 162.307 126.992 163.554 128.605C164.221 129.477 164.811 130.589 164.758 131.711Z" fill="white"/>
<path d="M161.157 102.033C161.162 103.911 159.547 105.5 157.628 105.24C156.575 105.105 155.874 104.474 155.511 103.66C156.821 101.936 158.445 100.472 160.301 99.3984C160.843 100.164 161.147 101.132 161.157 102.033Z" fill="white"/>
<path d="M222.567 136.946C221.252 136.672 219.734 137.23 218.656 137.962C218.531 138.049 218.415 138.145 218.308 138.251C217.453 138.954 216.825 139.879 216.433 140.982C215.935 142.398 217.226 143.626 218.531 143.717C220.783 143.881 223.287 142.687 224.389 140.678C225.254 139.099 224.263 137.303 222.567 136.946Z" fill="white"/>
<path d="M234.056 153.877C232.263 154.773 230.759 156.304 229.947 158.134C229.643 158.828 229.609 159.598 229.918 160.229C230.141 161.616 231.837 162.656 233.162 161.804C235.168 160.513 236.618 158.616 237.246 156.319C237.773 154.412 235.709 153.049 234.056 153.877Z" fill="white"/>
<path d="M197.06 160.051C196.471 159.078 195.504 158.178 194.363 157.932C192.913 157.614 191.376 158.395 191.009 159.883C190.308 162.704 193.353 168.806 196.872 166.34C198.931 164.9 198.133 161.828 197.06 160.051Z" fill="white"/>
<path d="M251.384 117.385C247.832 119.282 247.005 129.168 251.911 127.55C251.926 127.546 251.94 127.546 251.955 127.536C251.834 124.127 251.631 120.683 251.384 117.385Z" fill="white"/>
<path d="M231.359 80.4204C231.098 80.613 230.813 80.7816 230.523 80.9309C228.444 81.9951 224.892 82.6597 223.785 79.9003C223.761 79.8329 223.746 79.7703 223.727 79.7029C223.645 79.6114 223.567 79.5151 223.509 79.4188C222.833 78.263 223.224 77.0688 224.094 76.2357C226.516 77.5551 228.99 78.9902 231.359 80.4204Z" fill="white"/>
<path d="M305.979 67.2253C308.241 68.4822 306.487 72.6284 306.047 74.5498C305.51 76.895 304.969 79.2402 304.432 81.5854C304.268 82.3029 305.38 82.6111 305.544 81.8888C306.317 78.5227 307.096 75.1614 307.864 71.7953C308.318 69.7872 308.681 67.4083 306.564 66.2333C305.911 65.8721 305.331 66.8641 305.979 67.2253Z" fill="#225E8A"/>
</svg>
