<svg width="326" height="302" viewBox="0 0 326 302" fill="none" xmlns="http://www.w3.org/2000/svg">
<mask id="mask0_16094_703" style="mask-type:luminance" maskUnits="userSpaceOnUse" x="0" y="0" width="326" height="302">
<path d="M0 0H326V301.233H0V0Z" fill="white"/>
</mask>
<g mask="url(#mask0_16094_703)">
<path d="M76.1555 300.742H251.619C263.952 300.742 276.075 297.583 286.844 291.587C323.493 271.162 335.084 223.985 312.072 188.94L306.056 179.765C296.019 164.484 293.903 145.322 300.371 128.226L308.453 106.828C320.164 75.8648 294.405 43.6679 261.576 48.2502C251.669 49.624 241.602 47.5784 233.039 42.4345L185.801 14.068C163.812 0.862339 137.361 -2.75743 112.624 4.071L91.7175 9.83656C51.4589 20.9465 28.7275 63.4613 41.863 103.048L46.1044 115.813C53.8854 139.256 45.1117 165.005 24.6365 178.843C1.46391 194.495 -6.31709 224.997 6.52758 249.824L12.995 262.328C25.198 285.922 49.5638 300.742 76.1555 300.742Z" fill="#BFD9EC"/>
</g>
<path d="M311.731 256.242C311.992 276.607 298.125 293.793 291.086 299.809H280.297C288.318 272.646 301.584 259.14 309.014 254.647C310.258 253.895 311.711 254.798 311.731 256.242Z" fill="#225E8A"/>
<path d="M312.864 189.451C323.924 231.074 296.059 280.377 284.067 298.726H259.791C270.219 220.184 287.706 201.103 309.816 188.198C310.999 187.506 312.513 188.118 312.864 189.451Z" fill="white"/>
<path fill-rule="evenodd" clip-rule="evenodd" d="M310.357 189.131C310.939 188.79 311.661 189.1 311.821 189.722C317.276 210.237 313.145 232.718 306.096 252.451C299.177 271.824 289.481 288.408 283.485 297.653H261.024C266.208 259.139 273.117 235.215 281.379 219.352C289.702 203.369 299.438 195.508 310.357 189.131ZM313.907 189.171C313.376 187.135 311.059 186.223 309.275 187.265C298.084 193.793 288.017 201.925 279.464 218.349C270.941 234.714 263.942 259.27 258.718 298.586L258.558 299.809H284.658L284.979 299.328C290.995 290.103 301.002 273.117 308.131 253.183C315.241 233.27 319.522 210.288 313.907 189.171Z" fill="#225E8A"/>
<path d="M273.719 215.061C283.264 249.945 272.335 286.193 265.186 299.809H247.378C243.367 257.295 259.651 226.381 270.36 214.228C271.412 213.025 273.287 213.517 273.719 215.061Z" fill="#225E8A"/>
<path fill-rule="evenodd" clip-rule="evenodd" d="M297.753 219.071L303.559 202.727L305.595 203.449L292.289 240.89L301.032 238.253L301.654 240.329L291.386 243.417L279.294 277.459L290.183 273.398L290.935 275.433L278.341 280.116L271.603 299.097L269.567 298.365L283.264 259.821L278.201 245.603L280.236 244.871L284.407 256.603L296.53 222.511L292.75 209.887L294.816 209.265L297.753 219.071Z" fill="#225E8A"/>
<path fill-rule="evenodd" clip-rule="evenodd" d="M264.604 242.916L267.362 227.755L269.488 228.136L263.892 258.919L271.162 255.089L272.165 257.004L263.401 261.616L258.608 288.017L264.614 283.295L265.948 284.989L258.027 291.226L256.533 299.468L254.407 299.077L258.247 277.94L251.92 269.668L253.625 268.354L258.769 275.062L264.123 245.573L258.999 240.028L260.584 238.554L264.604 242.916Z" fill="white"/>
<path d="M283.425 87.1954L286.644 82.7534C287.225 81.9612 288.478 82.3623 288.478 83.345L288.448 88.6994C288.448 89.0203 288.599 89.3311 288.87 89.5216L293.642 92.9509C294.404 93.5024 294.054 94.7157 293.111 94.7658L287.165 95.1268C286.884 95.1468 286.613 95.2872 286.433 95.5078L282.412 100.642C281.81 101.404 280.587 100.963 280.607 99.9999L280.748 93.8934C280.748 93.6027 280.627 93.3119 280.397 93.1214L275.383 88.7395C274.651 88.0978 275.173 86.8945 276.145 86.9848L282.502 87.6065C282.863 87.6466 283.214 87.4861 283.425 87.1954Z" fill="white"/>
<path d="M316.113 146.546L317.677 145.693C318.54 145.222 319.492 146.134 319.071 147.017L318.319 148.561C318.179 148.852 318.189 149.193 318.339 149.484L319.382 151.369C319.833 152.191 318.991 153.133 318.119 152.772L316.053 151.95C315.792 151.84 315.491 151.85 315.231 151.98L313.005 153.083C312.142 153.524 311.22 152.602 311.651 151.74L312.664 149.754C312.794 149.484 312.804 149.173 312.684 148.902L311.691 146.596C311.3 145.703 312.293 144.841 313.135 145.342L315.11 146.526C315.421 146.706 315.802 146.716 316.113 146.546Z" fill="url(#paint0_linear_16094_703)"/>
<path d="M31.0439 76.6269C31.0439 90.4442 42.2843 101.634 56.1417 101.634C60.9346 101.634 65.4067 100.301 69.217 97.9846L76.7774 100.652C77.9806 101.083 79.1939 100.01 78.9232 98.7667L77.0782 90.4442C79.7153 86.4835 81.2495 81.7407 81.2495 76.6269C81.2495 62.8197 70.0091 51.6295 56.1417 51.6295C42.2843 51.6295 31.0439 62.8197 31.0439 76.6269Z" fill="white"/>
<path fill-rule="evenodd" clip-rule="evenodd" d="M56.1417 52.1709C42.5851 52.1709 31.5854 63.1204 31.5854 76.6269C31.5854 90.1434 42.5851 101.093 56.1417 101.093C60.8343 101.093 65.2061 99.7894 68.9362 97.5233L69.1568 97.3829L76.9579 100.14C77.76 100.421 78.5722 99.7092 78.3917 98.8769L76.4966 90.3339L76.627 90.1434C79.2039 86.2729 80.708 81.6304 80.708 76.6269C80.708 63.1204 69.7083 52.1709 56.1417 52.1709ZM30.4924 76.6269C30.4924 62.5188 41.9834 51.088 56.1417 51.088C70.3099 51.088 81.8009 62.5188 81.8009 76.6269C81.8009 81.7607 80.2768 86.5437 77.6597 90.5445L79.4546 98.6463C79.8256 100.311 78.2112 101.735 76.5969 101.163L69.2771 98.5761C65.4368 100.862 60.9446 102.176 56.1417 102.176C41.9834 102.176 30.4924 90.745 30.4924 76.6269Z" fill="#225E8A"/>
<path d="M52.8329 83.646C52.5321 83.646 52.2915 83.4054 52.3015 83.1045C52.3416 81.2596 52.6023 79.7756 53.0936 78.6525C53.6251 77.4092 54.5977 76.1859 56.0215 74.9927C57.4454 73.7794 58.3979 72.8068 58.8692 72.0547C59.3405 71.2927 59.5811 70.4905 59.5811 69.6583C59.5811 67.1314 58.3478 65.868 55.9012 65.868C54.7381 65.868 53.8055 66.2089 53.0936 66.9008C52.512 67.4724 52.1611 68.2244 52.0508 69.177C52.0107 69.4677 51.77 69.6984 51.4793 69.6984H45.7237C45.4229 69.6984 45.1722 69.4577 45.1923 69.1569C45.3327 66.5599 46.2953 64.5043 48.0701 63.0003C49.9852 61.3859 52.6023 60.5737 55.9012 60.5737C59.2302 60.5737 61.8172 61.3458 63.6521 62.89C65.4971 64.4141 66.4096 66.5699 66.4096 69.3675C66.4096 70.6409 66.1188 71.8441 65.5172 72.9772C64.9155 74.1002 63.8727 75.3436 62.3787 76.7173L60.4735 78.442C59.2803 79.5349 58.5985 80.8184 58.418 82.2823L58.3578 83.1447C58.3378 83.4254 58.1072 83.646 57.8164 83.646H52.8329ZM51.6096 90.5346C51.6096 89.5319 51.9606 88.7097 52.6725 88.0679C53.3944 87.4062 54.3069 87.0753 55.4299 87.0753C56.5429 87.0753 57.4554 87.4062 58.1573 88.0679C58.8893 88.7097 59.2502 89.5319 59.2502 90.5346C59.2502 91.5173 58.8893 92.3294 58.1874 92.9712C57.4955 93.6129 56.573 93.9338 55.4299 93.9338C54.2768 93.9338 53.3543 93.6129 52.6424 92.9712C51.9505 92.3294 51.6096 91.5173 51.6096 90.5346Z" fill="url(#paint1_linear_16094_703)"/>
<path d="M109.144 41.4521C109.144 35.3155 114.138 30.3421 120.304 30.3421H247.237C253.404 30.3421 258.397 35.3155 258.397 41.4521V288.659C258.397 294.806 253.404 299.779 247.237 299.779H120.304C114.138 299.779 109.144 294.806 109.144 288.659V41.4521Z" fill="white"/>
<mask id="mask1_16094_703" style="mask-type:luminance" maskUnits="userSpaceOnUse" x="107" y="28" width="155" height="274">
<path d="M107.811 28.2363H261.827V301.233H107.811V28.2363Z" fill="white"/>
</mask>
<g mask="url(#mask1_16094_703)">
<path fill-rule="evenodd" clip-rule="evenodd" d="M108.212 41.4521C108.212 34.8042 113.627 29.4196 120.305 29.4196H247.237C253.915 29.4196 259.32 34.8042 259.32 41.4521V288.659C259.32 295.307 253.915 300.702 247.237 300.702H120.305C113.627 300.702 108.212 295.307 108.212 288.659V41.4521ZM120.305 31.2746C114.649 31.2746 110.077 35.8269 110.077 41.4521V288.659C110.077 294.285 114.649 298.847 120.305 298.847H247.237C252.882 298.847 257.465 294.285 257.465 288.659V41.4521C257.465 35.8269 252.882 31.2746 247.237 31.2746H120.305Z" fill="#225E8A"/>
</g>
<path d="M230.021 129.419C230.021 154.988 209.205 175.724 183.526 175.724C157.856 175.724 137.04 154.988 137.04 129.419C137.04 103.84 157.856 83.1144 183.526 83.1144C209.205 83.1144 230.021 103.84 230.021 129.419Z" fill="#BFD9EC"/>
<path d="M249.544 97.9344C249.544 109.696 239.968 119.232 228.156 119.232C216.344 119.232 206.769 109.696 206.769 97.9344C206.769 86.1626 216.344 76.6269 228.156 76.6269C239.968 76.6269 249.544 86.1626 249.544 97.9344Z" fill="white"/>
<path fill-rule="evenodd" clip-rule="evenodd" d="M228.156 77.5595C216.865 77.5595 207.7 86.6741 207.7 97.9345C207.7 109.185 216.865 118.3 228.156 118.3C239.456 118.3 248.611 109.185 248.611 97.9345C248.611 86.6741 239.456 77.5595 228.156 77.5595ZM205.845 97.9345C205.845 85.6514 215.832 75.7045 228.156 75.7045C240.479 75.7045 250.476 85.6514 250.476 97.9345C250.476 110.208 240.479 120.155 228.156 120.155C215.832 120.155 205.845 110.208 205.845 97.9345Z" fill="#225E8A"/>
<path fill-rule="evenodd" clip-rule="evenodd" d="M222.35 97.4632L216.073 103.72L222.35 109.967L228.627 103.72L234.894 109.967L241.171 103.72L234.894 97.4632L241.171 91.2163L234.894 84.9695L228.627 91.2163L222.35 84.9695L216.073 91.2163L222.35 97.4632Z" fill="url(#paint2_linear_16094_703)"/>
<path d="M154.096 39.3765L149.253 30.3421H218.289L212.594 39.7876C210.919 42.5751 207.891 44.2797 204.622 44.2797H162.298C158.859 44.2797 155.71 42.3946 154.096 39.3765Z" fill="#225E8A"/>
<path d="M256.563 35.9172H110.027C114.87 31.0842 119.503 30.1918 121.218 30.3422H245.373C251.339 30.3422 255.32 34.0622 256.563 35.9172Z" fill="#225E8A"/>
<path d="M256.452 294.495H111C116.043 299.398 118.961 300.311 120.736 300.16H246.716C252.923 300.16 255.159 296.38 256.452 294.495Z" fill="#225E8A"/>
<path d="M130.532 65.5169C130.532 64.4942 131.364 63.6619 132.387 63.6619H181.901C182.934 63.6619 183.766 64.4942 183.766 65.5169V67.4923C183.766 68.515 182.934 69.3473 181.901 69.3473H132.387C131.364 69.3473 130.532 68.515 130.532 67.4923V65.5169Z" fill="url(#paint3_linear_16094_703)"/>
<path d="M130.532 190.534C130.532 189.512 131.364 188.689 132.387 188.689H181.901C182.934 188.689 183.766 189.512 183.766 190.534V192.51C183.766 193.533 182.934 194.365 181.901 194.365H132.387C131.364 194.365 130.532 193.533 130.532 192.51V190.534Z" fill="#225E8A"/>
<path d="M130.532 239.617C130.532 238.594 131.364 237.762 132.387 237.762H162.138C163.17 237.762 164.003 238.594 164.003 239.617V241.472C164.003 242.494 163.17 243.327 162.138 243.327H132.387C131.364 243.327 130.532 242.494 130.532 241.472V239.617Z" fill="#225E8A"/>
<path fill-rule="evenodd" clip-rule="evenodd" d="M129.599 204.432C129.599 202.898 130.843 201.654 132.387 201.654H231.875C233.42 201.654 234.663 202.898 234.663 204.432V222.952C234.663 224.486 233.42 225.729 231.875 225.729H132.387C130.843 225.729 129.599 224.486 129.599 222.952V204.432ZM132.387 203.499C131.876 203.499 131.454 203.921 131.454 204.432V222.952C131.454 223.463 131.876 223.874 132.387 223.874H231.875C232.387 223.874 232.808 223.463 232.808 222.952V204.432C232.808 203.921 232.387 203.499 231.875 203.499H132.387Z" fill="#BFD9EC"/>
<path fill-rule="evenodd" clip-rule="evenodd" d="M129.599 252.582C129.599 251.048 130.843 249.804 132.387 249.804H231.875C233.42 249.804 234.663 251.048 234.663 252.582V271.102C234.663 272.636 233.42 273.879 231.875 273.879H132.387C130.843 273.879 129.599 272.636 129.599 271.102V252.582ZM132.387 251.659C131.876 251.659 131.454 252.07 131.454 252.582V271.102C131.454 271.613 131.876 272.034 132.387 272.034H231.875C232.387 272.034 232.808 271.613 232.808 271.102V252.582C232.808 252.07 232.387 251.659 231.875 251.659H132.387Z" fill="#BFD9EC"/>
<path fill-rule="evenodd" clip-rule="evenodd" d="M246.054 43.5876H247.919V51.158H246.054V43.5876Z" fill="#225E8A"/>
<path fill-rule="evenodd" clip-rule="evenodd" d="M241.302 44.5303H243.167V51.1582H241.302V44.5303Z" fill="#225E8A"/>
<path fill-rule="evenodd" clip-rule="evenodd" d="M236.549 46.4254H238.414V51.1582H236.549V46.4254Z" fill="#225E8A"/>
<path fill-rule="evenodd" clip-rule="evenodd" d="M231.796 48.3205H233.661V51.1582H231.796V48.3205Z" fill="#225E8A"/>
<path fill-rule="evenodd" clip-rule="evenodd" d="M183.505 102.246C175.043 102.246 168.184 109.195 168.184 117.758V128.387C168.184 129.64 169.207 130.663 170.48 130.663C171.744 130.663 172.766 129.64 172.766 128.387V117.467C172.766 111.471 177.579 106.598 183.505 106.598C189.441 106.598 194.244 111.471 194.244 117.467V127.815C194.244 129.078 195.267 130.091 196.541 130.091C197.804 130.091 198.827 129.078 198.827 127.815V117.758C198.827 109.195 191.968 102.246 183.505 102.246Z" fill="#225E8A"/>
<path d="M163.963 128.176C163.963 126.642 165.206 125.399 166.75 125.399H200.261C201.805 125.399 203.058 126.642 203.058 128.176V153.144C203.058 154.678 201.805 155.921 200.261 155.921H166.75C165.206 155.921 163.963 154.678 163.963 153.144V128.176Z" fill="url(#paint4_linear_16094_703)"/>
<path fill-rule="evenodd" clip-rule="evenodd" d="M186.002 141.923C186.905 141.201 187.486 140.088 187.486 138.835C187.486 136.649 185.702 134.874 183.506 134.874C181.31 134.874 179.525 136.649 179.525 138.835C179.525 140.199 180.217 141.402 181.27 142.114L180.377 145.824C180.247 146.375 180.668 146.907 181.24 146.907H186.073C186.644 146.907 187.065 146.375 186.935 145.824L186.002 141.923Z" fill="white"/>
<path d="M241.793 210.909H219.172C217.768 210.909 216.876 209.415 217.537 208.182L228.848 187.115C229.54 185.802 231.425 185.802 232.127 187.115L243.437 208.182C244.099 209.415 243.197 210.909 241.793 210.909Z" fill="#225E8A"/>
<path d="M229.449 202.988H231.485L231.806 194.244H229.128L229.449 202.988ZM231.876 205.715C231.876 205.284 231.746 204.933 231.485 204.652C231.214 204.372 230.883 204.231 230.482 204.231C230.081 204.231 229.75 204.372 229.489 204.652C229.219 204.933 229.088 205.284 229.088 205.715C229.088 206.157 229.219 206.507 229.489 206.788C229.75 207.069 230.081 207.209 230.482 207.209C230.883 207.209 231.214 207.069 231.485 206.788C231.746 206.507 231.876 206.157 231.876 205.715Z" fill="white"/>
<path d="M144.56 213.266C144.56 214.569 143.497 215.622 142.193 215.622C140.89 215.622 139.827 214.569 139.827 213.266C139.827 211.962 140.89 210.909 142.193 210.909C143.497 210.909 144.56 211.962 144.56 213.266Z" fill="url(#paint5_linear_16094_703)"/>
<path d="M155.931 213.266C155.931 214.569 154.868 215.622 153.554 215.622C152.251 215.622 151.188 214.569 151.188 213.266C151.188 211.962 152.251 210.909 153.554 210.909C154.868 210.909 155.931 211.962 155.931 213.266Z" fill="url(#paint6_linear_16094_703)"/>
<path d="M167.291 213.266C167.291 214.569 166.228 215.622 164.925 215.622C163.611 215.622 162.559 214.569 162.559 213.266C162.559 211.962 163.611 210.909 164.925 210.909C166.228 210.909 167.291 211.962 167.291 213.266Z" fill="url(#paint7_linear_16094_703)"/>
<path d="M178.652 213.266C178.652 214.569 177.599 215.622 176.286 215.622C174.982 215.622 173.919 214.569 173.919 213.266C173.919 211.962 174.982 210.909 176.286 210.909C177.599 210.909 178.652 211.962 178.652 213.266Z" fill="url(#paint8_linear_16094_703)"/>
<path d="M190.023 213.266C190.023 214.569 188.96 215.622 187.657 215.622C186.343 215.622 185.291 214.569 185.291 213.266C185.291 211.962 186.343 210.909 187.657 210.909C188.96 210.909 190.023 211.962 190.023 213.266Z" fill="url(#paint9_linear_16094_703)"/>
<path d="M201.384 213.266C201.384 214.569 200.331 215.622 199.017 215.622C197.714 215.622 196.651 214.569 196.651 213.266C196.651 211.962 197.714 210.909 199.017 210.909C200.331 210.909 201.384 211.962 201.384 213.266Z" fill="url(#paint10_linear_16094_703)"/>
<path d="M75.2632 123.223C62.0876 132.518 67.6226 149.032 70.1093 155.44L69.0163 168.495C70.1494 172.606 74.2404 180.838 81.5702 180.838C88.91 180.838 92.2791 173.809 93.0412 170.3L91.8881 160.393C100.491 157.295 101.063 144.911 100.491 134.995C99.8094 123.223 86.8846 115.041 75.2632 123.223Z" fill="#EFCB96"/>
<path d="M70.5207 152.201L69.3776 163.431C68.9966 162.599 68.1242 160.183 67.673 157.195C67.1014 153.444 57.9568 139.096 60.8145 128.487C63.1006 120.004 69.3776 120.375 72.2353 121.629C73.9499 118.5 84.2277 107.901 99.0778 109.145C113.928 110.388 115.642 131.605 103.65 134.724C94.0542 137.221 83.2751 135.767 79.0938 134.724C78.7128 135.556 77.6098 138.344 76.2361 142.836C74.5215 148.451 74.5215 149.704 73.9499 145.954C73.3784 142.214 71.0922 135.356 68.2345 142.214C65.9584 147.709 68.806 151.158 70.5207 152.201Z" fill="#225E8A"/>
<path d="M78.8127 160.162C82.7434 162.469 88.8198 161.125 91.3666 160.162L91.9181 164.203C86.2428 165.587 80.8182 162.088 78.8127 160.162Z" fill="#225E8A"/>
<mask id="mask2_16094_703" style="mask-type:luminance" maskUnits="userSpaceOnUse" x="0" y="164" width="147" height="138">
<path d="M0 164.284H146.315V301.233H0V164.284Z" fill="white"/>
</mask>
<g mask="url(#mask2_16094_703)">
<path d="M81.0688 173.909C89.291 173.909 93.2718 169.347 94.475 166.62C94.6154 166.309 94.9162 166.078 95.2672 166.098C99.7994 166.329 106.237 169.066 107.851 169.618C107.891 169.638 107.931 169.648 107.971 169.678C120.656 176.466 132.688 188.479 140.229 231.816C142.665 249.895 147.037 287.626 144.941 293.893C142.846 300.15 128.356 301.023 121.378 300.672H29.7704C27.3438 300.672 28.0958 296.861 29.1186 293.974C29.3492 293.322 28.7175 292.6 28.0357 292.7C23.8544 293.272 15.8929 292.52 7.25961 286.062C-9.49562 272.506 9.87667 218.249 22.4406 192.69C32.3072 172.606 55.7806 166.64 66.8705 166.108C67.2215 166.088 67.5323 166.319 67.6827 166.64C68.886 169.367 72.8667 173.909 81.0688 173.909Z" fill="url(#paint11_linear_16094_703)"/>
</g>
<path d="M26.1105 291.728C20.3549 279.535 8.16203 267.492 1.64443 262.007C1.14308 261.586 0.401074 261.917 0.381021 262.569C0.220588 268.174 0.972617 278.432 5.16393 284.498C9.43546 290.695 19.7433 292.58 25.3986 292.821C25.9801 292.841 26.3611 292.249 26.1105 291.728Z" fill="#225E8A"/>
<path d="M79.5045 260.503C55.63 284.709 35.6962 292.5 28.7174 293.372L27.6746 298.065C48.1899 294.726 70.7709 271.633 79.5045 260.503Z" fill="#225E8A"/>
<path d="M85.26 252.712V217.367C85.26 216.976 85.5408 216.635 85.9318 216.575L103.148 213.717C103.65 213.627 104.101 214.018 104.091 214.519L103.589 248.912C103.579 249.283 103.329 249.604 102.958 249.694L86.2427 253.494C85.7413 253.615 85.26 253.234 85.26 252.712Z" fill="white"/>
<path fill-rule="evenodd" clip-rule="evenodd" d="M103.018 212.915C104.011 212.754 104.913 213.526 104.903 214.529L104.402 248.932C104.392 249.674 103.87 250.306 103.138 250.476L86.4231 254.286C85.4104 254.517 84.4478 253.745 84.4478 252.712V217.367C84.4478 216.575 85.0193 215.903 85.8014 215.772L103.018 212.915ZM103.279 214.509L86.0621 217.367V252.712L102.777 248.902L103.279 214.509Z" fill="#225E8A"/>
<path d="M40.2388 242.244C39.3965 243.919 30.4624 248.16 26.1006 250.075C30.713 248.822 57.6859 239.467 70.6007 234.944C66.9308 234.944 45.4729 241.201 44.9515 240.158C44.5303 239.326 46.1647 228.677 47.0371 223.463C45.1219 229.028 41.071 240.58 40.2388 242.244Z" fill="#225E8A"/>
<path d="M78.4517 232.859C76.356 236.198 74.0899 237.722 73.2175 238.073L76.8774 250.075C81.5901 247.458 89.4413 247.98 95.2069 244.851C100.962 241.723 99.9196 226.592 96.7711 227.635C94.2643 228.477 88.0476 231.114 85.26 232.337V225.028C81.5901 226.592 81.0687 228.677 78.4517 232.859Z" fill="#EFCB96"/>
<path d="M111.541 167.833C107.46 167.833 97.4732 177.329 97.4732 181.851C96.5707 185.471 120.616 237.02 138.323 246.516C156.021 256.021 170.54 244.259 169.177 226.171C167.753 207.179 116.284 167.833 111.541 167.833Z" fill="url(#paint12_linear_16094_703)"/>
<path d="M169.176 224.817C152.481 228.788 145.282 242.455 143.768 248.782C147.698 249.835 155.108 253.304 163.732 244.711C169.918 238.554 170.089 229.039 169.176 224.817Z" fill="#225E8A"/>
<path d="M118.349 224.366C129.238 242.455 138.925 247.879 142.404 248.33L143.306 254.206C140.589 253.755 134.051 249.684 124.245 237.02C110.458 219.653 100.2 193.011 97.4727 181.851C99.7488 189.542 104.732 201.745 118.349 224.366Z" fill="#225E8A"/>
<path d="M98.3854 154.337C99.0171 155.309 104.943 164.935 107.46 169.628C105.073 172.045 100.07 176.878 99.1174 176.878C97.9242 176.878 91.166 174.862 88.3885 171.242C85.6009 167.623 89.9727 163.191 89.9727 162.79C89.9727 162.388 82.8234 159.17 81.6302 157.555C80.437 155.951 82.0413 154.267 83.8562 154.718C84.899 154.718 91.5771 158.338 93.8432 159.24C94.7958 158.919 96.1093 157.886 98.3854 154.337Z" fill="#EFCB96"/>
<path d="M81.1389 156.984C81.4999 159.511 84.9191 161.657 86.5836 162.409L87.9473 161.506C87.3356 161.195 85.6712 160.323 83.8563 159.24C82.0414 158.157 81.2893 157.285 81.1389 156.984Z" fill="#225E8A"/>
<path d="M87.4961 172.806C84.2272 169.548 85.8316 165.727 87.0348 164.213L89.311 163.762C86.5836 168.284 88.2481 171.302 89.311 171.904L87.4961 172.806Z" fill="#225E8A"/>
<defs>
<linearGradient id="paint0_linear_16094_703" x1="319.508" y1="149.196" x2="311.542" y2="149.196" gradientUnits="userSpaceOnUse">
<stop stop-color="#5BB5EF"/>
<stop offset="1" stop-color="#3084C2"/>
</linearGradient>
<linearGradient id="paint1_linear_16094_703" x1="66.4096" y1="77.2538" x2="45.1912" y2="77.2538" gradientUnits="userSpaceOnUse">
<stop stop-color="#5BB5EF"/>
<stop offset="1" stop-color="#3084C2"/>
</linearGradient>
<linearGradient id="paint2_linear_16094_703" x1="241.171" y1="97.4682" x2="216.073" y2="97.4682" gradientUnits="userSpaceOnUse">
<stop stop-color="#5BB5EF"/>
<stop offset="1" stop-color="#3084C2"/>
</linearGradient>
<linearGradient id="paint3_linear_16094_703" x1="183.766" y1="66.5046" x2="130.532" y2="66.5046" gradientUnits="userSpaceOnUse">
<stop stop-color="#5BB5EF"/>
<stop offset="1" stop-color="#3084C2"/>
</linearGradient>
<linearGradient id="paint4_linear_16094_703" x1="203.058" y1="140.66" x2="163.963" y2="140.66" gradientUnits="userSpaceOnUse">
<stop stop-color="#5BB5EF"/>
<stop offset="1" stop-color="#3084C2"/>
</linearGradient>
<linearGradient id="paint5_linear_16094_703" x1="144.56" y1="213.266" x2="139.827" y2="213.266" gradientUnits="userSpaceOnUse">
<stop stop-color="#5BB5EF"/>
<stop offset="1" stop-color="#3084C2"/>
</linearGradient>
<linearGradient id="paint6_linear_16094_703" x1="155.931" y1="213.266" x2="151.188" y2="213.266" gradientUnits="userSpaceOnUse">
<stop stop-color="#5BB5EF"/>
<stop offset="1" stop-color="#3084C2"/>
</linearGradient>
<linearGradient id="paint7_linear_16094_703" x1="167.291" y1="213.266" x2="162.559" y2="213.266" gradientUnits="userSpaceOnUse">
<stop stop-color="#5BB5EF"/>
<stop offset="1" stop-color="#3084C2"/>
</linearGradient>
<linearGradient id="paint8_linear_16094_703" x1="178.652" y1="213.266" x2="173.919" y2="213.266" gradientUnits="userSpaceOnUse">
<stop stop-color="#5BB5EF"/>
<stop offset="1" stop-color="#3084C2"/>
</linearGradient>
<linearGradient id="paint9_linear_16094_703" x1="190.023" y1="213.266" x2="185.291" y2="213.266" gradientUnits="userSpaceOnUse">
<stop stop-color="#5BB5EF"/>
<stop offset="1" stop-color="#3084C2"/>
</linearGradient>
<linearGradient id="paint10_linear_16094_703" x1="201.384" y1="213.266" x2="196.651" y2="213.266" gradientUnits="userSpaceOnUse">
<stop stop-color="#5BB5EF"/>
<stop offset="1" stop-color="#3084C2"/>
</linearGradient>
<linearGradient id="paint11_linear_16094_703" x1="145.494" y1="233.418" x2="0.739502" y2="233.418" gradientUnits="userSpaceOnUse">
<stop stop-color="#5BB5EF"/>
<stop offset="1" stop-color="#3084C2"/>
</linearGradient>
<linearGradient id="paint12_linear_16094_703" x1="169.266" y1="208.863" x2="97.4485" y2="208.863" gradientUnits="userSpaceOnUse">
<stop stop-color="#5BB5EF"/>
<stop offset="1" stop-color="#3084C2"/>
</linearGradient>
</defs>
</svg>
