<svg width="301" height="352" viewBox="0 0 301 352" fill="none" xmlns="http://www.w3.org/2000/svg">
<mask id="mask0_16022_5381" style="mask-type:luminance" maskUnits="userSpaceOnUse" x="17" y="65" width="230" height="233">
<path d="M17.3126 65.5634H246.265V297.646H17.3126V65.5634Z" fill="white"/>
</mask>
<g mask="url(#mask0_16022_5381)">
<path d="M245.358 182.723C245.358 186.485 245.174 190.233 244.805 193.981C244.437 197.73 243.898 201.452 243.175 205.134C242.438 208.83 241.544 212.473 240.465 216.077C239.374 219.681 238.124 223.219 236.704 226.704C235.27 230.176 233.692 233.569 231.93 236.897C230.18 240.211 228.26 243.433 226.195 246.564C224.13 249.694 221.908 252.719 219.553 255.625C217.186 258.532 214.687 261.32 212.057 263.99C209.426 266.647 206.664 269.172 203.797 271.553C200.917 273.946 197.931 276.182 194.827 278.273C191.736 280.365 188.541 282.298 185.266 284.074C181.978 285.849 178.611 287.454 175.178 288.9C171.732 290.334 168.234 291.61 164.669 292.701C161.105 293.793 157.501 294.701 153.845 295.437C150.202 296.174 146.519 296.726 142.81 297.094C139.102 297.462 135.393 297.647 131.671 297.647C127.949 297.647 124.226 297.462 120.531 297.094C116.822 296.726 113.139 296.174 109.496 295.437C105.84 294.701 102.236 293.793 98.6718 292.701C95.1076 291.61 91.6091 290.334 88.1632 288.9C84.7305 287.454 81.3635 285.849 78.0755 284.074C74.8006 282.298 71.6046 280.365 68.5139 278.273C65.41 276.182 62.4244 273.946 59.5441 271.553C56.6769 269.172 53.915 266.647 51.2846 263.99C48.6541 261.32 46.1552 258.532 43.7878 255.625C41.4336 252.719 39.2109 249.694 37.146 246.564C35.0811 243.433 33.1609 240.211 31.4116 236.897C29.6492 233.569 28.0578 230.176 26.6374 226.704C25.217 223.219 23.9675 219.681 22.8759 216.077C21.7974 212.473 20.8899 208.83 20.1665 205.134C19.4432 201.452 18.8908 197.73 18.5357 193.981C18.1674 190.233 17.9833 186.485 17.9833 182.723C17.9833 178.948 18.1674 175.2 18.5357 171.452C18.8908 167.703 19.4432 163.981 20.1665 160.299C20.8899 156.603 21.7974 152.96 22.8759 149.356C23.9675 145.752 25.217 142.214 26.6374 138.742C28.0578 135.257 29.6492 131.864 31.4116 128.536C33.1609 125.222 35.0811 121.999 37.146 118.869C39.2109 115.739 41.4336 112.714 43.7878 109.807C46.1552 106.901 48.6541 104.113 51.2846 101.456C53.915 98.7859 56.6769 96.2607 59.5441 93.8801C62.4244 91.4865 65.41 89.2506 68.5139 87.1594C71.6046 85.0682 74.8006 83.1348 78.0755 81.3593C81.3635 79.5837 84.7305 77.9792 88.1632 76.5324C91.6091 75.0989 95.1076 73.8231 98.6718 72.7315C102.236 71.6398 105.84 70.7323 109.496 69.9958C113.139 69.2593 116.822 68.7069 120.531 68.3386C124.226 67.9704 127.949 67.7863 131.671 67.7863C135.393 67.7863 139.102 67.9704 142.81 68.3386C146.519 68.7069 150.202 69.2593 153.845 69.9958C157.501 70.7323 161.105 71.6398 164.669 72.7315C168.234 73.8231 171.732 75.0989 175.178 76.5324C178.611 77.9792 181.978 79.5837 185.266 81.3593C188.541 83.1348 191.736 85.0682 194.827 87.1594C197.931 89.2506 200.917 91.4865 203.797 93.8801C206.664 96.2607 209.426 98.7859 212.057 101.456C214.687 104.113 217.186 106.901 219.553 109.807C221.908 112.714 224.13 115.739 226.195 118.869C228.26 121.999 230.18 125.222 231.93 128.536C233.692 131.864 235.27 135.257 236.704 138.742C238.124 142.214 239.374 145.752 240.465 149.356C241.544 152.96 242.438 156.603 243.175 160.299C243.898 163.981 244.437 167.703 244.805 171.452C245.174 175.2 245.358 178.948 245.358 182.723Z" fill="#D7DCD9"/>
</g>
<mask id="mask1_16022_5381" style="mask-type:luminance" maskUnits="userSpaceOnUse" x="296" y="122" width="5" height="5">
<path d="M296.769 122.802H300.478V126.169H296.769V122.802Z" fill="white"/>
</mask>
<g mask="url(#mask1_16022_5381)">
<path d="M300.15 124.235L300.11 124.196C300.097 124.222 300.097 124.248 300.084 124.288L300.15 124.235Z" fill="#78A9EF"/>
</g>
<path d="M275.201 172.819C275.503 172.517 275.806 172.214 276.095 171.899L275.095 172.675L275.201 172.819Z" fill="#78A9EF"/>
<path d="M258.615 185.459L258.812 185.722C260.969 184.406 263.06 182.999 265.073 181.513L264.573 180.842L258.615 185.459Z" fill="#78A9EF"/>
<path d="M294.297 144.384C295.283 142.043 296.151 139.676 296.927 137.256L291.877 141.175L294.297 144.384Z" fill="#78A9EF"/>
<path d="M281.369 149.343L285.933 155.366L279.975 159.983L275.411 153.959L281.369 149.343Z" fill="#78A9EF"/>
<path d="M264.902 162.127L269.466 168.15L263.508 172.767L258.944 166.743L264.902 162.127Z" fill="#78A9EF"/>
<path d="M248.423 174.897L252.987 180.921L247.029 185.537L242.465 179.527L248.423 174.897Z" fill="#78A9EF"/>
<path d="M233.35 196.125L236.48 193.692L231.916 187.668L225.958 192.298L229.483 196.94C229.786 196.888 230.101 196.848 230.404 196.783C231.39 196.585 232.377 196.349 233.35 196.125Z" fill="#78A9EF"/>
<path d="M289.628 122.841L294.191 128.865L300.097 124.288C300.097 124.262 300.097 124.222 300.11 124.196L295.586 118.225L289.628 122.841Z" fill="#78A9EF"/>
<path d="M277.686 141.636L273.123 135.612L279.08 130.996L283.644 137.019L277.686 141.636Z" fill="#78A9EF"/>
<path d="M261.219 154.406L256.642 148.396L262.6 143.779L267.164 149.79L261.219 154.406Z" fill="#78A9EF"/>
<path d="M244.74 167.19L240.163 161.166L246.121 156.55L250.698 162.574L244.74 167.19Z" fill="#78A9EF"/>
<path d="M228.247 179.961L223.684 173.95L229.642 169.321L234.205 175.345L228.247 179.961Z" fill="#78A9EF"/>
<mask id="mask2_16022_5381" style="mask-type:luminance" maskUnits="userSpaceOnUse" x="286" y="99" width="15" height="14">
<path d="M286.668 99.233H300.478V112.701H286.668V99.233Z" fill="white"/>
</mask>
<g mask="url(#mask2_16022_5381)">
<path d="M295.901 99.496L300.478 105.52L294.52 110.136L289.943 104.112L295.901 99.496Z" fill="#78A9EF"/>
</g>
<path d="M279.422 112.28L283.999 118.304L278.041 122.92L273.464 116.896L279.422 112.28Z" fill="#78A9EF"/>
<path d="M262.942 125.051L267.519 131.074L261.561 135.704L256.997 129.68L262.942 125.051Z" fill="#78A9EF"/>
<path d="M246.462 137.835L251.039 143.858L245.081 148.475L240.504 142.451L246.462 137.835Z" fill="#78A9EF"/>
<path d="M229.983 150.619L234.547 156.642L228.602 161.259L224.025 155.235L229.983 150.619Z" fill="#78A9EF"/>
<path d="M213.516 163.389L218.08 169.413L212.122 174.029L207.558 168.019L213.516 163.389Z" fill="#78A9EF"/>
<path d="M292.219 91.7888L287.655 85.7783L293.613 81.1487L298.177 87.1724L292.219 91.7888Z" fill="#78A9EF"/>
<path d="M275.739 104.573L271.176 98.549L277.134 93.9326L281.697 99.9563L275.739 104.573Z" fill="#78A9EF"/>
<path d="M259.26 117.357L254.696 111.333L260.654 106.704L265.218 112.727L259.26 117.357Z" fill="#78A9EF"/>
<path d="M242.78 130.127L238.216 124.104L244.174 119.487L248.738 125.511L242.78 130.127Z" fill="#78A9EF"/>
<path d="M226.3 142.911L221.737 136.888L227.695 132.258L232.258 138.282L226.3 142.911Z" fill="#78A9EF"/>
<path d="M209.821 155.682L205.257 149.658L211.215 145.042L215.779 151.066L209.821 155.682Z" fill="#78A9EF"/>
<path d="M292.548 73.0734L293.218 72.5473C292.14 70.2063 290.982 67.9178 289.72 65.6951L287.971 67.0497L292.548 73.0734Z" fill="#78A9EF"/>
<path d="M277.475 75.2173L282.039 81.2278L276.081 85.8574L271.517 79.8337L277.475 75.2173Z" fill="#78A9EF"/>
<path d="M260.996 87.988L265.56 94.0117L259.615 98.6281L255.038 92.6044L260.996 87.988Z" fill="#78A9EF"/>
<path d="M244.517 100.772L249.08 106.796L243.136 111.412L238.559 105.388L244.517 100.772Z" fill="#78A9EF"/>
<path d="M228.036 113.556L232.613 119.566L226.655 124.196L222.078 118.172L228.036 113.556Z" fill="#78A9EF"/>
<path d="M211.557 126.326L216.121 132.35L210.163 136.967L205.599 130.943L211.557 126.326Z" fill="#78A9EF"/>
<path d="M195.078 139.11L199.655 145.134L193.697 149.75L189.12 143.727L195.078 139.11Z" fill="#78A9EF"/>
<path d="M273.793 67.5102L269.229 61.4865L275.187 56.8701L279.75 62.8937L273.793 67.5102Z" fill="#78A9EF"/>
<path d="M258.747 69.6539L263.311 75.6776L257.353 80.294L252.789 74.2703L258.747 69.6539Z" fill="#78A9EF"/>
<path d="M242.268 82.4246L246.845 88.4483L240.887 93.0647L236.31 87.041L242.268 82.4246Z" fill="#78A9EF"/>
<path d="M224.354 105.835L219.79 99.8248L225.748 95.1953L230.312 101.219L224.354 105.835Z" fill="#78A9EF"/>
<path d="M207.874 118.619L203.311 112.596L209.268 107.979L213.832 114.003L207.874 118.619Z" fill="#78A9EF"/>
<path d="M191.408 131.39L186.831 125.38L192.789 120.75L197.353 126.774L191.408 131.39Z" fill="#78A9EF"/>
<path d="M274.319 45.717C272.583 44.0467 270.795 42.429 268.94 40.8902L273.241 46.5588L274.319 45.717Z" fill="#78A9EF"/>
<path d="M256.735 59.3427L252.171 53.319L258.129 48.7026L262.693 54.7263L256.735 59.3427Z" fill="#78A9EF"/>
<path d="M241.688 61.4865L246.252 67.497L240.294 72.1266L235.73 66.1029L241.688 61.4865Z" fill="#78A9EF"/>
<path d="M223.775 84.8972L219.211 78.8735L225.169 74.2571L229.733 80.2808L223.775 84.8972Z" fill="#78A9EF"/>
<path d="M207.296 97.6679L202.732 91.6442L208.69 87.0278L213.254 93.0515L207.296 97.6679Z" fill="#78A9EF"/>
<path d="M190.816 110.452L186.252 104.428L192.21 99.8116L196.773 105.835L190.816 110.452Z" fill="#78A9EF"/>
<path d="M175.77 112.596L180.334 118.619L174.389 123.236L169.812 117.212L175.77 112.596Z" fill="#78A9EF"/>
<path d="M254.512 40.9952L260.469 36.3788L258.115 33.288C256.971 32.6041 255.827 31.9465 254.656 31.3152L249.935 34.9846L254.512 40.9952Z" fill="#78A9EF"/>
<path d="M238.005 53.7793L233.442 47.7556L239.4 43.1392L243.963 49.1629L238.005 53.7793Z" fill="#78A9EF"/>
<path d="M221.526 66.55L216.962 60.5394L222.92 55.9099L227.484 61.9335L221.526 66.55Z" fill="#78A9EF"/>
<path d="M205.047 79.3338L200.483 73.3101L206.441 68.6937L211.005 74.7174L205.047 79.3338Z" fill="#78A9EF"/>
<path d="M188.566 92.1045L184.003 86.0808L189.961 81.4644L194.524 87.4881L188.566 92.1045Z" fill="#78A9EF"/>
<path d="M172.1 104.888L167.523 98.8647L173.481 94.2483L178.058 100.272L172.1 104.888Z" fill="#78A9EF"/>
<path d="M238.334 35.0506L244.292 30.4342L240.294 25.1865C239.926 25.0681 239.557 24.9366 239.189 24.8314L233.757 29.0401L238.334 35.0506Z" fill="#78A9EF"/>
<path d="M221.828 47.8343L217.265 41.8106L223.222 37.1942L227.786 43.2048L221.828 47.8343Z" fill="#78A9EF"/>
<path d="M206.783 49.9781L211.346 55.9886L205.389 60.6182L200.825 54.5945L206.783 49.9781Z" fill="#78A9EF"/>
<path d="M190.303 62.7491L194.867 68.7728L188.909 73.3892L184.345 67.3655L190.303 62.7491Z" fill="#78A9EF"/>
<path d="M173.823 75.533L178.387 81.5566L172.429 86.1731L167.865 80.1494L173.823 75.533Z" fill="#78A9EF"/>
<path d="M157.344 88.3169L161.907 94.3274L155.95 98.957L151.386 92.9333L157.344 88.3169Z" fill="#78A9EF"/>
<path d="M219.606 29.4871L225.564 24.8706L222.947 21.4379C221.355 21.267 219.751 21.1486 218.146 21.0565L215.029 23.4765L219.606 29.4871Z" fill="#78A9EF"/>
<path d="M203.1 42.271L198.536 36.2473L204.494 31.6309L209.058 37.6546L203.1 42.271Z" fill="#78A9EF"/>
<path d="M186.621 55.0419L182.057 49.0182L188.015 44.4018L192.579 50.4255L186.621 55.0419Z" fill="#78A9EF"/>
<path d="M170.14 67.8258L165.577 61.8021L171.534 57.1857L176.098 63.2094L170.14 67.8258Z" fill="#78A9EF"/>
<path d="M153.674 80.5965L149.097 74.5728L155.055 69.9564L159.632 75.9801L153.674 80.5965Z" fill="#78A9EF"/>
<path d="M206.388 21.2408C204.941 21.3592 203.494 21.517 202.034 21.7143L203.428 23.5425L206.388 21.2408Z" fill="#78A9EF"/>
<path d="M186.923 36.3263L182.359 30.3026L188.317 25.6862L192.881 31.6967L186.923 36.3263Z" fill="#78A9EF"/>
<path d="M170.457 49.0969L165.88 43.0732L171.838 38.4568L176.402 44.4805L170.457 49.0969Z" fill="#78A9EF"/>
<path d="M153.963 61.8808L149.399 55.8571L155.357 51.2407L159.921 57.2644L153.963 61.8808Z" fill="#78A9EF"/>
<path d="M143.468 70.0351L138.891 64.0246L137.681 64.9584C136.576 66.8655 135.537 68.812 134.577 70.798L137.51 74.6647L143.468 70.0351Z" fill="#78A9EF"/>
<path d="M103.775 178.133L102.565 189.102L107.22 187.326L103.775 178.133Z" fill="white"/>
<path d="M91.7276 146.002L86.2826 195.349L94.8578 192.061L98.0669 162.916L91.7276 146.002Z" fill="white"/>
<path d="M79.6806 113.871L70.0006 201.596L78.5627 198.308L86.0199 130.785L79.6806 113.871Z" fill="white"/>
<path d="M63.8191 116.252L53.7051 207.83L62.2803 204.556L72.3943 112.964L63.8191 116.252Z" fill="white"/>
<path d="M47.5359 122.499L37.4219 214.078L45.9839 210.79L56.1111 119.211L47.5359 122.499Z" fill="white"/>
<path d="M31.2404 128.733L23.9672 194.599L30.3066 211.5L39.8156 125.445L31.2404 128.733Z" fill="white"/>
<path d="M14.9588 134.981L11.9207 162.469L18.26 179.382L23.534 131.693L14.9588 134.981Z" fill="#A1C3FC"/>
<mask id="mask3_16022_5381" style="mask-type:luminance" maskUnits="userSpaceOnUse" x="3" y="136" width="8" height="14">
<path d="M3.29199 136.269H10.5783V149.737H3.29199V136.269Z" fill="white"/>
</mask>
<g mask="url(#mask3_16022_5381)">
<path d="M3.29199 139.452L6.21177 147.252L7.23764 137.94L3.29199 139.452Z" fill="#A1C3FC"/>
</g>
<path d="M75.2611 13.8888C75.2611 14.6779 75.1164 15.4539 74.8139 16.1904C74.5114 16.927 74.0774 17.5714 73.525 18.137C72.9595 18.7025 72.315 19.1365 71.5917 19.439C70.8551 19.7415 70.1055 19.8993 69.3163 19.8993C68.5272 19.8993 67.7644 19.7415 67.041 19.439C66.3045 19.1365 65.66 18.7025 65.1076 18.137C64.5421 17.5714 64.1212 16.927 63.8187 16.1904C63.5162 15.4539 63.3584 14.6779 63.3584 13.8888C63.3584 13.0865 63.5162 12.3237 63.8187 11.5872C64.1212 10.8507 64.5421 10.193 65.1076 9.6275C65.66 9.06196 66.3045 8.62794 67.041 8.32544C67.7644 8.02294 68.5272 7.86511 69.3163 7.86511C70.1055 7.86511 70.8551 8.02294 71.5917 8.32544C72.315 8.62794 72.9595 9.06196 73.525 9.6275C74.0774 10.193 74.5114 10.8507 74.8139 11.5872C75.1164 12.3237 75.2611 13.0865 75.2611 13.8888Z" fill="#D9E021"/>
<mask id="mask4_16022_5381" style="mask-type:luminance" maskUnits="userSpaceOnUse" x="155" y="0" width="11" height="9">
<path d="M155.357 0H165.458V8.32532H155.357V0Z" fill="white"/>
</mask>
<g mask="url(#mask4_16022_5381)">
<path d="M157.291 1.82815L159.092 7.73347L164.932 5.89217L163.117 0L157.291 1.82815Z" fill="#A1C3FC"/>
</g>
<path d="M111.363 13.3627L116.308 29.4215L132.183 24.4368L127.251 8.37805L111.363 13.3627Z" fill="#E94A47"/>
<path d="M181.505 78.8734L186.45 94.9322L202.325 89.9344L197.392 73.8887L181.505 78.8734Z" fill="#1D72D8"/>
<mask id="mask5_16022_5381" style="mask-type:luminance" maskUnits="userSpaceOnUse" x="10" y="109" width="129" height="129">
<path d="M10.5791 109.334H138.523V237.278H10.5791V109.334Z" fill="white"/>
</mask>
<g mask="url(#mask5_16022_5381)">
<mask id="mask6_16022_5381" style="mask-type:luminance" maskUnits="userSpaceOnUse" x="-30" y="81" width="193" height="204">
<path d="M-29.3114 145.437L85.7306 81.8195L162.447 220.996L47.392 284.613L-29.3114 145.437Z" fill="white"/>
</mask>
<g mask="url(#mask6_16022_5381)">
<mask id="mask7_16022_5381" style="mask-type:luminance" maskUnits="userSpaceOnUse" x="11" y="112" width="125" height="123">
<path d="M46.9709 209.487C47.5628 212.723 50.2721 215.13 53.0209 216.932C60.6229 221.916 69.8688 224.336 78.9438 223.705C84.0206 223.363 88.9789 222.087 94.0425 221.522C108.786 219.865 124.121 224.494 135.498 234.003C129.448 226.362 129.317 215.59 130.987 205.976C132.657 196.348 135.84 186.853 135.419 177.107C135.077 168.716 129.777 158.944 121.412 159.483C115.244 159.878 110.548 165.835 104.393 166.454C102.21 166.664 99.6979 165.954 98.751 163.981C96.3178 158.957 106.142 153.972 103.696 148.961C100.895 143.214 87.0587 152.973 86.0065 146.673C85.5594 143.99 88.3345 141.622 88.2819 138.9C88.2292 136.177 86.5195 133.284 83.8496 132.824C80.2985 132.192 77.4839 135.783 74.0249 136.809C70.1056 137.979 65.91 135.599 63.2664 132.482C60.6097 129.351 58.9657 125.498 56.4931 122.236C50.4036 114.2 39.1059 110.544 29.4522 113.503C19.8117 116.462 12.4728 125.827 11.9072 135.901C11.6705 140.031 12.9068 144.779 16.6157 146.62C19.7459 148.172 24.4413 147.646 25.8091 150.868C27.6898 155.261 20.2326 159.864 22.4027 164.126C24.9279 169.084 34.9761 163.547 37.383 168.571C38.4483 170.82 36.8701 173.358 36.4097 175.805C35.5417 180.395 39.5662 185.261 44.2353 185.261C46.0897 185.248 47.9836 184.604 49.7723 185.09C54.2178 186.313 54.1257 192.85 51.8898 196.888C49.6408 200.925 46.1292 204.95 46.9709 209.487Z" fill="white"/>
</mask>
<g mask="url(#mask7_16022_5381)">
<path d="M106.84 57.9351L187.988 205.174L40.6711 286.625L-40.4777 139.386L106.84 57.9351Z" fill="url(#paint0_linear_16022_5381)"/>
</g>
</g>
</g>
<mask id="mask8_16022_5381" style="mask-type:luminance" maskUnits="userSpaceOnUse" x="0" y="173" width="136" height="61">
<path d="M0.478271 173.306H135.156V233.911H0.478271V173.306Z" fill="white"/>
</mask>
<g mask="url(#mask8_16022_5381)">
<mask id="mask9_16022_5381" style="mask-type:luminance" maskUnits="userSpaceOnUse" x="-30" y="81" width="193" height="204">
<path d="M-29.3114 145.437L85.7306 81.8195L162.447 220.996L47.392 284.613L-29.3114 145.437Z" fill="white"/>
</mask>
<g mask="url(#mask9_16022_5381)">
<mask id="mask10_16022_5381" style="mask-type:luminance" maskUnits="userSpaceOnUse" x="3" y="174" width="130" height="60">
<path d="M72.473 195.862C69.79 195.875 67.0412 196.046 64.5028 195.191C59.1104 193.389 56.2696 187.694 53.2709 182.868C50.259 178.041 45.2744 173.148 39.7373 174.45C35.1077 175.555 31.3857 180.816 26.8087 179.54C25.1121 179.067 23.7969 177.751 22.2712 176.857C15.7215 173.043 6.90951 178.488 4.4106 185.656C1.89853 192.824 3.7793 200.689 5.66005 208.041C6.34397 210.711 8.0932 214.078 10.7762 213.42C13.3278 212.776 14.0511 208.804 16.6553 208.475C18.7465 208.212 20.1932 210.579 20.5351 212.657C20.8771 214.735 20.7982 217.076 22.1923 218.655C24.8491 221.667 29.7943 219.181 32.6746 216.366C35.5681 213.565 39.5006 210.211 43.0648 212.079C44.7351 220.193 47.5102 229.65 55.3358 232.359C64.3976 235.503 74.3275 229.163 83.1263 225.323C99.4613 218.181 116.967 223.968 132.815 232.109C121.373 210.224 97.1596 195.691 72.473 195.862Z" fill="white"/>
</mask>
<g mask="url(#mask10_16022_5381)">
<path d="M102.236 117.567L159.198 220.917L32.4771 290.978L-24.4849 187.629L102.236 117.567Z" fill="url(#paint1_linear_16022_5381)"/>
</g>
</g>
</g>
<mask id="mask11_16022_5381" style="mask-type:luminance" maskUnits="userSpaceOnUse" x="108" y="190" width="31" height="48">
<path d="M108.22 190.141H138.523V237.278H108.22V190.141Z" fill="white"/>
</mask>
<g mask="url(#mask11_16022_5381)">
<mask id="mask12_16022_5381" style="mask-type:luminance" maskUnits="userSpaceOnUse" x="-30" y="81" width="193" height="204">
<path d="M-29.3121 145.437L85.7298 81.8195L162.446 220.996L47.3913 284.613L-29.3121 145.437Z" fill="white"/>
</mask>
<g mask="url(#mask12_16022_5381)">
<path d="M135.866 235.7C135.577 235.858 135.195 235.779 134.998 235.489C125.647 221.798 117.164 207.239 109.798 192.258C109.641 191.929 109.772 191.535 110.101 191.364C110.43 191.206 110.824 191.338 110.982 191.666C118.321 206.607 126.765 221.101 136.09 234.753C136.3 235.055 136.221 235.463 135.919 235.66C135.906 235.674 135.879 235.687 135.866 235.7Z" fill="#428DFC"/>
</g>
</g>
<mask id="mask13_16022_5381" style="mask-type:luminance" maskUnits="userSpaceOnUse" x="101" y="183" width="18" height="14">
<path d="M101.487 183.407H118.322V196.875H101.487V183.407Z" fill="white"/>
</mask>
<g mask="url(#mask13_16022_5381)">
<mask id="mask14_16022_5381" style="mask-type:luminance" maskUnits="userSpaceOnUse" x="-30" y="81" width="193" height="204">
<path d="M-29.3114 145.437L85.7306 81.8195L162.447 220.996L47.392 284.613L-29.3114 145.437Z" fill="white"/>
</mask>
<g mask="url(#mask14_16022_5381)">
<path d="M117.506 186.55C117.69 186.932 117.677 187.392 117.467 187.931C117.256 188.47 116.848 189.049 116.27 189.68C115.691 190.299 114.968 190.917 114.113 191.522C113.245 192.14 112.311 192.692 111.298 193.192C110.299 193.705 109.286 194.113 108.286 194.428C107.274 194.757 106.353 194.954 105.498 195.046C104.656 195.139 103.959 195.099 103.394 194.941C102.841 194.797 102.46 194.52 102.276 194.152C102.092 193.771 102.105 193.31 102.315 192.771C102.526 192.232 102.92 191.64 103.499 191.022C104.091 190.404 104.801 189.786 105.669 189.167C106.524 188.562 107.458 188.01 108.471 187.51C109.483 186.997 110.483 186.59 111.496 186.261C112.495 185.945 113.429 185.748 114.271 185.656C115.112 185.564 115.823 185.59 116.375 185.748C116.941 185.906 117.309 186.169 117.506 186.55Z" fill="#23286B"/>
</g>
</g>
<mask id="mask15_16022_5381" style="mask-type:luminance" maskUnits="userSpaceOnUse" x="94" y="163" width="18" height="31">
<path d="M94.7522 163.205H111.587V193.508H94.7522V163.205Z" fill="white"/>
</mask>
<g mask="url(#mask15_16022_5381)">
<mask id="mask16_16022_5381" style="mask-type:luminance" maskUnits="userSpaceOnUse" x="-30" y="81" width="193" height="204">
<path d="M-29.312 145.437L85.73 81.8195L162.447 220.996L47.3914 284.613L-29.312 145.437Z" fill="white"/>
</mask>
<g mask="url(#mask16_16022_5381)">
<path d="M109.824 190.719C109.811 190.719 109.811 190.732 109.798 190.732C109.469 190.89 109.075 190.759 108.917 190.43C104.813 181.96 101.012 173.214 97.5929 164.428C97.4614 164.086 97.6324 163.705 97.9743 163.573C98.3163 163.442 98.6977 163.613 98.8292 163.955C102.222 172.701 106.023 181.408 110.101 189.851C110.258 190.167 110.127 190.548 109.824 190.719Z" fill="#428DFC"/>
</g>
</g>
<mask id="mask17_16022_5381" style="mask-type:luminance" maskUnits="userSpaceOnUse" x="88" y="153" width="21" height="17">
<path d="M88.0187 153.104H108.22V169.939H88.0187V153.104Z" fill="white"/>
</mask>
<g mask="url(#mask17_16022_5381)">
<mask id="mask18_16022_5381" style="mask-type:luminance" maskUnits="userSpaceOnUse" x="-30" y="81" width="193" height="204">
<path d="M-29.3119 145.437L85.7301 81.8195L162.447 220.996L47.3915 284.613L-29.3119 145.437Z" fill="white"/>
</mask>
<g mask="url(#mask18_16022_5381)">
<path d="M106.155 156.734C106.418 157.168 106.458 157.721 106.274 158.391C106.076 159.062 105.669 159.812 105.051 160.627C104.419 161.443 103.63 162.271 102.67 163.1C101.71 163.928 100.645 164.704 99.5004 165.428C98.343 166.151 97.1856 166.756 96.015 167.269C94.8445 167.769 93.766 168.124 92.7533 168.321C91.7537 168.532 90.912 168.571 90.2149 168.453C89.531 168.334 89.0444 168.058 88.7813 167.624C88.5051 167.19 88.4657 166.638 88.663 165.967C88.8603 165.296 89.268 164.547 89.8861 163.731C90.5174 162.916 91.3066 162.1 92.2667 161.259C93.2268 160.43 94.2789 159.654 95.4363 158.931C96.5937 158.207 97.7511 157.602 98.9217 157.089C100.079 156.59 101.171 156.234 102.17 156.037C103.183 155.827 104.025 155.787 104.722 155.906C105.406 156.024 105.879 156.3 106.155 156.734Z" fill="#23286B"/>
</g>
</g>
<mask id="mask19_16022_5381" style="mask-type:luminance" maskUnits="userSpaceOnUse" x="88" y="136" width="11" height="28">
<path d="M88.0187 136.269H98.1195V163.205H88.0187V136.269Z" fill="white"/>
</mask>
<g mask="url(#mask19_16022_5381)">
<mask id="mask20_16022_5381" style="mask-type:luminance" maskUnits="userSpaceOnUse" x="-30" y="81" width="193" height="204">
<path d="M-29.3119 145.437L85.7301 81.8195L162.447 220.996L47.3915 284.613L-29.3119 145.437Z" fill="white"/>
</mask>
<g mask="url(#mask20_16022_5381)">
<path d="M97.6456 162.442C97.6193 162.469 97.5799 162.482 97.5536 162.482C97.2116 162.613 96.8302 162.442 96.7118 162.1C93.9367 154.827 91.3852 147.37 89.1099 139.939C88.9915 139.584 89.2019 139.216 89.5439 139.11C89.8859 139.005 90.2541 139.202 90.3593 139.544C92.6347 146.949 95.1862 154.38 97.935 161.64C98.0533 161.942 97.9218 162.298 97.6456 162.442Z" fill="#428DFC"/>
</g>
</g>
<mask id="mask21_16022_5381" style="mask-type:luminance" maskUnits="userSpaceOnUse" x="77" y="129" width="25" height="15">
<path d="M77.9178 129.536H101.487V143.003H77.9178V129.536Z" fill="white"/>
</mask>
<g mask="url(#mask21_16022_5381)">
<mask id="mask22_16022_5381" style="mask-type:luminance" maskUnits="userSpaceOnUse" x="-30" y="81" width="193" height="204">
<path d="M-29.3119 145.437L85.7301 81.8195L162.447 220.996L47.3915 284.613L-29.3119 145.437Z" fill="white"/>
</mask>
<g mask="url(#mask22_16022_5381)">
<path d="M99.6059 134.612C99.7242 135.099 99.5927 135.638 99.2113 136.217C98.8167 136.809 98.1986 137.387 97.3568 137.966C96.5151 138.558 95.5024 139.097 94.3318 139.584C93.1613 140.084 91.9118 140.504 90.5966 140.833C89.2814 141.162 87.9925 141.399 86.7299 141.517C85.4673 141.636 84.323 141.636 83.2972 141.517C82.2845 141.412 81.469 141.188 80.8377 140.86C80.2196 140.531 79.8513 140.123 79.7329 139.623C79.6014 139.137 79.7461 138.597 80.1275 138.019C80.5221 137.427 81.1402 136.848 81.982 136.269C82.8237 135.678 83.8364 135.138 85.007 134.639C86.1775 134.152 87.4138 133.731 88.729 133.402C90.0574 133.073 91.3463 132.837 92.6089 132.718C93.8715 132.6 95.0158 132.6 96.0285 132.718C97.0543 132.824 97.8698 133.047 98.4879 133.376C99.1061 133.705 99.4743 134.112 99.6059 134.612Z" fill="#23286B"/>
</g>
</g>
<mask id="mask23_16022_5381" style="mask-type:luminance" maskUnits="userSpaceOnUse" x="81" y="116" width="11" height="24">
<path d="M81.2852 116.068H91.386V139.636H81.2852V116.068Z" fill="white"/>
</mask>
<g mask="url(#mask23_16022_5381)">
<mask id="mask24_16022_5381" style="mask-type:luminance" maskUnits="userSpaceOnUse" x="-30" y="81" width="193" height="204">
<path d="M-29.3114 145.437L85.7306 81.8195L162.447 220.996L47.392 284.613L-29.3114 145.437Z" fill="white"/>
</mask>
<g mask="url(#mask24_16022_5381)">
<path d="M89.1239 137.23C89.0844 137.243 89.045 137.269 88.9924 137.282C88.6373 137.387 88.2821 137.19 88.1769 136.835C86.4934 131.153 84.9283 125.366 83.5474 119.606C83.4553 119.264 83.6789 118.895 84.034 118.817C84.3891 118.724 84.7442 118.948 84.8231 119.303C86.2173 125.024 87.7692 130.798 89.4395 136.454C89.5316 136.756 89.3869 137.085 89.1239 137.23Z" fill="#428DFC"/>
</g>
</g>
<mask id="mask25_16022_5381" style="mask-type:luminance" maskUnits="userSpaceOnUse" x="67" y="109" width="32" height="14">
<path d="M67.8169 109.334H98.1195V122.802H67.8169V109.334Z" fill="white"/>
</mask>
<g mask="url(#mask25_16022_5381)">
<mask id="mask26_16022_5381" style="mask-type:luminance" maskUnits="userSpaceOnUse" x="-30" y="81" width="193" height="204">
<path d="M-29.312 145.437L85.73 81.8195L162.447 220.996L47.3914 284.613L-29.312 145.437Z" fill="white"/>
</mask>
<g mask="url(#mask26_16022_5381)">
<path d="M96.8432 113.043C97.0142 113.7 96.8432 114.424 96.3172 115.2C95.7911 115.989 94.9625 116.765 93.8314 117.554C92.7003 118.33 91.3456 119.053 89.7805 119.724C88.2154 120.382 86.5451 120.947 84.7827 121.394C83.0072 121.842 81.2842 122.144 79.5876 122.302C77.891 122.46 76.3522 122.46 74.9843 122.315C73.6297 122.157 72.5249 121.868 71.6963 121.421C70.8677 120.987 70.3679 120.434 70.197 119.777C70.0391 119.119 70.2101 118.396 70.7362 117.607C71.2623 116.831 72.0909 116.055 73.222 115.266C74.353 114.49 75.7077 113.753 77.2728 113.095C78.8379 112.425 80.5083 111.872 82.2706 111.425C84.0462 110.978 85.7691 110.675 87.4658 110.518C89.1624 110.36 90.7012 110.347 92.0559 110.504C93.4237 110.649 94.5285 110.952 95.357 111.386C96.1856 111.833 96.6854 112.385 96.8432 113.043Z" fill="#23286B"/>
</g>
</g>
<mask id="mask27_16022_5381" style="mask-type:luminance" maskUnits="userSpaceOnUse" x="77" y="102" width="8" height="18">
<path d="M77.9178 102.6H84.6518V119.435H77.9178V102.6Z" fill="white"/>
</mask>
<g mask="url(#mask27_16022_5381)">
<mask id="mask28_16022_5381" style="mask-type:luminance" maskUnits="userSpaceOnUse" x="-30" y="81" width="193" height="204">
<path d="M-29.3119 145.437L85.7301 81.8196L162.447 220.996L47.3915 284.613L-29.3119 145.437Z" fill="white"/>
</mask>
<g mask="url(#mask28_16022_5381)">
<path d="M83.5863 116.12C83.5336 116.147 83.4679 116.173 83.4153 116.186C83.0602 116.265 82.7051 116.042 82.6262 115.686C81.7318 111.833 80.9032 107.927 80.1667 104.06C80.0878 103.692 80.3245 103.35 80.6796 103.284C81.0347 103.205 81.3898 103.442 81.4556 103.797C82.2053 107.65 83.0207 111.557 83.9019 115.384C83.9677 115.686 83.8361 115.976 83.5863 116.12Z" fill="#428DFC"/>
</g>
</g>
<mask id="mask29_16022_5381" style="mask-type:luminance" maskUnits="userSpaceOnUse" x="57" y="132" width="146" height="220">
<path d="M57.7161 132.903H202.495V351.755H57.7161V132.903Z" fill="white"/>
</mask>
<g mask="url(#mask29_16022_5381)">
<mask id="mask30_16022_5381" style="mask-type:luminance" maskUnits="userSpaceOnUse" x="-15" y="33" width="279" height="339">
<path d="M-14.9628 94.3142L174.915 33.6959L263.021 310.588L73.1304 371.194L-14.9628 94.3142Z" fill="white"/>
</mask>
<g mask="url(#mask30_16022_5381)">
<path d="M113.179 180.395C117.466 175.529 115.822 165.481 117.256 159.588C118.795 153.328 119.781 146.423 122.398 140.439C128.554 126.287 148.242 139.729 157.462 143.161C171.403 148.37 167.642 158.168 181.373 164.021C186.962 166.401 197.918 175.542 199.983 181.802C202.1 188.207 198.681 206.528 196.09 212.526C190.421 225.586 194.275 226.138 183.701 235.805C173.534 245.117 165.971 254.507 160.645 267.318C157.646 274.538 155.476 282.101 154.2 289.808C153.135 296.252 141.377 344.85 137.8 350.505C136.392 352.715 67.1198 334.236 60.4517 331.329C68.5534 320.9 98.2247 266.857 96.6859 252.903C95.8573 245.393 92.5035 238.699 93.6346 230.926C94.884 222.311 97.2777 213.538 99.4478 205.082C101.881 195.599 108.168 186.603 114.336 179.067C113.955 179.514 113.56 179.948 113.179 180.395Z" fill="#F2A19C"/>
</g>
</g>
<mask id="mask31_16022_5381" style="mask-type:luminance" maskUnits="userSpaceOnUse" x="108" y="38" width="55" height="173">
<path d="M108.22 38.6279H162.092V210.343H108.22V38.6279Z" fill="white"/>
</mask>
<g mask="url(#mask31_16022_5381)">
<mask id="mask32_16022_5381" style="mask-type:luminance" maskUnits="userSpaceOnUse" x="-15" y="33" width="279" height="339">
<path d="M-14.9629 94.3142L174.915 33.6959L263.021 310.588L73.1303 371.194L-14.9629 94.3142Z" fill="white"/>
</mask>
<g mask="url(#mask32_16022_5381)">
<path d="M113.087 202.714C112.995 203.03 112.824 203.293 112.561 203.49C109.746 195.796 113.35 183.723 114.126 175.687C114.955 167.138 115.888 158.694 117.256 150.237C118.558 142.267 121.741 134.441 124.214 126.892C129.698 110.11 136.077 92.4334 138.55 74.941C139.668 66.9314 140.417 36.3658 155.213 42.1922C161.461 44.6516 162.039 52.6218 161.618 58.1457C161.171 64.1826 161.316 70.443 159.856 76.3089C156.66 89.1717 152.399 101.771 151.728 115.226C151.399 121.526 152.807 127.734 151.741 133.928C150.492 141.215 149.611 148.33 149.282 155.643C148.874 164.507 148.072 173.346 147.664 182.236C147.401 188.01 148.282 198.216 144.81 202.925C140.759 208.435 133.736 208.291 127.883 208.501C123.056 208.685 113.455 207.055 111.535 202.044C111.916 202.162 112.719 202.53 113.087 202.714Z" fill="#F2A19C"/>
</g>
</g>
<mask id="mask33_16022_5381" style="mask-type:luminance" maskUnits="userSpaceOnUse" x="84" y="52" width="136" height="199">
<path d="M84.6512 52.0958H219.329V250.746H84.6512V52.0958Z" fill="white"/>
</mask>
<g mask="url(#mask33_16022_5381)">
<mask id="mask34_16022_5381" style="mask-type:luminance" maskUnits="userSpaceOnUse" x="-15" y="33" width="279" height="339">
<path d="M-14.9635 94.3143L174.914 33.696L263.021 310.588L73.1297 371.194L-14.9635 94.3143Z" fill="white"/>
</mask>
<g mask="url(#mask34_16022_5381)">
<path d="M208.965 229.071L148.176 248.471C141.942 250.47 135.287 247.024 133.314 240.803L85.2168 89.6584C83.2439 83.4375 86.6767 76.7825 92.9108 74.7833L153.7 55.3839C159.934 53.3979 166.589 56.8306 168.562 63.0516L216.659 214.209C218.645 220.43 215.2 227.085 208.965 229.071Z" fill="#C1D7FD"/>
</g>
</g>
<mask id="mask35_16022_5381" style="mask-type:luminance" maskUnits="userSpaceOnUse" x="111" y="75" width="8" height="8">
<path d="M111.588 75.6643H118.322V82.3982H111.588V75.6643Z" fill="white"/>
</mask>
<g mask="url(#mask35_16022_5381)">
<mask id="mask36_16022_5381" style="mask-type:luminance" maskUnits="userSpaceOnUse" x="-15" y="33" width="279" height="339">
<path d="M-14.962 94.3142L174.916 33.6959L263.022 310.588L73.1311 371.194L-14.962 94.3142Z" fill="white"/>
</mask>
<g mask="url(#mask36_16022_5381)">
<path d="M116.783 79.1891C116.954 79.7283 116.901 80.2544 116.638 80.7673C116.375 81.2671 115.981 81.6091 115.428 81.7932C114.889 81.9642 114.363 81.9116 113.85 81.6485C113.35 81.3986 113.008 80.9909 112.824 80.4385C112.653 79.8993 112.706 79.3732 112.969 78.8603C113.232 78.3605 113.626 78.0185 114.179 77.8475C114.718 77.6634 115.244 77.716 115.757 77.9791C116.27 78.2421 116.599 78.6367 116.783 79.1891Z" fill="#A1C3FC"/>
</g>
</g>
<mask id="mask37_16022_5381" style="mask-type:luminance" maskUnits="userSpaceOnUse" x="114" y="52" width="106" height="199">
<path d="M114.954 52.0958H219.329V250.746H114.954V52.0958Z" fill="white"/>
</mask>
<g mask="url(#mask37_16022_5381)">
<mask id="mask38_16022_5381" style="mask-type:luminance" maskUnits="userSpaceOnUse" x="-15" y="33" width="279" height="339">
<path d="M-14.9634 94.3143L174.914 33.696L263.021 310.588L73.1298 371.194L-14.9634 94.3143Z" fill="white"/>
</mask>
<g mask="url(#mask38_16022_5381)">
<path d="M153.7 55.3839L142.034 59.106C141.547 59.6715 141.087 60.237 140.64 60.8157C128.592 75.9144 120.056 94.6036 120.556 113.898C120.754 121.671 122.411 129.325 123.147 137.072C124.831 154.801 121.7 172.675 117.11 189.891L133.314 240.803C135.287 247.024 141.942 250.47 148.176 248.471L208.965 229.071C215.199 227.085 218.645 220.43 216.659 214.209L168.562 63.0516C166.589 56.8306 159.934 53.3979 153.7 55.3839Z" fill="#A1C3FC"/>
</g>
</g>
<mask id="mask39_16022_5381" style="mask-type:luminance" maskUnits="userSpaceOnUse" x="165" y="220" width="21" height="18">
<path d="M165.458 220.443H185.66V237.278H165.458V220.443Z" fill="white"/>
</mask>
<g mask="url(#mask39_16022_5381)">
<mask id="mask40_16022_5381" style="mask-type:luminance" maskUnits="userSpaceOnUse" x="-15" y="33" width="279" height="339">
<path d="M-14.9635 94.3142L174.914 33.6959L263.021 310.588L73.1297 371.194L-14.9635 94.3142Z" fill="white"/>
</mask>
<g mask="url(#mask40_16022_5381)">
<mask id="mask41_16022_5381" style="mask-type:luminance" maskUnits="userSpaceOnUse" x="168" y="221" width="16" height="15">
<path d="M182.964 226.204C183.253 227.125 183.358 228.072 183.279 229.045C183.187 230.018 182.924 230.939 182.477 231.807C182.03 232.675 181.438 233.411 180.688 234.043C179.952 234.674 179.11 235.134 178.176 235.437C177.255 235.726 176.295 235.831 175.335 235.752C174.362 235.674 173.441 235.411 172.573 234.963C171.705 234.516 170.956 233.924 170.337 233.175C169.706 232.438 169.246 231.596 168.943 230.676C168.654 229.742 168.549 228.795 168.628 227.822C168.707 226.848 168.983 225.928 169.43 225.073C169.877 224.205 170.469 223.455 171.219 222.824C171.955 222.193 172.797 221.732 173.731 221.43C174.651 221.14 175.598 221.035 176.572 221.114C177.545 221.193 178.465 221.456 179.334 221.903C180.202 222.35 180.938 222.942 181.569 223.692C182.201 224.428 182.661 225.27 182.964 226.204Z" fill="white"/>
</mask>
<g mask="url(#mask41_16022_5381)">
<path d="M164.275 222.403L169.917 240.132L187.633 234.477L181.99 216.734L164.275 222.403Z" fill="url(#paint2_linear_16022_5381)"/>
</g>
</g>
</g>
<mask id="mask42_16022_5381" style="mask-type:luminance" maskUnits="userSpaceOnUse" x="118" y="68" width="18" height="15">
<path d="M118.321 68.9305H135.156V82.3983H118.321V68.9305Z" fill="white"/>
</mask>
<g mask="url(#mask42_16022_5381)">
<mask id="mask43_16022_5381" style="mask-type:luminance" maskUnits="userSpaceOnUse" x="-15" y="33" width="279" height="339">
<path d="M-14.9628 94.3142L174.915 33.6959L263.021 310.588L73.1304 371.194L-14.9628 94.3142Z" fill="white"/>
</mask>
<g mask="url(#mask43_16022_5381)">
<path d="M119.979 77.5188L133.459 71.2979L134.525 73.6126L121.044 79.8336L119.979 77.5188Z" fill="#A1C3FC"/>
</g>
</g>
<mask id="mask44_16022_5381" style="mask-type:luminance" maskUnits="userSpaceOnUse" x="88" y="72" width="125" height="162">
<path d="M88.0187 72.2975H212.596V233.911H88.0187V72.2975Z" fill="white"/>
</mask>
<g mask="url(#mask44_16022_5381)">
<mask id="mask45_16022_5381" style="mask-type:luminance" maskUnits="userSpaceOnUse" x="-15" y="33" width="279" height="339">
<path d="M-14.9626 94.3143L174.915 33.696L263.021 310.588L73.1305 371.194L-14.9626 94.3143Z" fill="white"/>
</mask>
<g mask="url(#mask45_16022_5381)">
<path d="M91.1884 96.9973L167.944 72.4948L210.742 207.041L133.999 231.531L91.1884 96.9973Z" fill="white"/>
</g>
</g>
<mask id="mask46_16022_5381" style="mask-type:luminance" maskUnits="userSpaceOnUse" x="168" y="220" width="15" height="14">
<path d="M168.826 220.443H182.293V233.911H168.826V220.443Z" fill="white"/>
</mask>
<g mask="url(#mask46_16022_5381)">
<mask id="mask47_16022_5381" style="mask-type:luminance" maskUnits="userSpaceOnUse" x="-15" y="33" width="279" height="339">
<path d="M-14.9626 94.3142L174.915 33.6959L263.021 310.588L73.1305 371.194L-14.9626 94.3142Z" fill="white"/>
</mask>
<g mask="url(#mask47_16022_5381)">
<path d="M180.216 226.165C180.439 226.875 180.531 227.598 180.465 228.348C180.4 229.084 180.202 229.781 179.86 230.452C179.518 231.11 179.058 231.675 178.493 232.162C177.914 232.649 177.283 232.991 176.572 233.227C175.862 233.451 175.126 233.53 174.389 233.464C173.653 233.411 172.942 233.201 172.285 232.859C171.627 232.517 171.048 232.07 170.575 231.504C170.088 230.926 169.733 230.294 169.51 229.584C169.286 228.874 169.207 228.151 169.273 227.401C169.326 226.664 169.536 225.967 169.878 225.297C170.22 224.639 170.68 224.06 171.246 223.587C171.811 223.1 172.456 222.745 173.166 222.521C173.876 222.298 174.6 222.219 175.336 222.272C176.086 222.337 176.783 222.548 177.454 222.877C178.111 223.219 178.677 223.679 179.163 224.244C179.637 224.823 179.992 225.454 180.216 226.165Z" fill="#C1D7FD"/>
</g>
</g>
<mask id="mask48_16022_5381" style="mask-type:luminance" maskUnits="userSpaceOnUse" x="118" y="72" width="18" height="8">
<path d="M118.321 72.2975H135.156V79.0315H118.321V72.2975Z" fill="white"/>
</mask>
<g mask="url(#mask48_16022_5381)">
<mask id="mask49_16022_5381" style="mask-type:luminance" maskUnits="userSpaceOnUse" x="-15" y="33" width="279" height="339">
<path d="M-14.9628 94.3143L174.915 33.696L263.021 310.588L73.1304 371.194L-14.9628 94.3143Z" fill="white"/>
</mask>
<g mask="url(#mask49_16022_5381)">
<path d="M132.447 74.0601L120.913 77.7427C120.689 77.8084 120.439 77.6901 120.373 77.4533C120.294 77.2297 120.426 76.9798 120.65 76.9141L132.184 73.2315C132.421 73.1526 132.658 73.2841 132.736 73.5077C132.802 73.7444 132.684 73.9812 132.447 74.0601Z" fill="#428DFC"/>
</g>
</g>
<mask id="mask50_16022_5381" style="mask-type:luminance" maskUnits="userSpaceOnUse" x="74" y="136" width="82" height="139">
<path d="M74.5504 136.269H155.357V274.315H74.5504V136.269Z" fill="white"/>
</mask>
<g mask="url(#mask50_16022_5381)">
<mask id="mask51_16022_5381" style="mask-type:luminance" maskUnits="userSpaceOnUse" x="-15" y="33" width="279" height="339">
<path d="M-14.9635 94.3142L174.914 33.6959L263.021 310.588L73.1297 371.194L-14.9635 94.3142Z" fill="white"/>
</mask>
<g mask="url(#mask51_16022_5381)">
<mask id="mask52_16022_5381" style="mask-type:luminance" maskUnits="userSpaceOnUse" x="77" y="139" width="76" height="133">
<path d="M77.4829 143.701C76.0362 147.659 82.9542 154.446 83.625 155.643C86.4396 160.627 89.0042 166.191 90.0038 171.965C92.1213 184.262 86.4527 195.954 86.5316 208.317C86.6894 234.187 96.1985 260.176 122.384 269.58C130.946 272.644 154.055 272.171 152.766 258.716C152.253 253.363 150.53 246.932 148.465 242.105C145.848 236.016 141.836 229.624 138.654 224.034C136.352 219.996 133.314 215.722 129.934 212.407C125.672 208.225 122.779 202.912 117.834 200.11C117.715 185.327 114.835 176.318 109.771 164.941C107.154 159.036 104.708 152.355 100.184 147.501C96.2774 143.293 89.0568 138.321 83.1778 139.281C78.9954 139.978 77.4829 143.701 77.4829 143.701Z" fill="white"/>
</mask>
<g mask="url(#mask52_16022_5381)">
<path d="M37.2374 150.711L83.2305 295.253L192.854 260.268L146.861 115.713L37.2374 150.711Z" fill="url(#paint3_linear_16022_5381)"/>
</g>
</g>
</g>
<mask id="mask53_16022_5381" style="mask-type:luminance" maskUnits="userSpaceOnUse" x="165" y="79" width="28" height="38">
<path d="M165.458 79.0314H192.394V116.068H165.458V79.0314Z" fill="white"/>
</mask>
<g mask="url(#mask53_16022_5381)">
<mask id="mask54_16022_5381" style="mask-type:luminance" maskUnits="userSpaceOnUse" x="-15" y="33" width="279" height="339">
<path d="M-14.9635 94.3142L174.914 33.6959L263.021 310.588L73.1297 371.194L-14.9635 94.3142Z" fill="white"/>
</mask>
<g mask="url(#mask54_16022_5381)">
<path d="M173.546 89.803C169.851 94.3799 166.773 98.6149 165.984 101.219C164.051 107.545 167.72 116.107 174.888 115.384C180.149 114.845 187.527 107.059 190.526 102.482C193.34 98.1677 190.894 89.461 187.738 84.3843C182.503 75.98 175.48 87.4093 173.546 89.803Z" fill="#FFBEB6"/>
</g>
</g>
<mask id="mask55_16022_5381" style="mask-type:luminance" maskUnits="userSpaceOnUse" x="172" y="102" width="31" height="45">
<path d="M172.193 102.6H202.495V146.37H172.193V102.6Z" fill="white"/>
</mask>
<g mask="url(#mask55_16022_5381)">
<mask id="mask56_16022_5381" style="mask-type:luminance" maskUnits="userSpaceOnUse" x="-15" y="33" width="279" height="339">
<path d="M-14.9622 94.3143L174.916 33.696L263.022 310.588L73.131 371.194L-14.9622 94.3143Z" fill="white"/>
</mask>
<g mask="url(#mask56_16022_5381)">
<path d="M193.447 105.875C190.553 104.231 188.081 106.007 186.003 109.873C184.411 112.819 183.596 114.621 182.07 117.607C179.164 123.262 175.008 128.378 173.89 134.849C172.653 141.991 177.901 146.121 184.701 142.833C189.975 140.294 194.21 135.481 197.827 130.996C200.93 127.142 202.601 122.986 201.627 118.001C201.075 115.174 199.747 112.477 198.234 110.149C197.406 108.874 195.222 106.861 193.447 105.875Z" fill="#FFBEB6"/>
</g>
</g>
<mask id="mask57_16022_5381" style="mask-type:luminance" maskUnits="userSpaceOnUse" x="178" y="129" width="32" height="35">
<path d="M178.926 129.536H209.229V163.205H178.926V129.536Z" fill="white"/>
</mask>
<g mask="url(#mask57_16022_5381)">
<mask id="mask58_16022_5381" style="mask-type:luminance" maskUnits="userSpaceOnUse" x="-15" y="33" width="279" height="339">
<path d="M-14.9629 94.3142L174.915 33.6959L263.021 310.588L73.1303 371.194L-14.9629 94.3142Z" fill="white"/>
</mask>
<g mask="url(#mask58_16022_5381)">
<path d="M196.892 132.64C190.724 135.954 170.917 156.997 183.319 161.666C188.672 163.692 195.551 158.523 199.654 155.419C206.467 150.25 211.399 146.949 207.638 137.835C206.362 134.744 204.626 131.324 200.535 130.956C200.036 130.903 198.286 131.469 196.892 132.64Z" fill="#FFBEB6"/>
</g>
</g>
<mask id="mask59_16022_5381" style="mask-type:luminance" maskUnits="userSpaceOnUse" x="165" y="95" width="21" height="22">
<path d="M165.458 95.866H185.66V116.068H165.458V95.866Z" fill="white"/>
</mask>
<g mask="url(#mask59_16022_5381)">
<mask id="mask60_16022_5381" style="mask-type:luminance" maskUnits="userSpaceOnUse" x="-15" y="33" width="279" height="339">
<path d="M-14.9635 94.3142L174.914 33.6959L263.021 310.588L73.1297 371.194L-14.9635 94.3142Z" fill="white"/>
</mask>
<g mask="url(#mask60_16022_5381)">
<mask id="mask61_16022_5381" style="mask-type:luminance" maskUnits="userSpaceOnUse" x="167" y="96" width="16" height="18">
<path d="M181.727 106.296L178.544 111.044C176.795 113.635 173.244 114.345 170.653 112.596L169.561 111.872C166.97 110.136 166.273 106.585 168.009 103.981L171.205 99.233C172.941 96.642 176.492 95.9318 179.097 97.681L180.175 98.4044C182.779 100.141 183.476 103.692 181.727 106.296Z" fill="white"/>
</mask>
<g mask="url(#mask61_16022_5381)">
<path d="M157.751 108.624L178.136 122.289L191.999 101.653L171.613 87.988L157.751 108.624Z" fill="url(#paint4_linear_16022_5381)"/>
</g>
</g>
</g>
<mask id="mask62_16022_5381" style="mask-type:luminance" maskUnits="userSpaceOnUse" x="172" y="122" width="21" height="22">
<path d="M172.193 122.802H192.395V143.003H172.193V122.802Z" fill="white"/>
</mask>
<g mask="url(#mask62_16022_5381)">
<mask id="mask63_16022_5381" style="mask-type:luminance" maskUnits="userSpaceOnUse" x="-15" y="33" width="279" height="339">
<path d="M-14.9622 94.3142L174.916 33.6959L263.022 310.588L73.131 371.194L-14.9622 94.3142Z" fill="white"/>
</mask>
<g mask="url(#mask63_16022_5381)">
<mask id="mask64_16022_5381" style="mask-type:luminance" maskUnits="userSpaceOnUse" x="174" y="126" width="17" height="17">
<path d="M189.265 135.993L185.766 140.504C183.846 142.977 180.255 143.437 177.783 141.53L176.757 140.728C174.284 138.808 173.824 135.23 175.744 132.745L179.243 128.234C181.163 125.761 184.754 125.301 187.226 127.208L188.252 128.01C190.725 129.917 191.185 133.508 189.265 135.993Z" fill="white"/>
</mask>
<g mask="url(#mask64_16022_5381)">
<path d="M165.038 136.638L184.675 151.829L199.971 132.1L180.334 116.91L165.038 136.638Z" fill="url(#paint5_linear_16022_5381)"/>
</g>
</g>
</g>
<mask id="mask65_16022_5381" style="mask-type:luminance" maskUnits="userSpaceOnUse" x="178" y="143" width="22" height="21">
<path d="M178.926 143.003H199.128V163.205H178.926V143.003Z" fill="white"/>
</mask>
<g mask="url(#mask65_16022_5381)">
<mask id="mask66_16022_5381" style="mask-type:luminance" maskUnits="userSpaceOnUse" x="-15" y="33" width="279" height="339">
<path d="M-14.9629 94.3142L174.915 33.6959L263.021 310.588L73.1303 371.194L-14.9629 94.3142Z" fill="white"/>
</mask>
<g mask="url(#mask66_16022_5381)">
<mask id="mask67_16022_5381" style="mask-type:luminance" maskUnits="userSpaceOnUse" x="180" y="145" width="17" height="17">
<path d="M194.591 156.787L190.08 160.285C187.594 162.206 184.003 161.758 182.096 159.286L181.294 158.26C179.374 155.787 179.834 152.197 182.307 150.277L186.831 146.778C189.304 144.858 192.894 145.305 194.801 147.778L195.604 148.804C197.524 151.276 197.064 154.867 194.591 156.787Z" fill="white"/>
</mask>
<g mask="url(#mask67_16022_5381)">
<path d="M170.983 151.368L186.187 170.991L205.928 155.695L190.711 136.072L170.983 151.368Z" fill="url(#paint6_linear_16022_5381)"/>
</g>
</g>
</g>
<mask id="mask68_16022_5381" style="mask-type:luminance" maskUnits="userSpaceOnUse" x="88" y="200" width="64" height="78">
<path d="M88.0187 200.242H151.991V277.682H88.0187V200.242Z" fill="white"/>
</mask>
<g mask="url(#mask68_16022_5381)">
<mask id="mask69_16022_5381" style="mask-type:luminance" maskUnits="userSpaceOnUse" x="-15" y="33" width="279" height="339">
<path d="M-14.9626 94.3142L174.915 33.6959L263.021 310.588L73.1305 371.194L-14.9626 94.3142Z" fill="white"/>
</mask>
<g mask="url(#mask69_16022_5381)">
<path d="M133.196 238.698C133.236 238.856 133.394 238.948 133.538 238.909C133.696 238.869 133.788 238.712 133.749 238.567C133.723 238.409 133.565 238.317 133.407 238.357C133.249 238.396 133.157 238.541 133.196 238.698ZM139.983 236.962C140.022 237.12 140.18 237.212 140.338 237.186C140.496 237.147 140.588 236.976 140.535 236.831C140.509 236.686 140.378 236.581 140.22 236.607C140.22 236.607 140.207 236.62 140.193 236.62C140.036 236.66 139.943 236.818 139.983 236.962ZM150.833 262.057C150.755 262.188 150.794 262.372 150.939 262.451C151.057 262.53 151.228 262.504 151.307 262.372C151.307 262.372 151.32 262.359 151.32 262.346C151.399 262.215 151.373 262.044 151.241 261.951C151.097 261.873 150.926 261.912 150.833 262.057ZM136.235 223.85C136.208 224.007 136.313 224.152 136.471 224.165C136.616 224.192 136.761 224.086 136.787 223.942C136.813 223.784 136.708 223.639 136.55 223.613C136.406 223.587 136.261 223.679 136.235 223.823C136.235 223.837 136.235 223.837 136.235 223.85ZM142.666 249.654C142.548 249.759 142.521 249.93 142.613 250.062C142.705 250.193 142.903 250.22 143.034 250.128C143.166 250.022 143.192 249.838 143.087 249.707C142.982 249.588 142.798 249.562 142.666 249.654ZM148.282 245.459C148.164 245.551 148.137 245.735 148.243 245.866C148.321 245.985 148.492 246.024 148.624 245.945L148.637 245.932C148.769 245.827 148.795 245.643 148.703 245.511C148.598 245.393 148.413 245.367 148.282 245.459ZM108.944 209.303C108.878 209.593 109.062 209.882 109.352 209.948H109.365C109.654 210.014 109.943 209.829 110.009 209.54C110.075 209.251 109.891 208.961 109.601 208.896C109.601 208.883 109.588 208.883 109.588 208.883C109.299 208.817 109.01 209.001 108.944 209.29C108.944 209.303 108.944 209.303 108.944 209.303ZM121.912 212.052C121.846 212.355 122.03 212.644 122.333 212.71C122.635 212.789 122.925 212.591 122.99 212.289C123.056 212 122.872 211.71 122.583 211.644C122.28 211.579 121.991 211.763 121.912 212.052ZM106.208 261.083C105.958 261.254 105.879 261.583 106.05 261.846C106.195 262.096 106.524 262.175 106.774 262.03C106.787 262.017 106.787 262.017 106.8 262.004C107.05 261.833 107.116 261.504 106.958 261.241C106.8 260.991 106.458 260.926 106.208 261.083ZM128.527 246.642C128.264 246.813 128.199 247.142 128.356 247.392C128.356 247.405 128.356 247.405 128.37 247.405C128.514 247.655 128.843 247.747 129.093 247.589C129.093 247.589 129.106 247.589 129.119 247.576C129.369 247.405 129.435 247.063 129.29 246.8C129.119 246.55 128.777 246.485 128.527 246.642ZM139.667 239.435C139.417 239.606 139.338 239.948 139.509 240.198C139.68 240.448 140.022 240.513 140.272 240.356C140.522 240.185 140.601 239.856 140.443 239.606C140.285 239.343 139.943 239.264 139.68 239.422L139.667 239.435ZM101.473 233.148C101.539 233.451 101.829 233.635 102.118 233.569C102.42 233.503 102.605 233.214 102.539 232.925C102.473 232.635 102.197 232.451 101.907 232.504C101.618 232.57 101.421 232.859 101.473 233.148ZM114.534 230.741C114.599 231.031 114.889 231.215 115.178 231.149C115.48 231.097 115.665 230.807 115.599 230.505C115.546 230.215 115.257 230.031 114.968 230.097C114.678 230.15 114.481 230.439 114.534 230.741ZM127.594 228.335C127.659 228.637 127.949 228.834 128.251 228.769C128.541 228.703 128.738 228.427 128.685 228.137C128.646 227.835 128.356 227.624 128.054 227.677C127.738 227.716 127.541 228.006 127.58 228.308C127.58 228.321 127.58 228.335 127.594 228.335ZM128.725 275.538C128.554 275.788 128.619 276.13 128.869 276.3C129.106 276.471 129.448 276.406 129.619 276.169C129.803 275.945 129.764 275.603 129.527 275.432C129.527 275.419 129.514 275.419 129.501 275.406C129.238 275.235 128.909 275.301 128.725 275.538ZM143.837 253.705C143.666 253.942 143.718 254.271 143.955 254.442C143.955 254.442 143.968 254.442 143.981 254.455C144.218 254.626 144.56 254.573 144.744 254.336C144.744 254.323 144.744 254.323 144.757 254.31C144.928 254.06 144.862 253.718 144.613 253.547C144.363 253.376 144.021 253.442 143.85 253.692L143.837 253.705ZM99.4874 220.312C99.5137 220.575 99.7373 220.772 100.014 220.759C100.277 220.733 100.474 220.496 100.461 220.233C100.434 219.957 100.198 219.759 99.9346 219.786C99.6716 219.799 99.4611 220.036 99.4874 220.312ZM111.285 219.273C111.311 219.549 111.548 219.746 111.811 219.72C112.087 219.707 112.298 219.483 112.284 219.207C112.271 218.944 112.035 218.733 111.772 218.747C111.758 218.747 111.745 218.747 111.745 218.747C111.482 218.773 111.272 218.997 111.285 219.26C111.285 219.26 111.298 219.273 111.285 219.273ZM123.214 217.918C123.122 217.997 123.082 218.128 123.096 218.247C123.122 218.51 123.359 218.72 123.622 218.694C123.898 218.668 124.108 218.431 124.095 218.155C124.082 218.155 124.082 218.155 124.082 218.155C124.082 217.997 123.977 217.839 123.845 217.76L123.832 217.747C123.753 217.708 123.648 217.681 123.556 217.708C123.411 217.708 123.28 217.787 123.214 217.918ZM122.504 264.122C122.333 264.345 122.359 264.648 122.569 264.832C122.767 265.003 123.069 264.976 123.24 264.779C123.24 264.779 123.24 264.766 123.253 264.766C123.424 264.556 123.411 264.253 123.201 264.082C123.201 264.069 123.201 264.069 123.201 264.069C122.99 263.911 122.688 263.924 122.504 264.122ZM137.8 245.998C137.616 246.208 137.642 246.511 137.839 246.695H137.852C138.036 246.866 138.326 246.853 138.497 246.669C138.51 246.656 138.523 246.642 138.536 246.629C138.707 246.432 138.694 246.116 138.484 245.945V245.932C138.273 245.774 137.971 245.801 137.8 245.998ZM145.428 236.949C145.257 237.16 145.296 237.475 145.507 237.646C145.717 237.804 146.02 237.778 146.191 237.581C146.349 237.37 146.335 237.068 146.138 236.883C145.915 236.712 145.612 236.739 145.428 236.949ZM111.601 240.606C111.364 240.737 111.272 241.04 111.403 241.276C111.522 241.513 111.811 241.605 112.048 241.474C112.284 241.355 112.39 241.066 112.284 240.816C112.153 240.579 111.85 240.474 111.601 240.606ZM122.135 235.147C121.899 235.266 121.807 235.542 121.912 235.779C121.912 235.779 121.925 235.792 121.925 235.805C122.043 236.042 122.333 236.134 122.569 236.015C122.806 235.884 122.911 235.595 122.806 235.345C122.675 235.108 122.372 235.029 122.135 235.147ZM132.657 229.689C132.42 229.808 132.328 230.097 132.46 230.334C132.578 230.57 132.868 230.662 133.104 230.544C133.341 230.426 133.433 230.136 133.315 229.887C133.196 229.65 132.907 229.558 132.67 229.676C132.67 229.676 132.67 229.676 132.657 229.689ZM149.374 259.005C149.282 259.268 149.426 259.545 149.689 259.637C149.952 259.702 150.215 259.558 150.294 259.295C150.373 259.045 150.242 258.782 149.992 258.69C149.742 258.598 149.466 258.729 149.374 258.979C149.374 258.992 149.374 259.005 149.374 259.005ZM131.815 231.267C131.697 231.36 131.684 231.544 131.776 231.662C131.868 231.794 132.052 231.807 132.184 231.715C132.302 231.609 132.315 231.425 132.223 231.307C132.118 231.175 131.947 231.162 131.815 231.267ZM137.26 226.862C137.142 226.967 137.129 227.151 137.234 227.282C137.326 227.401 137.51 227.427 137.629 227.322C137.747 227.23 137.773 227.059 137.694 226.94C137.681 226.927 137.681 226.927 137.668 226.927C137.576 226.796 137.392 226.769 137.26 226.862ZM128.33 216.958C128.383 217.103 128.527 217.182 128.685 217.155C128.83 217.116 128.922 216.958 128.883 216.8V216.787C128.843 216.642 128.698 216.55 128.554 216.59C128.541 216.59 128.527 216.59 128.527 216.59C128.37 216.642 128.278 216.8 128.33 216.958ZM144.954 237.646C144.876 237.778 144.928 237.949 145.06 238.028C145.204 238.107 145.375 238.054 145.454 237.922C145.533 237.791 145.494 237.633 145.375 237.554C145.362 237.541 145.349 237.541 145.336 237.528C145.204 237.449 145.033 237.502 144.954 237.633V237.646ZM114.915 203.464C114.928 203.635 115.073 203.766 115.244 203.753C115.257 203.753 115.257 203.753 115.257 203.753C115.441 203.74 115.573 203.595 115.573 203.424C115.573 203.411 115.573 203.398 115.573 203.398C115.559 203.214 115.402 203.082 115.231 203.096C115.231 203.096 115.231 203.096 115.217 203.096C115.033 203.122 114.902 203.28 114.915 203.464ZM130.093 233.148C129.974 233.267 129.974 233.464 130.093 233.582C130.106 233.582 130.119 233.595 130.132 233.609C130.264 233.714 130.474 233.701 130.579 233.569C130.698 233.424 130.684 233.214 130.553 233.096C130.421 232.977 130.211 233.004 130.093 233.148ZM135.288 227.085C135.169 227.23 135.196 227.44 135.34 227.559C135.472 227.664 135.682 227.651 135.801 227.519C135.906 227.374 135.893 227.164 135.774 227.046C135.616 226.927 135.419 226.94 135.288 227.085ZM123.214 217.918C123.214 217.958 123.227 218.01 123.24 218.05C123.319 218.207 123.516 218.273 123.674 218.194C123.674 218.194 123.674 218.194 123.687 218.194C123.845 218.115 123.911 217.931 123.845 217.76L123.819 217.747C123.753 217.589 123.556 217.523 123.385 217.602V217.616C123.267 217.668 123.201 217.787 123.214 217.918ZM146.178 237.844C146.112 238.015 146.204 238.199 146.375 238.251C146.388 238.251 146.388 238.251 146.388 238.251C146.559 238.304 146.743 238.212 146.796 238.041C146.862 237.883 146.783 237.699 146.625 237.633C146.612 237.633 146.612 237.633 146.598 237.633C146.428 237.567 146.23 237.659 146.178 237.844ZM89.2682 227.677C89.0052 227.835 88.8999 228.177 89.0446 228.453C89.1893 228.729 89.5313 228.834 89.8074 228.69C90.0705 228.532 90.1757 228.19 90.031 227.914C89.8864 227.637 89.5444 227.532 89.2682 227.677ZM101.368 221.246C101.092 221.39 100.987 221.732 101.131 222.008C101.276 222.285 101.618 222.39 101.894 222.245C102.17 222.1 102.276 221.772 102.131 221.495C101.986 221.219 101.644 221.114 101.368 221.246ZM113.455 214.814C113.179 214.972 113.074 215.314 113.218 215.59C113.376 215.866 113.718 215.958 113.994 215.801C114.257 215.643 114.349 215.301 114.205 215.038C114.06 214.775 113.718 214.669 113.455 214.814ZM137.392 251.482C137.313 251.772 137.471 252.087 137.773 252.193C138.063 252.285 138.378 252.114 138.47 251.811C138.576 251.522 138.405 251.206 138.102 251.114C137.813 251.022 137.497 251.18 137.392 251.482ZM141.417 238.409C141.338 238.712 141.495 239.027 141.798 239.119C142.1 239.198 142.416 239.027 142.508 238.725C142.6 238.422 142.416 238.107 142.114 238.028C141.811 237.962 141.509 238.12 141.417 238.409ZM119.729 234.371C119.531 234.621 119.558 234.976 119.808 235.174C120.044 235.371 120.386 235.332 120.584 235.095C120.781 234.858 120.754 234.503 120.518 234.306C120.281 234.095 119.926 234.135 119.729 234.371ZM128.449 223.823C128.238 224.047 128.264 224.402 128.501 224.599V224.612C128.751 224.823 129.106 224.797 129.317 224.56C129.527 224.323 129.501 223.955 129.264 223.744C129.027 223.547 128.659 223.56 128.449 223.81C128.449 223.81 128.449 223.81 128.449 223.823ZM111.627 230.82C111.416 231.057 111.43 231.412 111.666 231.623C111.903 231.82 112.258 231.794 112.469 231.583C112.666 231.333 112.653 230.978 112.429 230.768C112.192 230.557 111.837 230.584 111.627 230.82ZM120.741 220.667C120.531 220.904 120.557 221.272 120.794 221.469C121.018 221.68 121.373 221.666 121.583 221.43C121.794 221.206 121.767 220.851 121.544 220.641C121.32 220.43 120.952 220.443 120.741 220.667ZM103.893 207.87C103.617 208.014 103.512 208.343 103.63 208.619C103.644 208.619 103.63 208.619 103.644 208.619C103.775 208.909 104.104 209.027 104.38 208.896C104.669 208.764 104.788 208.422 104.656 208.133C104.512 207.857 104.183 207.751 103.893 207.87ZM116.217 201.978C115.928 202.109 115.809 202.438 115.928 202.727C116.059 203.003 116.401 203.122 116.677 203.003C116.677 202.99 116.69 202.99 116.69 202.99C116.967 202.846 117.085 202.517 116.954 202.228C116.822 201.951 116.493 201.846 116.217 201.978ZM129.777 249.168C129.672 249.457 129.829 249.786 130.132 249.891C130.421 249.983 130.737 249.838 130.842 249.536C130.947 249.26 130.816 248.944 130.527 248.826C130.527 248.826 130.513 248.826 130.5 248.812C130.211 248.707 129.882 248.852 129.777 249.141C129.777 249.154 129.777 249.154 129.777 249.168ZM134.328 236.318C134.222 236.62 134.38 236.936 134.683 237.041C134.972 237.133 135.288 236.989 135.393 236.699C135.498 236.41 135.367 236.094 135.077 235.976H135.064C134.762 235.858 134.433 236.002 134.328 236.305C134.328 236.305 134.328 236.305 134.328 236.318ZM121.517 227.046C121.399 227.256 121.465 227.519 121.675 227.637C121.872 227.743 122.122 227.677 122.241 227.48C122.359 227.296 122.306 227.046 122.122 226.927C122.109 226.914 122.096 226.901 122.083 226.901C121.886 226.783 121.636 226.862 121.517 227.046ZM126.634 218.155C126.528 218.365 126.594 218.628 126.804 218.747C127.002 218.852 127.265 218.786 127.383 218.576C127.502 218.378 127.436 218.115 127.239 217.997C127.225 217.997 127.225 217.997 127.225 217.997C127.015 217.879 126.765 217.958 126.634 218.155ZM109.273 209.053C109.089 209.198 109.062 209.461 109.207 209.645C109.352 209.816 109.615 209.843 109.799 209.711C109.983 209.566 110.022 209.303 109.878 209.119C109.746 208.935 109.483 208.896 109.299 209.027C109.286 209.04 109.286 209.04 109.273 209.053ZM117.427 202.754C117.243 202.911 117.203 203.174 117.348 203.372C117.493 203.556 117.756 203.582 117.94 203.438C118.124 203.306 118.164 203.056 118.032 202.872C118.032 202.859 118.032 202.859 118.019 202.859C117.887 202.662 117.624 202.622 117.44 202.754C117.427 202.754 117.427 202.754 117.427 202.754Z" fill="white" fill-opacity="0.51"/>
</g>
</g>
<mask id="mask70_16022_5381" style="mask-type:luminance" maskUnits="userSpaceOnUse" x="118" y="119" width="55" height="55">
<path d="M118.321 119.435H172.193V173.306H118.321V119.435Z" fill="white"/>
</mask>
<g mask="url(#mask70_16022_5381)">
<mask id="mask71_16022_5381" style="mask-type:luminance" maskUnits="userSpaceOnUse" x="118" y="121" width="65" height="55">
<path d="M118.151 140.123L169.97 121.986L182.373 157.523L130.553 175.66L118.151 140.123Z" fill="white"/>
</mask>
<g mask="url(#mask71_16022_5381)">
<mask id="mask72_16022_5381" style="mask-type:luminance" maskUnits="userSpaceOnUse" x="121" y="121" width="49" height="50">
<path d="M121.544 149.869L146.493 170.084L159.672 165.467L169.97 121.986L154.635 127.352L148.045 157.116L133.618 145.647L121.544 149.869Z" fill="white"/>
</mask>
<g mask="url(#mask72_16022_5381)">
<path d="M106.603 127.221L126.818 185.182L184.924 164.849L164.709 106.888L106.603 127.221Z" fill="url(#paint7_linear_16022_5381)"/>
</g>
</g>
</g>
<defs>
<linearGradient id="paint0_linear_16022_5381" x1="149.957" y1="136.163" x2="2.5333" y2="217.421" gradientUnits="userSpaceOnUse">
<stop stop-color="#B9D3FD"/>
<stop offset="0.125" stop-color="#B9D3FD"/>
<stop offset="0.1875" stop-color="#B8D3FD"/>
<stop offset="0.195312" stop-color="#B8D2FD"/>
<stop offset="0.203125" stop-color="#B7D2FD"/>
<stop offset="0.210938" stop-color="#B6D1FD"/>
<stop offset="0.21875" stop-color="#B6D1FC"/>
<stop offset="0.226562" stop-color="#B5D0FC"/>
<stop offset="0.234375" stop-color="#B4D0FC"/>
<stop offset="0.242187" stop-color="#B4D0FC"/>
<stop offset="0.25" stop-color="#B3CFFC"/>
<stop offset="0.257812" stop-color="#B3CFFC"/>
<stop offset="0.265625" stop-color="#B2CEFC"/>
<stop offset="0.273438" stop-color="#B1CEFC"/>
<stop offset="0.28125" stop-color="#B1CDFB"/>
<stop offset="0.289062" stop-color="#B0CDFB"/>
<stop offset="0.296875" stop-color="#AFCCFB"/>
<stop offset="0.304687" stop-color="#AFCCFB"/>
<stop offset="0.3125" stop-color="#AECCFB"/>
<stop offset="0.320312" stop-color="#ADCBFB"/>
<stop offset="0.328125" stop-color="#ADCBFB"/>
<stop offset="0.335938" stop-color="#ACCAFB"/>
<stop offset="0.34375" stop-color="#ABCAFA"/>
<stop offset="0.351562" stop-color="#ABC9FA"/>
<stop offset="0.359375" stop-color="#AAC9FA"/>
<stop offset="0.367188" stop-color="#A9C9FA"/>
<stop offset="0.375" stop-color="#A9C8FA"/>
<stop offset="0.382812" stop-color="#A8C8FA"/>
<stop offset="0.390625" stop-color="#A7C7FA"/>
<stop offset="0.398437" stop-color="#A7C7FA"/>
<stop offset="0.40625" stop-color="#A6C6F9"/>
<stop offset="0.414062" stop-color="#A5C6F9"/>
<stop offset="0.421875" stop-color="#A5C5F9"/>
<stop offset="0.429688" stop-color="#A4C5F9"/>
<stop offset="0.4375" stop-color="#A3C5F9"/>
<stop offset="0.445312" stop-color="#A3C4F9"/>
<stop offset="0.453125" stop-color="#A2C4F9"/>
<stop offset="0.460938" stop-color="#A1C3F9"/>
<stop offset="0.46875" stop-color="#A1C3F8"/>
<stop offset="0.476563" stop-color="#A0C2F8"/>
<stop offset="0.484375" stop-color="#9FC2F8"/>
<stop offset="0.492188" stop-color="#9FC2F8"/>
<stop offset="0.5" stop-color="#9EC1F8"/>
<stop offset="0.507812" stop-color="#9DC1F8"/>
<stop offset="0.515625" stop-color="#9DC0F8"/>
<stop offset="0.523438" stop-color="#9CC0F8"/>
<stop offset="0.53125" stop-color="#9CBFF7"/>
<stop offset="0.539062" stop-color="#9BBFF7"/>
<stop offset="0.546875" stop-color="#9ABEF7"/>
<stop offset="0.554687" stop-color="#9ABEF7"/>
<stop offset="0.5625" stop-color="#99BEF7"/>
<stop offset="0.570312" stop-color="#98BDF7"/>
<stop offset="0.578125" stop-color="#98BDF7"/>
<stop offset="0.585937" stop-color="#97BCF7"/>
<stop offset="0.59375" stop-color="#96BCF7"/>
<stop offset="0.601562" stop-color="#96BBF6"/>
<stop offset="0.609375" stop-color="#95BBF6"/>
<stop offset="0.617188" stop-color="#94BBF6"/>
<stop offset="0.625" stop-color="#94BAF6"/>
<stop offset="0.632812" stop-color="#93BAF6"/>
<stop offset="0.640625" stop-color="#92B9F6"/>
<stop offset="0.648438" stop-color="#92B9F6"/>
<stop offset="0.65625" stop-color="#91B8F6"/>
<stop offset="0.664063" stop-color="#90B8F5"/>
<stop offset="0.671875" stop-color="#90B8F5"/>
<stop offset="0.679688" stop-color="#8FB7F5"/>
<stop offset="0.6875" stop-color="#8EB7F5"/>
<stop offset="0.695313" stop-color="#8EB6F5"/>
<stop offset="0.703125" stop-color="#8DB6F5"/>
<stop offset="0.710938" stop-color="#8CB5F5"/>
<stop offset="0.71875" stop-color="#8CB5F5"/>
<stop offset="0.726562" stop-color="#8BB4F4"/>
<stop offset="0.734375" stop-color="#8AB4F4"/>
<stop offset="0.742188" stop-color="#8AB4F4"/>
<stop offset="0.75" stop-color="#89B3F4"/>
<stop offset="1" stop-color="#89B3F4"/>
</linearGradient>
<linearGradient id="paint1_linear_16022_5381" x1="132.022" y1="171.612" x2="5.21518" y2="241.506" gradientUnits="userSpaceOnUse">
<stop stop-color="#DEEAFE"/>
<stop offset="0.25" stop-color="#DFEAFE"/>
<stop offset="0.3125" stop-color="#DFEBFE"/>
<stop offset="0.375" stop-color="#E0ECFE"/>
<stop offset="0.4375" stop-color="#E1ECFE"/>
<stop offset="0.5" stop-color="#E2EDFE"/>
<stop offset="0.5625" stop-color="#E3EDFE"/>
<stop offset="0.625" stop-color="#E4EEFE"/>
<stop offset="0.6875" stop-color="#E5EFFE"/>
<stop offset="0.75" stop-color="#E6EFFE"/>
<stop offset="0.8125" stop-color="#E7F0FE"/>
<stop offset="0.875" stop-color="#E8F1FE"/>
<stop offset="1" stop-color="#E9F1FE"/>
</linearGradient>
<linearGradient id="paint2_linear_16022_5381" x1="167.091" y1="231.264" x2="184.82" y2="225.623" gradientUnits="userSpaceOnUse">
<stop stop-color="#A1C3FC"/>
<stop offset="0.125" stop-color="#A1C3FC"/>
<stop offset="0.15625" stop-color="#A0C3FC"/>
<stop offset="0.1875" stop-color="#9FC2FC"/>
<stop offset="0.21875" stop-color="#9EC2FC"/>
<stop offset="0.25" stop-color="#9DC1FC"/>
<stop offset="0.28125" stop-color="#9CC1FC"/>
<stop offset="0.3125" stop-color="#9BC0FC"/>
<stop offset="0.34375" stop-color="#9AC0FC"/>
<stop offset="0.375" stop-color="#9AC0FC"/>
<stop offset="0.40625" stop-color="#99BFFC"/>
<stop offset="0.4375" stop-color="#98BFFC"/>
<stop offset="0.46875" stop-color="#97BEFC"/>
<stop offset="0.5" stop-color="#96BEFC"/>
<stop offset="0.53125" stop-color="#95BDFC"/>
<stop offset="0.5625" stop-color="#94BDFD"/>
<stop offset="0.59375" stop-color="#93BDFD"/>
<stop offset="0.625" stop-color="#92BCFD"/>
<stop offset="0.65625" stop-color="#91BCFD"/>
<stop offset="0.6875" stop-color="#90BBFD"/>
<stop offset="0.71875" stop-color="#90BBFD"/>
<stop offset="0.75" stop-color="#8FBAFD"/>
<stop offset="0.78125" stop-color="#8EBAFD"/>
<stop offset="0.8125" stop-color="#8DB9FD"/>
<stop offset="0.84375" stop-color="#8CB9FD"/>
<stop offset="0.875" stop-color="#8BB9FD"/>
<stop offset="1" stop-color="#8AB8FD"/>
</linearGradient>
<linearGradient id="paint3_linear_16022_5381" x1="176.959" y1="151.777" x2="51.129" y2="256.78" gradientUnits="userSpaceOnUse">
<stop stop-color="#FFBEB6"/>
<stop offset="0.25" stop-color="#FFBEB6"/>
<stop offset="0.349633" stop-color="#FFBEB6"/>
<stop offset="0.375" stop-color="#FFBEB6"/>
<stop offset="0.4375" stop-color="#FFBEB6"/>
<stop offset="0.445312" stop-color="#FFBEB6"/>
<stop offset="0.453125" stop-color="#FEBDB5"/>
<stop offset="0.460938" stop-color="#FEBCB4"/>
<stop offset="0.46875" stop-color="#FEBBB3"/>
<stop offset="0.476562" stop-color="#FDBAB3"/>
<stop offset="0.484375" stop-color="#FDB9B2"/>
<stop offset="0.492188" stop-color="#FDB9B1"/>
<stop offset="0.5" stop-color="#FCB8B1"/>
<stop offset="0.507812" stop-color="#FCB7B0"/>
<stop offset="0.515625" stop-color="#FBB6AF"/>
<stop offset="0.523438" stop-color="#FBB5AE"/>
<stop offset="0.53125" stop-color="#FBB4AE"/>
<stop offset="0.539062" stop-color="#FAB4AD"/>
<stop offset="0.546875" stop-color="#FAB3AC"/>
<stop offset="0.554688" stop-color="#FAB2AB"/>
<stop offset="0.5625" stop-color="#F9B1AB"/>
<stop offset="0.570312" stop-color="#F9B0AA"/>
<stop offset="0.578125" stop-color="#F9B0A9"/>
<stop offset="0.585938" stop-color="#F8AFA8"/>
<stop offset="0.59375" stop-color="#F8AEA8"/>
<stop offset="0.601562" stop-color="#F7ADA7"/>
<stop offset="0.609375" stop-color="#F7ACA6"/>
<stop offset="0.617188" stop-color="#F7ABA5"/>
<stop offset="0.625" stop-color="#F6ABA5"/>
<stop offset="0.632812" stop-color="#F6AAA4"/>
<stop offset="0.640625" stop-color="#F6A9A3"/>
<stop offset="0.648437" stop-color="#F5A8A3"/>
<stop offset="0.650367" stop-color="#F5A7A2"/>
<stop offset="0.65625" stop-color="#F5A7A1"/>
<stop offset="0.664062" stop-color="#F4A7A1"/>
<stop offset="0.671875" stop-color="#F4A6A0"/>
<stop offset="0.679687" stop-color="#F4A5A0"/>
<stop offset="0.6875" stop-color="#F3A49F"/>
<stop offset="0.695312" stop-color="#F3A39E"/>
<stop offset="0.703125" stop-color="#F3A29D"/>
<stop offset="0.710937" stop-color="#F2A29D"/>
<stop offset="0.71875" stop-color="#F2A19C"/>
<stop offset="0.75" stop-color="#F2A19C"/>
<stop offset="1" stop-color="#F2A19C"/>
</linearGradient>
<linearGradient id="paint4_linear_16022_5381" x1="181.806" y1="94.8213" x2="167.962" y2="115.473" gradientUnits="userSpaceOnUse">
<stop stop-color="#FFD0CA"/>
<stop offset="0.0625" stop-color="#FFD0CA"/>
<stop offset="0.09375" stop-color="#FFD0CA"/>
<stop offset="0.125" stop-color="#FFCFC9"/>
<stop offset="0.15625" stop-color="#FFCEC8"/>
<stop offset="0.1875" stop-color="#FFCDC7"/>
<stop offset="0.21875" stop-color="#FFCCC6"/>
<stop offset="0.25" stop-color="#FFCBC5"/>
<stop offset="0.28125" stop-color="#FFCBC4"/>
<stop offset="0.3125" stop-color="#FFCAC3"/>
<stop offset="0.34375" stop-color="#FFC9C2"/>
<stop offset="0.375" stop-color="#FFC8C1"/>
<stop offset="0.40625" stop-color="#FFC7C0"/>
<stop offset="0.4375" stop-color="#FFC6BF"/>
<stop offset="0.46875" stop-color="#FFC5BE"/>
<stop offset="0.5" stop-color="#FFC5BD"/>
<stop offset="0.53125" stop-color="#FFC4BC"/>
<stop offset="0.5625" stop-color="#FFC3BB"/>
<stop offset="0.59375" stop-color="#FFC2BA"/>
<stop offset="0.625" stop-color="#FFC1B9"/>
<stop offset="0.65625" stop-color="#FFC0B9"/>
<stop offset="0.6875" stop-color="#FFBFB8"/>
<stop offset="0.71875" stop-color="#FFBEB7"/>
<stop offset="0.75" stop-color="#FFBEB6"/>
<stop offset="1" stop-color="#FFBEB6"/>
</linearGradient>
<linearGradient id="paint5_linear_16022_5381" x1="190.153" y1="124.501" x2="174.875" y2="144.249" gradientUnits="userSpaceOnUse">
<stop stop-color="#FFD0CA"/>
<stop offset="0.0625" stop-color="#FFD0CA"/>
<stop offset="0.09375" stop-color="#FFD0CA"/>
<stop offset="0.125" stop-color="#FFCFC9"/>
<stop offset="0.15625" stop-color="#FFCEC8"/>
<stop offset="0.1875" stop-color="#FFCDC7"/>
<stop offset="0.21875" stop-color="#FFCCC6"/>
<stop offset="0.25" stop-color="#FFCBC5"/>
<stop offset="0.28125" stop-color="#FFCBC4"/>
<stop offset="0.3125" stop-color="#FFCAC3"/>
<stop offset="0.34375" stop-color="#FFC9C2"/>
<stop offset="0.375" stop-color="#FFC8C1"/>
<stop offset="0.40625" stop-color="#FFC7C0"/>
<stop offset="0.4375" stop-color="#FFC6BF"/>
<stop offset="0.46875" stop-color="#FFC5BE"/>
<stop offset="0.5" stop-color="#FFC5BD"/>
<stop offset="0.53125" stop-color="#FFC4BC"/>
<stop offset="0.5625" stop-color="#FFC3BB"/>
<stop offset="0.59375" stop-color="#FFC2BA"/>
<stop offset="0.625" stop-color="#FFC1B9"/>
<stop offset="0.65625" stop-color="#FFC0B9"/>
<stop offset="0.6875" stop-color="#FFBFB8"/>
<stop offset="0.71875" stop-color="#FFBEB7"/>
<stop offset="0.75" stop-color="#FFBEB6"/>
<stop offset="1" stop-color="#FFBEB6"/>
</linearGradient>
<linearGradient id="paint6_linear_16022_5381" x1="198.311" y1="145.874" x2="178.579" y2="161.175" gradientUnits="userSpaceOnUse">
<stop stop-color="#FFD0CA"/>
<stop offset="0.0625" stop-color="#FFD0CA"/>
<stop offset="0.09375" stop-color="#FFD0CA"/>
<stop offset="0.125" stop-color="#FFCFC9"/>
<stop offset="0.15625" stop-color="#FFCEC8"/>
<stop offset="0.1875" stop-color="#FFCDC7"/>
<stop offset="0.21875" stop-color="#FFCCC6"/>
<stop offset="0.25" stop-color="#FFCBC5"/>
<stop offset="0.28125" stop-color="#FFCBC4"/>
<stop offset="0.3125" stop-color="#FFCAC3"/>
<stop offset="0.34375" stop-color="#FFC9C2"/>
<stop offset="0.375" stop-color="#FFC8C1"/>
<stop offset="0.40625" stop-color="#FFC7C0"/>
<stop offset="0.4375" stop-color="#FFC6BF"/>
<stop offset="0.46875" stop-color="#FFC5BE"/>
<stop offset="0.5" stop-color="#FFC5BD"/>
<stop offset="0.53125" stop-color="#FFC4BC"/>
<stop offset="0.5625" stop-color="#FFC3BB"/>
<stop offset="0.59375" stop-color="#FFC2BA"/>
<stop offset="0.625" stop-color="#FFC1B9"/>
<stop offset="0.65625" stop-color="#FFC0B9"/>
<stop offset="0.6875" stop-color="#FFBFB8"/>
<stop offset="0.71875" stop-color="#FFBEB7"/>
<stop offset="0.75" stop-color="#FFBEB6"/>
<stop offset="1" stop-color="#FFBEB6"/>
</linearGradient>
<linearGradient id="paint7_linear_16022_5381" x1="138.792" y1="115.951" x2="159.07" y2="173.895" gradientUnits="userSpaceOnUse">
<stop stop-color="#A1C3FC"/>
<stop offset="0.25" stop-color="#A1C3FC"/>
<stop offset="0.375" stop-color="#A1C3FC"/>
<stop offset="0.4375" stop-color="#A1C3FC"/>
<stop offset="0.46875" stop-color="#A1C3FC"/>
<stop offset="0.476562" stop-color="#A1C3FC"/>
<stop offset="0.484375" stop-color="#A0C2FB"/>
<stop offset="0.492188" stop-color="#A0C2FB"/>
<stop offset="0.5" stop-color="#9FC2FA"/>
<stop offset="0.507812" stop-color="#9FC1FA"/>
<stop offset="0.515625" stop-color="#9EC1F9"/>
<stop offset="0.523438" stop-color="#9EC1F9"/>
<stop offset="0.53125" stop-color="#9DC0F8"/>
<stop offset="0.539063" stop-color="#9DC0F8"/>
<stop offset="0.546875" stop-color="#9CC0F7"/>
<stop offset="0.554688" stop-color="#9CBFF7"/>
<stop offset="0.5625" stop-color="#9BBFF6"/>
<stop offset="0.570313" stop-color="#9BBEF6"/>
<stop offset="0.578125" stop-color="#9ABEF5"/>
<stop offset="0.585938" stop-color="#9ABEF5"/>
<stop offset="0.59375" stop-color="#99BDF4"/>
<stop offset="0.601563" stop-color="#99BDF4"/>
<stop offset="0.609375" stop-color="#98BDF3"/>
<stop offset="0.617188" stop-color="#98BCF3"/>
<stop offset="0.625" stop-color="#97BCF2"/>
<stop offset="0.632812" stop-color="#97BCF2"/>
<stop offset="0.640625" stop-color="#96BBF1"/>
<stop offset="0.648438" stop-color="#96BBF1"/>
<stop offset="0.65625" stop-color="#95BAF0"/>
<stop offset="0.664062" stop-color="#95BAF0"/>
<stop offset="0.671875" stop-color="#94BAEF"/>
<stop offset="0.679688" stop-color="#94B9EF"/>
<stop offset="0.6875" stop-color="#93B9EE"/>
<stop offset="0.695312" stop-color="#93B9EE"/>
<stop offset="0.703125" stop-color="#92B8ED"/>
<stop offset="0.710938" stop-color="#92B8ED"/>
<stop offset="0.71875" stop-color="#91B7ED"/>
<stop offset="0.726562" stop-color="#91B7EC"/>
<stop offset="0.734375" stop-color="#90B7EC"/>
<stop offset="0.742188" stop-color="#90B6EB"/>
<stop offset="0.75" stop-color="#8FB6EB"/>
<stop offset="0.757813" stop-color="#8FB6EA"/>
<stop offset="0.765625" stop-color="#8EB5EA"/>
<stop offset="0.773438" stop-color="#8EB5E9"/>
<stop offset="0.78125" stop-color="#8DB5E9"/>
<stop offset="0.789063" stop-color="#8DB4E8"/>
<stop offset="0.796875" stop-color="#8CB4E8"/>
<stop offset="0.804688" stop-color="#8CB3E7"/>
<stop offset="0.8125" stop-color="#8BB3E7"/>
<stop offset="0.820313" stop-color="#8BB3E6"/>
<stop offset="0.828125" stop-color="#8AB2E6"/>
<stop offset="0.835938" stop-color="#8AB2E5"/>
<stop offset="0.84375" stop-color="#89B2E5"/>
<stop offset="0.851562" stop-color="#89B1E4"/>
<stop offset="0.859375" stop-color="#88B1E4"/>
<stop offset="0.867188" stop-color="#88B1E3"/>
<stop offset="0.875" stop-color="#87B0E3"/>
<stop offset="0.882812" stop-color="#87B0E2"/>
<stop offset="0.890625" stop-color="#86AFE2"/>
<stop offset="0.898438" stop-color="#86AFE1"/>
<stop offset="0.90625" stop-color="#85AFE1"/>
<stop offset="0.914063" stop-color="#85AEE0"/>
<stop offset="0.921875" stop-color="#84AEE0"/>
<stop offset="0.929688" stop-color="#84AEDF"/>
<stop offset="0.9375" stop-color="#83ADDF"/>
<stop offset="0.945313" stop-color="#83ADDE"/>
<stop offset="0.953125" stop-color="#82ACDE"/>
<stop offset="0.960938" stop-color="#82ACDD"/>
<stop offset="0.96875" stop-color="#81ACDD"/>
<stop offset="0.976562" stop-color="#81ABDC"/>
<stop offset="0.984375" stop-color="#80ABDC"/>
<stop offset="0.992188" stop-color="#80ABDB"/>
<stop offset="1" stop-color="#7FAADB"/>
</linearGradient>
</defs>
</svg>
