<svg width="268" height="156" viewBox="0 0 268 156" fill="none" xmlns="http://www.w3.org/2000/svg">
<path d="M267.205 91.5871C269.807 82.9965 265.869 73.4867 257.639 68.6223C240.698 58.6176 222.421 49.9916 202.652 42.8858C193.39 39.5557 183.223 42.8222 178.422 50.7128C168.509 66.9607 160.526 83.9934 154.446 101.79C151.476 110.493 155.464 120.286 163.871 125.32C170.489 129.287 177.361 132.999 184.474 136.477C183.258 143.661 181.886 153.871 183.654 155.044C185.245 156.105 192.838 149.14 198.954 143.067C205.417 145.81 212.063 148.377 218.886 150.76C227.922 153.92 237.764 150.873 242.692 143.364C253.453 126.968 261.719 109.737 267.219 91.5941L267.205 91.5871Z" fill="#FFD10C"/>
<path d="M92.275 46.2092C88.0257 38.2974 78.5089 34.3521 69.2395 36.7136C50.1705 41.5922 31.1298 48.394 12.1174 57.3169C3.20157 61.5026 -1.66997 70.977 0.521868 79.9423C5.02574 98.4315 11.4598 116.108 19.7676 132.985C23.8331 141.236 33.5903 145.344 43.1072 142.975C50.5948 141.109 58.0824 138.882 65.577 136.322C69.8122 142.254 76.0696 150.449 78.1483 150.032C80.029 149.664 80.4533 139.376 80.4815 130.772C86.9934 128.149 93.5124 125.278 100.024 122.146C108.65 118.01 113.451 108.91 111.613 100.121C107.604 80.9321 101.233 62.9167 92.268 46.2092H92.275Z" fill="#17A3D0"/>
<path d="M188.206 21.4202C186.721 11.2812 178.039 3.34109 167.157 2.30174C144.779 0.145249 121.68 0.0674753 97.7893 2.28052C86.5826 3.31281 77.6668 11.6064 76.5214 22.0848C74.1669 43.6921 74.1882 65.1651 76.5426 86.5107C77.7022 96.9467 86.5685 105.141 97.7186 106.287C106.486 107.185 115.402 107.701 124.445 107.856C126.679 115.874 130.214 127.109 132.611 127.463C134.775 127.788 139.236 116.907 142.623 107.673C150.634 107.383 158.751 106.824 166.967 105.99C177.848 104.887 186.545 96.975 187.994 86.8289C191.155 64.6631 191.331 42.8507 188.206 21.4202Z" fill="#EA3E43"/>
<path d="M92.2754 46.2091C88.9665 40.0295 82.4404 36.2963 75.3346 36.063C74.2953 52.9614 74.6983 69.7819 76.5437 86.5247C77.7032 96.9607 86.5696 105.155 97.7197 106.301C102.337 106.782 106.989 107.135 111.677 107.404C112.129 105.028 112.129 102.568 111.62 100.128C107.611 80.9391 101.241 62.9236 92.2754 46.2091Z" fill="#7659E2"/>
<path d="M153.477 107.122C157.953 106.825 162.443 106.457 166.975 105.998C177.856 104.895 186.553 96.9828 188.002 86.8367C190.152 71.7978 190.915 56.9145 190.215 42.208C185.351 43.4171 181.066 46.3584 178.422 50.7138C168.509 66.9616 160.527 83.9944 154.446 101.791C153.852 103.544 153.541 105.333 153.484 107.122H153.477Z" fill="#FF592C"/>
<path d="M138.036 81.9511L138.099 82.6864C138.375 85.755 136.113 88.4488 133.037 88.7246L132.429 88.7741C129.36 89.0498 126.652 86.7873 126.384 83.7258L126.313 82.9904C126.044 79.9219 128.307 77.228 131.375 76.9523L131.983 76.9028C135.052 76.627 137.76 78.8896 138.036 81.9511ZM154.043 25.0481C152.544 22.5805 150.664 20.5938 148.401 19.0736C146.138 17.5535 143.671 16.5212 140.998 15.9909C138.326 15.4535 135.646 15.3051 132.973 15.5384C129.742 15.8283 126.723 16.6272 123.93 17.9353C120.303 19.6392 117.114 22.227 114.788 25.6703C112.964 28.3642 113.819 32.0408 116.655 33.6529L117.44 34.0912C119.851 35.4488 122.877 34.8266 124.574 32.6559C125.832 31.0439 127.253 29.453 128.25 28.8025C129.763 27.8197 131.531 27.2329 133.574 27.0561C135.335 26.9006 136.996 27.1056 138.58 27.6642C140.157 28.2228 141.472 29.1419 142.547 30.4075C143.621 31.6873 144.237 33.2498 144.399 35.1306C144.569 37.0113 144.222 38.8426 143.332 40.4263C142.441 42.0172 141.302 43.4101 139.924 44.6191C138.545 45.8282 137.11 46.917 135.639 47.8857C134.168 48.8614 132.896 49.7098 131.821 50.431C129.686 51.9512 128.059 53.5986 126.942 55.3874C126.221 56.5399 125.662 58.3429 125.288 60.2589C124.574 63.9002 127.564 67.2021 131.262 66.8698L131.8 66.8203C134.105 66.6153 135.999 64.9961 136.671 62.7831C137.484 60.1105 139.499 58.1378 141.988 56.4409C143.763 55.2319 145.509 53.9875 147.241 52.7148C148.769 51.5269 150.19 50.3108 151.491 49.0664C152.799 47.8291 153.888 46.4716 154.75 44.9939C155.613 43.5161 156.207 41.897 156.553 40.1506C156.893 38.3971 156.963 36.4457 156.772 34.2821C156.447 30.5914 155.528 27.5157 154.036 25.0411L154.043 25.0481Z" fill="white"/>
<path d="M206.498 122.937L206.335 123.545C205.657 126.112 203.019 127.646 200.446 126.968L199.937 126.826C197.37 126.147 195.836 123.517 196.515 120.951L196.677 120.335C197.356 117.776 199.993 116.242 202.574 116.92L203.076 117.055C205.642 117.734 207.177 120.364 206.498 122.937ZM236.272 81.4268C235.784 78.9875 234.843 76.8169 233.458 74.9149C232.072 73.0201 230.368 71.4575 228.353 70.2414C226.345 69.0182 224.217 68.1132 221.968 67.5192C219.26 66.7981 216.573 66.5647 213.922 66.8051C210.479 67.1233 207.127 68.2899 204.221 70.404C201.945 72.0585 201.549 75.2897 203.387 77.432L203.896 78.0259C205.445 79.836 208.089 80.2178 210.111 78.9522C211.603 78.0189 213.229 77.1421 214.226 76.9088C215.746 76.5553 217.358 76.5977 219.069 77.0502C220.547 77.432 221.834 78.0896 222.951 79.0087C224.068 79.9208 224.867 81.0592 225.362 82.4096C225.857 83.7601 225.892 85.2166 225.482 86.7862C225.044 88.4195 224.238 89.7487 223.043 90.7669C221.855 91.7921 220.526 92.5981 219.048 93.1708C217.57 93.7506 216.086 94.2102 214.601 94.5708C213.123 94.9243 211.836 95.2425 210.754 95.5111C208.57 96.1121 206.767 96.9818 205.331 98.0989C204.405 98.813 203.422 100.121 202.553 101.571C200.898 104.307 202.355 107.87 205.452 108.69L205.904 108.811C207.841 109.32 209.849 108.563 211.044 106.965C212.494 105.035 214.721 104.024 217.231 103.381C219.027 102.921 220.816 102.426 222.604 101.896C224.195 101.38 225.701 100.807 227.13 100.185C228.558 99.5625 229.845 98.7777 230.976 97.8302C232.114 96.8828 233.076 95.7515 233.875 94.4294C234.667 93.1001 235.303 91.5375 235.784 89.7346C236.604 86.6377 236.774 83.8732 236.286 81.4268H236.272Z" fill="white"/>
<path d="M64.7355 112.614L64.99 113.194C66.0294 115.633 64.884 118.468 62.4376 119.501L61.9568 119.706C59.5104 120.745 56.6752 119.607 55.6358 117.16L55.3813 116.581C54.3419 114.134 55.4873 111.306 57.9337 110.274L58.4145 110.069C60.8609 109.029 63.6961 110.168 64.7355 112.614ZM62.7204 61.6007C60.8255 59.9745 58.7539 58.8362 56.4913 58.1928C54.2288 57.5423 51.9238 57.3585 49.5835 57.6201C47.2503 57.8887 45.0089 58.4756 42.8737 59.3877C40.2929 60.4765 38.0304 61.933 36.086 63.7501C33.5619 66.1117 31.6317 69.0813 30.6418 72.5316C29.857 75.2326 31.5397 78.0324 34.3043 78.591L35.0679 78.7536C37.4011 79.2274 39.7202 77.9193 40.5404 75.678C41.1414 74.0235 41.8838 72.3337 42.5272 71.5418C43.51 70.3327 44.8039 69.3853 46.4372 68.6924C47.8371 68.0914 49.2653 67.8227 50.7077 67.8651C52.1501 67.9005 53.4793 68.3106 54.7025 69.0742C55.9186 69.8307 56.8519 70.962 57.4883 72.4539C58.1317 73.9457 58.3297 75.5578 58.0185 77.085C57.7145 78.6264 57.1489 80.0758 56.3429 81.4333C55.5298 82.7909 54.6459 84.0706 53.6914 85.2584C52.7369 86.4463 51.9168 87.4856 51.2309 88.3694C49.8805 90.1865 48.9896 91.9683 48.5371 93.7359C48.2543 94.8742 48.2825 96.5005 48.4805 98.1832C48.8553 101.358 52.1925 103.281 55.1479 102.03L55.5722 101.846C57.4176 101.068 58.5347 99.2367 58.5064 97.2358C58.4569 94.8248 59.5953 92.6683 61.179 90.6108C62.3174 89.1472 63.4274 87.6624 64.5092 86.1493C65.4425 84.7706 66.2839 83.3989 67.0263 82.0272C67.7758 80.6627 68.299 79.2486 68.6101 77.8062C68.9282 76.3638 68.9848 74.879 68.801 73.3447C68.6101 71.8175 68.1576 70.1913 67.4222 68.4661C66.1708 65.5248 64.6011 63.234 62.7133 61.6007H62.7204Z" fill="white"/>
</svg>
