<svg width="282" height="310" viewBox="0 0 282 310" fill="none" xmlns="http://www.w3.org/2000/svg">
<path d="M140.947 160.756C121.226 160.756 101.5 160.787 81.7792 160.742C71.6935 160.719 63.2993 153.83 61.2758 143.986C60.9439 142.358 60.812 140.662 60.812 138.997C60.7893 100.019 60.7802 61.04 60.7984 22.0569C60.8029 9.62483 69.9792 0.430386 82.434 0.425839C121.463 0.398556 160.491 0.403103 199.515 0.425839C211.984 0.430386 221.169 9.53843 221.183 22.016C221.224 61.0991 221.219 100.182 221.183 139.27C221.174 150.424 213.921 158.828 202.926 160.587C201.643 160.792 200.32 160.751 199.015 160.756C179.658 160.765 160.3 160.76 140.943 160.76L140.947 160.756ZM140.947 152.612C160.459 152.612 179.971 152.621 199.483 152.612C207.55 152.607 213.048 147.187 213.052 139.17C213.071 100.141 213.071 61.1128 213.052 22.0842C213.052 14.0538 207.573 8.58352 199.515 8.57897C160.541 8.55624 121.567 8.56078 82.5977 8.60625C80.8515 8.60625 79.0099 8.8609 77.382 9.45658C71.9436 11.4483 68.9333 16.0909 68.9333 22.1296C68.9333 60.8991 69.0243 99.664 68.8606 138.433C68.8242 146.85 74.9902 152.821 83.1933 152.707C102.442 152.434 121.694 152.621 140.947 152.621V152.612Z" fill="#3084C2"/>
<path d="M112.227 98.1133V100.928C112.227 111.655 112.227 122.382 112.227 133.109C112.227 133.686 112.245 134.264 112.2 134.832C112.009 137.142 110.267 138.806 108.103 138.774C105.984 138.743 104.324 137.128 104.115 134.887C104.101 134.732 104.092 134.573 104.092 134.418C104.092 117.048 104.074 99.673 104.106 82.3027C104.11 79.0515 107.28 77.0007 109.967 78.5285C110.899 79.056 111.659 80.0791 112.218 81.0386C118.066 91.0743 123.854 101.142 129.666 111.196C131.971 115.179 134.24 119.185 136.627 123.123C138.719 126.574 141.429 129.366 145.622 130.121C147.709 130.498 149.837 130.658 152.374 130.971C151.76 130.139 151.369 129.685 151.06 129.18C147.441 123.305 143.703 117.503 140.247 111.537C128.174 90.7196 116.206 69.8479 104.183 48.999C102.278 45.6932 98.9538 44.2335 95.7344 45.1657C93.2243 45.8933 91.701 47.5394 91.2099 50.0676C90.9825 51.2362 90.9371 52.4594 90.9371 53.6553C90.9234 80.1292 90.928 106.608 90.9234 133.081C90.9234 133.759 90.9462 134.445 90.8689 135.118C90.637 137.178 89.0045 138.697 86.9946 138.774C85.0121 138.852 83.2705 137.428 82.8976 135.378C82.7976 134.818 82.7885 134.232 82.7885 133.659C82.7839 106.762 82.7885 79.87 82.7839 52.9733C82.7839 48.8808 83.657 45.0566 86.3808 41.8735C92.4877 34.7344 103.733 35.08 109.567 42.5738C110.304 43.5196 110.995 44.52 111.595 45.5568C125.655 69.8752 139.701 94.2073 153.757 118.53C154.28 119.435 154.843 120.317 155.398 121.204C159.441 127.634 165.261 130.74 172.855 130.676C179.917 130.612 186.983 130.662 194.045 130.671C194.668 130.671 195.309 130.676 195.914 130.803C197.933 131.226 199.251 132.868 199.197 134.818C199.147 136.805 197.628 138.461 195.582 138.747C195.273 138.793 194.954 138.784 194.641 138.784C180.253 138.87 165.87 139.006 151.483 139.002C148.577 139.002 145.654 138.583 142.771 138.151C138.755 137.556 135.545 135.428 133.117 132.24C131.444 130.039 129.875 127.734 128.479 125.347C123.459 116.771 118.529 108.135 113.559 99.5275C113.259 99.0046 112.927 98.4953 112.614 97.9815C112.482 98.0269 112.354 98.0724 112.223 98.1179L112.227 98.1133Z" fill="#3794D9"/>
<path d="M169.772 63.1044C169.772 62.5133 169.772 61.9176 169.772 61.3265C169.772 49.9176 169.767 38.5086 169.776 27.0997C169.776 24.235 171.454 22.4297 173.974 22.4979C175.965 22.548 177.57 23.9621 177.848 25.9356C177.921 26.4495 177.911 26.9815 177.911 27.5044C177.911 44.3563 177.911 61.2037 177.911 78.0556C177.911 78.5786 177.921 79.106 177.857 79.6244C177.648 81.316 176.479 82.6256 174.819 83.0394C173.114 83.4668 171.686 82.953 170.663 81.5615C169.954 80.5975 169.399 79.5198 168.794 78.474C161.651 66.1056 154.521 53.7281 147.35 41.3734C146.222 39.4317 145.017 37.5173 143.671 35.7212C140.251 31.1694 135.309 30.4237 129.852 30.451C130.17 30.9239 130.398 31.2331 130.598 31.5605C133.931 36.9944 137.373 42.3692 140.574 47.8804C152.393 68.2428 164.124 88.6552 175.902 109.045C176.738 110.491 177.593 111.932 178.566 113.283C179.671 114.815 181.194 115.829 183.082 116.179C187.279 116.952 190.544 114.406 191.003 110.004C191.098 109.072 191.071 108.122 191.071 107.18C191.071 80.8567 191.071 54.533 191.071 28.2138C191.071 27.5863 191.048 26.9542 191.094 26.3312C191.257 24.1122 192.926 22.5252 195.095 22.4979C197.269 22.4707 198.974 24.0212 199.183 26.2357C199.229 26.7041 199.215 27.177 199.215 27.6454C199.215 54.3875 199.21 81.1296 199.224 107.867C199.224 110.782 198.869 113.606 197.574 116.257C193.026 125.574 180.662 127.384 173.428 119.74C172.291 118.535 171.304 117.139 170.472 115.702C157.122 92.6613 143.807 69.5979 130.475 46.5435C129.297 44.5064 128.056 42.5011 126.851 40.4821C122.786 33.675 116.806 30.4328 108.867 30.5601C101.75 30.6738 94.634 30.5965 87.5176 30.5738C84.9757 30.5647 83.5024 29.5552 82.9613 27.559C82.3247 25.2035 83.7661 22.9572 86.1807 22.557C86.6945 22.4707 87.222 22.4388 87.7404 22.4388C102.546 22.3843 117.356 22.2296 132.162 22.3706C135.604 22.4024 139.137 23.0891 142.443 24.0895C146.308 25.2581 148.85 28.3911 150.874 31.7424C155.444 39.3089 159.868 46.9664 164.338 54.5921C165.766 57.0294 167.166 59.4849 168.585 61.9267C168.835 62.3542 169.122 62.7589 169.39 63.1726C169.513 63.1454 169.635 63.1181 169.758 63.0953L169.772 63.1044Z" fill="#5BB5EF"/>
<path d="M228.572 210.594C228.572 210.044 228.572 209.494 228.572 208.939C228.572 203.55 228.563 198.167 228.581 192.778C228.586 191.018 229.409 190.036 230.85 189.954C232.455 189.863 233.429 190.882 233.438 192.765C233.46 197.366 233.447 201.968 233.447 206.57C233.447 209.971 233.429 213.368 233.456 216.769C233.469 218.206 233.087 219.434 231.628 219.893C230.2 220.339 229.022 219.857 228.058 218.624C223.42 212.695 218.741 206.797 214.071 200.89C213.762 200.499 213.421 200.126 212.711 199.835C212.711 202.409 212.702 204.983 212.711 207.557C212.725 210.953 212.775 214.355 212.752 217.751C212.743 219.397 211.87 220.289 210.429 220.325C208.896 220.366 207.882 219.47 207.873 217.801C207.823 209.485 207.823 201.172 207.837 192.855C207.837 191.555 208.583 190.7 209.815 190.332C211.152 189.932 212.116 190.523 212.934 191.564C217.336 197.148 221.751 202.723 226.167 208.298C226.808 209.112 227.467 209.912 228.117 210.717C228.272 210.676 228.422 210.635 228.577 210.594H228.572Z" fill="#003B66"/>
<path d="M53.4686 199.949C53.4686 202.45 53.4641 204.947 53.4686 207.447C53.4777 210.794 53.5095 214.141 53.5004 217.483C53.4959 219.361 52.6819 220.302 51.1222 220.33C49.4762 220.357 48.644 219.42 48.6349 217.447C48.5985 209.498 48.594 201.554 48.544 193.606C48.5349 192.105 48.9078 190.891 50.4356 190.364C51.9999 189.827 52.9821 190.691 53.8869 191.842C58.5433 197.757 63.2269 203.651 67.9014 209.548C68.2379 209.971 68.5971 210.376 69.2428 211.14C69.2883 210.112 69.3338 209.566 69.3338 209.016C69.3383 203.578 69.3247 198.139 69.3429 192.701C69.352 190.564 71.0481 189.222 72.6896 190.186C73.3944 190.6 74.0811 191.719 74.0947 192.528C74.1947 200.736 74.1538 208.944 74.1584 217.156C74.1584 218.438 73.6673 219.457 72.435 219.861C71.0072 220.334 69.8113 219.911 68.8472 218.679C64.6911 213.368 60.4986 208.089 56.3152 202.796C55.5194 201.786 54.7145 200.786 53.9142 199.781C53.7642 199.835 53.6187 199.885 53.4686 199.94V199.949Z" fill="#003B66"/>
<path d="M136.396 208.775C137.783 211.458 139.238 214.055 140.438 216.76C140.77 217.51 140.634 218.779 140.183 219.466C139.824 220.016 138.624 220.343 137.883 220.23C137.21 220.125 136.45 219.397 136.082 218.747C134.618 216.155 133.258 213.5 131.93 210.831C131.498 209.962 130.966 209.603 129.993 209.657C128.597 209.735 127.192 209.676 125.542 209.676C125.542 212.463 125.56 215.109 125.537 217.756C125.519 219.438 124.732 220.293 123.259 220.33C121.626 220.371 120.767 219.484 120.762 217.642C120.744 212.154 120.758 206.661 120.753 201.172C120.753 198.558 120.744 195.943 120.753 193.328C120.767 191.141 121.617 190.273 123.773 190.259C126.437 190.241 129.107 190.25 131.771 190.259C136.086 190.268 139.611 192.765 140.975 196.762C142.334 200.74 141.025 205.169 137.723 207.752C137.319 208.066 136.91 208.375 136.391 208.771L136.396 208.775ZM125.551 204.787C125.914 204.887 126.06 204.965 126.21 204.965C128.088 204.978 129.966 205.019 131.839 204.974C134.695 204.901 136.487 203.091 136.618 200.24C136.755 197.316 135.091 195.256 132.199 195.02C130.334 194.865 128.443 194.924 126.574 195.02C126.219 195.038 125.605 195.638 125.596 195.979C125.519 198.89 125.551 201.804 125.551 204.796V204.787Z" fill="#003B66"/>
<path d="M159.05 215.319C162.565 215.319 165.68 215.319 168.799 215.319C170.159 215.319 171.519 215.278 172.878 215.337C174.283 215.4 175.243 216.469 175.197 217.788C175.156 219.066 174.233 220.002 172.851 220.007C166.735 220.03 160.614 220.07 154.498 219.948C153.707 219.93 152.529 219.147 152.261 218.438C151.956 217.642 152.175 216.305 152.698 215.596C155.835 211.353 159.132 207.225 162.374 203.05C164.357 200.499 166.33 197.944 168.563 195.061C167.699 195.011 167.176 194.956 166.649 194.956C163.302 194.947 159.955 194.961 156.608 194.947C154.798 194.938 153.739 194.024 153.766 192.551C153.794 191.137 154.826 190.259 156.549 190.259C161.933 190.245 167.321 190.268 172.705 190.245C173.91 190.241 174.888 190.591 175.438 191.696C176.016 192.86 175.684 193.906 174.911 194.893C170.15 200.995 165.407 207.106 160.66 213.218C160.214 213.791 159.773 214.368 159.046 215.314L159.05 215.319Z" fill="#003B66"/>
<path d="M110.213 217.601C110.254 219.134 109.722 220.002 108.558 220.271C107.344 220.552 106.23 220.261 105.675 218.993C104.943 217.319 104.225 215.632 103.606 213.914C103.238 212.895 102.751 212.427 101.578 212.468C98.8088 212.563 96.035 212.549 93.2658 212.472C92.1836 212.44 91.6697 212.831 91.3241 213.818C90.7739 215.396 90.1146 216.937 89.4643 218.474C88.755 220.152 87.5863 220.743 86.1358 220.225C84.8035 219.748 84.276 218.347 84.9444 216.66C87.2726 210.781 89.6462 204.919 92.0017 199.053C92.8975 196.821 93.8069 194.597 94.6936 192.36C95.1984 191.082 96.0032 190.254 97.4856 190.259C98.9771 190.264 99.7319 191.146 100.241 192.41C103.433 200.363 106.635 208.316 109.822 216.269C110.031 216.796 110.15 217.36 110.218 217.597L110.213 217.601ZM97.6675 199.24C97.5174 199.244 97.3674 199.253 97.2173 199.258C96.1033 202.027 94.9892 204.796 93.8251 207.698H101.087C99.9002 204.765 98.7861 202 97.6675 199.235V199.24Z" fill="#003B66"/>
<path d="M194.414 215.187C195.014 215.296 195.505 215.31 195.928 215.478C197.01 215.914 197.61 216.751 197.469 217.933C197.333 219.093 196.66 219.943 195.455 219.98C193.049 220.061 190.639 220.057 188.239 219.98C187.024 219.939 186.365 219.066 186.242 217.915C186.115 216.737 186.733 215.901 187.811 215.464C188.234 215.291 188.725 215.291 189.348 215.187C189.38 214.714 189.448 214.218 189.448 213.718C189.457 208.016 189.439 202.314 189.466 196.612C189.471 195.616 189.407 194.984 188.125 194.861C186.815 194.738 186.142 193.706 186.256 192.387C186.365 191.146 187.138 190.327 188.402 190.286C190.703 190.214 193.009 190.209 195.305 190.286C196.642 190.332 197.415 191.205 197.474 192.528C197.533 193.783 196.846 194.656 195.614 194.879C194.814 195.025 194.264 195.097 194.268 196.139C194.309 202.259 194.291 208.38 194.3 214.5C194.3 214.7 194.364 214.905 194.414 215.178V215.187Z" fill="#003B66"/>
<path d="M29.135 285.247C28.351 285.247 27.959 284.847 27.959 284.047C27.959 283.263 28.351 282.871 29.135 282.871C29.903 282.871 30.287 283.263 30.287 284.047C30.287 284.847 29.903 285.247 29.135 285.247ZM32.183 285.247C31.399 285.247 31.007 284.847 31.007 284.047C31.007 283.263 31.399 282.871 32.183 282.871C32.951 282.871 33.335 283.263 33.335 284.047C33.335 284.847 32.951 285.247 32.183 285.247ZM41.807 294.463H42.911V296.407H41.567C40.223 296.407 39.175 295.991 38.423 295.159C37.671 295.991 36.623 296.407 35.279 296.407H26.711C25.415 296.407 24.399 295.975 23.663 295.111C23.023 294.359 22.703 293.375 22.703 292.159V289.255L24.767 288.151V291.967C24.767 293.631 25.543 294.463 27.095 294.463H35.063C36.615 294.463 37.391 293.631 37.391 291.967V287.095L39.455 285.991V292.063C39.455 293.663 40.239 294.463 41.807 294.463ZM46.0392 283.087C45.2552 283.087 44.8632 282.687 44.8632 281.887C44.8632 281.103 45.2552 280.711 46.0392 280.711C46.8072 280.711 47.1912 281.103 47.1912 281.887C47.1912 282.687 46.8072 283.087 46.0392 283.087ZM49.8312 294.463H51.4152V296.407H49.5912C48.2632 296.407 47.2152 295.983 46.4472 295.135C45.6792 295.983 44.6312 296.407 43.3032 296.407H41.4792V294.463H43.0632C44.6312 294.463 45.4152 293.663 45.4152 292.063V287.095L47.4792 285.991V292.063C47.4792 293.663 48.2632 294.463 49.8312 294.463ZM54.6916 286.255C54.7076 286.255 54.7316 286.255 54.7636 286.255C54.7956 286.255 54.8196 286.255 54.8356 286.255C56.6436 286.255 58.1076 286.815 59.2276 287.935C60.2516 288.943 60.7636 290.231 60.7636 291.799V292.207C60.7636 293.583 60.3396 294.655 59.4916 295.423C58.7396 296.079 57.7716 296.407 56.5876 296.407H49.9636V294.463H56.3956C57.9316 294.463 58.6996 293.655 58.6996 292.039V291.823C58.6996 290.639 58.2356 289.727 57.3076 289.087C56.5716 288.591 55.6756 288.343 54.6196 288.343C53.7716 288.343 52.9156 288.495 52.0516 288.799V286.759L57.3076 280.927H59.4196L54.6916 286.255ZM74.1524 296.407C72.7604 296.407 71.6884 295.959 70.9364 295.063C70.2964 294.295 69.9764 293.319 69.9764 292.135V282.031L72.0404 280.927V292.063C72.0404 293.663 72.8244 294.463 74.3924 294.463H75.9764V296.407H74.1524ZM89.9821 294.463H91.5901V296.407H89.7661C88.4381 296.407 87.3901 295.983 86.6221 295.135C85.8061 296.303 84.6141 296.887 83.0461 296.887C81.4781 296.887 80.2941 296.311 79.4941 295.159C78.7421 295.991 77.6941 296.407 76.3501 296.407H74.5261V294.463H76.1101C77.6781 294.463 78.4621 293.663 78.4621 292.063V291.271C78.4621 289.415 78.9181 287.991 79.8301 286.999C80.6301 286.119 81.7021 285.679 83.0461 285.679C84.5821 285.679 85.7661 286.247 86.5981 287.383C87.3021 288.359 87.6541 289.655 87.6541 291.271V292.063C87.6541 293.663 88.4301 294.463 89.9821 294.463ZM83.0461 294.943C83.8301 294.943 84.4461 294.615 84.8941 293.959C85.3581 293.303 85.5901 292.399 85.5901 291.247C85.5901 288.815 84.7421 287.599 83.0461 287.599C81.3661 287.599 80.5261 288.815 80.5261 291.247C80.5261 293.711 81.3661 294.943 83.0461 294.943ZM94.7189 283.087C93.9349 283.087 93.5429 282.687 93.5429 281.887C93.5429 281.103 93.9349 280.711 94.7189 280.711C95.4869 280.711 95.8709 281.103 95.8709 281.887C95.8709 282.687 95.4869 283.087 94.7189 283.087ZM98.5109 294.463H100.095V296.407H98.2709C96.9429 296.407 95.8949 295.983 95.1269 295.135C94.3589 295.983 93.3109 296.407 91.9829 296.407H90.1589V294.463H91.7429C93.3109 294.463 94.0949 293.663 94.0949 292.063V287.095L96.1589 285.991V292.063C96.1589 293.663 96.9429 294.463 98.5109 294.463ZM98.6433 296.407V294.463H100.227C101.795 294.463 102.579 293.663 102.579 292.063V287.095L104.643 285.991V292.135C104.643 293.495 104.235 294.567 103.419 295.351C102.667 296.055 101.683 296.407 100.467 296.407H98.6433ZM99.9153 301.183C99.1313 301.183 98.7393 300.783 98.7393 299.983C98.7393 299.199 99.1313 298.807 99.9153 298.807C100.683 298.807 101.067 299.199 101.067 299.983C101.067 300.783 100.683 301.183 99.9153 301.183ZM102.963 301.183C102.179 301.183 101.787 300.783 101.787 299.983C101.787 299.199 102.179 298.807 102.963 298.807C103.731 298.807 104.115 299.199 104.115 299.983C104.115 300.783 103.731 301.183 102.963 301.183ZM107.681 280.591L108.233 279.559H108.881C108.721 279.271 108.641 278.975 108.641 278.671C108.641 278.191 108.817 277.783 109.169 277.447C109.521 277.095 109.937 276.919 110.417 276.919C110.817 276.919 111.201 277.047 111.569 277.303V278.359C111.217 278.087 110.881 277.951 110.561 277.951C109.969 277.951 109.673 278.215 109.673 278.743C109.673 279.015 109.785 279.287 110.009 279.559H112.193L111.641 280.591H107.681ZM108.953 296.407V282.991L111.017 281.887V296.407H108.953ZM121.962 293.599C122.842 293.599 123.298 294.055 123.33 294.967C123.33 295.415 123.186 295.791 122.898 296.095C122.626 296.383 122.266 296.527 121.818 296.527C120.826 296.527 120.33 295.919 120.33 294.703V291.607L121.338 291.319L121.362 293.599H121.962ZM129.308 282.847C128.524 282.847 128.132 282.447 128.132 281.647C128.132 280.863 128.524 280.471 129.308 280.471C130.076 280.471 130.46 280.863 130.46 281.647C130.46 282.447 130.076 282.847 129.308 282.847ZM132.38 282.847C131.596 282.847 131.204 282.447 131.204 281.647C131.204 280.863 131.596 280.471 132.38 280.471C133.148 280.471 133.532 280.863 133.532 281.647C133.532 282.447 133.148 282.847 132.38 282.847ZM130.868 296.407C129.412 296.407 128.276 295.919 127.46 294.943C126.756 294.095 126.404 293.015 126.404 291.703C126.404 290.279 126.796 289.047 127.58 288.007C128.38 286.951 129.516 286.175 130.988 285.679C132.54 286.207 133.708 287.039 134.492 288.175C135.196 289.183 135.548 290.359 135.548 291.703C135.548 293.223 135.1 294.415 134.204 295.279C133.404 296.031 132.372 296.407 131.108 296.407H130.868ZM130.796 294.463H131.156C131.876 294.463 132.444 294.215 132.86 293.719C133.292 293.223 133.508 292.559 133.508 291.727C133.508 289.807 132.668 288.431 130.988 287.599C129.308 288.431 128.468 289.799 128.468 291.703C128.468 292.551 128.676 293.223 129.092 293.719C129.508 294.215 130.076 294.463 130.796 294.463ZM141.488 283.087C140.704 283.087 140.312 282.687 140.312 281.887C140.312 281.103 140.704 280.711 141.488 280.711C142.256 280.711 142.64 281.103 142.64 281.887C142.64 282.687 142.256 283.087 141.488 283.087ZM145.208 294.463H146.792V296.407H144.968C144.152 296.407 143.448 296.247 142.856 295.927C142.712 297.511 142.16 298.775 141.2 299.719C140.32 300.583 139.216 301.015 137.888 301.015C136.928 301.015 135.992 300.775 135.08 300.295V298.495C135.896 298.943 136.712 299.167 137.528 299.167C138.552 299.167 139.352 298.823 139.928 298.135C140.504 297.447 140.792 296.495 140.792 295.279V287.095L142.856 285.991V286.015L142.88 285.991V292.543C143.024 293.823 143.8 294.463 145.208 294.463ZM148.234 289.279C148.634 287.807 149.394 286.679 150.514 285.895C151.426 285.271 152.458 284.959 153.61 284.959C155.306 284.959 156.706 285.535 157.81 286.687C158.85 287.775 159.37 289.175 159.37 290.887V292.159C159.37 293.551 158.938 294.631 158.074 295.399C157.322 296.071 156.346 296.407 155.146 296.407H152.554C152.01 296.407 151.498 296.327 151.018 296.167C150.522 296.327 150.01 296.407 149.482 296.407H145.354V294.463H148.45C147.842 293.647 147.538 292.719 147.538 291.679C147.538 290.735 147.77 289.935 148.234 289.279ZM157.282 291.967V290.887C157.282 289.559 156.858 288.527 156.01 287.791C155.322 287.183 154.498 286.879 153.538 286.879C152.434 286.879 151.57 287.239 150.946 287.959H151.018C152.074 287.959 152.914 288.303 153.538 288.991C154.178 289.663 154.498 290.559 154.498 291.679C154.498 292.751 154.186 293.679 153.562 294.463H155.074C155.858 294.463 156.418 294.271 156.754 293.887C157.106 293.487 157.282 292.847 157.282 291.967ZM151.018 294.247C152.33 293.799 152.986 292.903 152.986 291.559C152.986 290.887 152.802 290.351 152.434 289.951C152.082 289.535 151.61 289.327 151.018 289.327C150.426 289.327 149.946 289.535 149.578 289.951C149.226 290.351 149.05 290.887 149.05 291.559C149.05 292.903 149.706 293.799 151.018 294.247ZM167.387 296.407C165.995 296.407 164.923 295.959 164.171 295.063C163.531 294.295 163.211 293.319 163.211 292.135V282.031L165.275 280.927V292.063C165.275 293.663 166.059 294.463 167.627 294.463H169.211V296.407H167.387ZM167.76 296.407V294.463H171.048C174.296 294.463 176.864 293.391 178.752 291.247C177.424 288.799 175.808 287.575 173.904 287.575C172.608 287.575 171.272 288.263 169.896 289.639V287.719C171.24 286.359 172.664 285.679 174.168 285.679C175.4 285.679 176.592 286.127 177.744 287.023C178.896 287.903 179.912 289.167 180.792 290.815V291.871C178.44 294.895 175.184 296.407 171.024 296.407H167.76ZM174.792 301.183C174.008 301.183 173.616 300.783 173.616 299.983C173.616 299.199 174.008 298.807 174.792 298.807C175.56 298.807 175.944 299.199 175.944 299.983C175.944 300.783 175.56 301.183 174.792 301.183ZM208.845 294.463H210.429V296.407H208.605C207.261 296.407 206.221 295.991 205.485 295.159C204.701 295.991 203.653 296.407 202.341 296.407H193.773C192.477 296.407 191.461 295.975 190.725 295.111C190.085 294.359 189.765 293.375 189.765 292.159V289.255L191.829 288.151V291.967C191.829 293.631 192.605 294.463 194.157 294.463H202.125C203.661 294.463 204.429 293.631 204.429 291.967V282.031L206.517 280.927V292.063C206.517 293.663 207.293 294.463 208.845 294.463ZM198.261 284.719C199.637 284.783 200.325 285.463 200.325 286.759C200.325 287.319 200.157 287.767 199.821 288.103C199.501 288.439 199.069 288.607 198.525 288.607H195.357L195.909 287.575H198.429C199.005 287.575 199.293 287.287 199.293 286.711C199.293 286.007 198.845 285.655 197.949 285.655C197.485 285.655 197.061 285.767 196.677 285.991V285.031L198.693 282.799H199.965L198.261 284.719ZM210.835 283.087C210.051 283.087 209.659 282.687 209.659 281.887C209.659 281.103 210.051 280.711 210.835 280.711C211.603 280.711 211.987 281.103 211.987 281.887C211.987 282.687 211.603 283.087 210.835 283.087ZM213.883 283.087C213.099 283.087 212.707 282.687 212.707 281.887C212.707 281.103 213.099 280.711 213.883 280.711C214.651 280.711 215.035 281.103 215.035 281.887C215.035 282.687 214.651 283.087 213.883 283.087ZM208.987 296.407V294.463H210.571C212.139 294.463 212.923 293.663 212.923 292.063V287.095L214.987 285.991V292.135C214.987 293.495 214.579 294.567 213.763 295.351C213.011 296.055 212.027 296.407 210.811 296.407H208.987ZM223.473 296.407C222.081 296.407 221.009 295.959 220.257 295.063C219.617 294.295 219.297 293.319 219.297 292.135V282.031L221.361 280.927V292.063C221.361 293.663 222.145 294.463 223.713 294.463H225.297V296.407H223.473ZM232.198 294.463H233.782V296.407H231.958C230.63 296.407 229.582 295.983 228.814 295.135C228.046 295.983 226.998 296.407 225.67 296.407H223.846V294.463H225.43C226.998 294.463 227.782 293.663 227.782 292.063V287.095L229.846 285.991V292.063C229.846 293.663 230.63 294.463 232.198 294.463ZM228.67 298.807C229.438 298.807 229.822 299.199 229.822 299.983C229.822 300.783 229.438 301.183 228.67 301.183C227.886 301.183 227.494 300.783 227.494 299.983C227.494 299.199 227.886 298.807 228.67 298.807ZM240.515 294.463H242.099V296.407H240.275C238.899 296.407 237.835 295.967 237.083 295.087C236.283 295.967 235.179 296.407 233.771 296.407H232.331V294.463H233.603C235.267 294.463 236.099 293.591 236.099 291.847V282.031L238.187 280.927V291.871C238.187 292.799 238.363 293.463 238.715 293.863C239.083 294.263 239.683 294.463 240.515 294.463ZM247.251 289.711C249.075 287.023 251.339 285.679 254.043 285.679C255.851 285.679 257.299 286.311 258.387 287.575C259.315 288.647 259.779 289.967 259.779 291.535V292.303C259.779 293.615 259.459 294.631 258.819 295.351C258.179 296.055 257.267 296.407 256.083 296.407H240.651V294.463H245.115L245.187 294.199V282.031L247.251 280.927V289.711ZM257.691 292.207V291.535C257.691 290.287 257.307 289.295 256.539 288.559C255.883 287.919 255.059 287.599 254.067 287.599C252.419 287.599 250.931 288.343 249.603 289.831C248.611 290.951 247.827 292.351 247.251 294.031V294.463H255.915C256.603 294.463 257.067 294.303 257.307 293.983C257.563 293.663 257.691 293.071 257.691 292.207Z" fill="#3084C2"/>
</svg>
