<svg width="24" height="25" viewBox="0 0 24 25" fill="none" xmlns="http://www.w3.org/2000/svg">
<path d="M10.8272 5.96511L10.3923 3.64111M10.8272 5.96511C12.1986 5.76312 13.5947 6.10226 14.7205 6.91085C15.8464 7.71944 16.6137 8.93411 16.8603 10.2981L17.1912 12.0671C17.6312 14.4121 19.5743 14.6551 19.7913 15.8281C19.9013 16.4141 20.0113 16.9991 19.4813 17.0991L6.78125 19.4761C6.25225 19.5751 6.14225 18.9881 6.03225 18.4021C5.81325 17.2301 7.53825 16.3001 7.10025 13.9551C6.88125 12.7861 7.31825 15.1171 6.77025 12.1861C6.50703 10.8253 6.78324 9.41543 7.5405 8.25453C8.29777 7.09362 9.47675 6.27265 10.8282 5.96511H10.8272ZM3.78125 10.3751C3.92425 8.49811 4.60325 6.91411 5.86725 5.51911M8.51325 19.1521C8.7741 19.8953 9.27989 20.5277 9.94759 20.9455C10.6153 21.3634 11.4052 21.5417 12.1877 21.4514C12.9701 21.361 13.6986 21.0073 14.2535 20.4483C14.8083 19.8893 15.1567 19.1582 15.2413 18.3751L15.3313 17.8751L8.51325 19.1521Z" stroke="#225E8A" stroke-width="2" stroke-linecap="round" stroke-linejoin="round"/>
</svg>
