<svg width="25" height="24" viewBox="0 0 25 24" fill="none" xmlns="http://www.w3.org/2000/svg">
<path d="M3.41663 3.25L5.49663 3.61L6.45963 15.083C6.53663 16.02 7.31963 16.739 8.25963 16.736H19.1686C20.0656 16.738 20.8266 16.078 20.9536 15.19L21.9026 8.632C22.0086 7.899 21.4996 7.219 20.7676 7.113C20.7036 7.104 5.83063 7.099 5.83063 7.099" stroke="#6B7280" stroke-width="1.5" stroke-linecap="round" stroke-linejoin="round"/>
<path d="M7.76862 10.7949H10.5416" stroke="#6B7280" stroke-width="1.5" stroke-linecap="round" stroke-linejoin="round"/>
<path fill-rule="evenodd" clip-rule="evenodd" d="M17.5123 20.2021C17.8133 20.2021 18.0563 20.4461 18.0563 20.7461C18.0563 21.0471 17.8133 21.2911 17.5123 21.2911C17.2113 21.2911 16.9683 21.0471 16.9683 20.7461C16.9683 20.4461 17.2113 20.2021 17.5123 20.2021Z" stroke="#6B7280" stroke-width="1.5" stroke-linecap="round" stroke-linejoin="round"/>
<path fill-rule="evenodd" clip-rule="evenodd" d="M6.23101 20.2021C6.53201 20.2021 6.77601 20.4461 6.77601 20.7461C6.77601 21.0471 6.53201 21.2911 6.23101 21.2911C5.93001 21.2911 5.68701 21.0471 5.68701 20.7461C5.68701 20.4461 5.93001 20.2021 6.23101 20.2021Z" stroke="#6B7280" stroke-width="1.5" stroke-linecap="round" stroke-linejoin="round"/>
</svg>
