<svg width="33" height="33" viewBox="0 0 33 33" fill="none" xmlns="http://www.w3.org/2000/svg">
<rect width="33" height="33" fill="#AEAEAE"/>
<rect width="390" height="844" transform="translate(-177 -603)" fill="white"/>
<path d="M32.1885 13.7468H30.8997V13.6804H16.4999V20.0803H25.5422C24.223 23.8059 20.6782 26.4803 16.4999 26.4803C11.1983 26.4803 6.89994 22.1819 6.89994 16.8803C6.89994 11.5788 11.1983 7.28044 16.4999 7.28044C18.947 7.28044 21.1734 8.20363 22.8686 9.71161L27.3942 5.18605C24.5366 2.52288 20.7142 0.880493 16.4999 0.880493C7.66394 0.880493 0.5 8.04443 0.5 16.8803C0.5 25.7163 7.66394 32.8802 16.4999 32.8802C25.3358 32.8802 32.4997 25.7163 32.4997 16.8803C32.4997 15.8076 32.3893 14.7604 32.1885 13.7468Z" fill="#FFC107"/>
<path d="M2.34515 9.43322L7.60191 13.2884C9.02429 9.76681 12.4691 7.28044 16.5002 7.28044C18.9474 7.28044 21.1738 8.20363 22.869 9.71161L27.3945 5.18605C24.537 2.52288 20.7146 0.880493 16.5002 0.880493C10.3547 0.880493 5.02513 4.35006 2.34515 9.43322Z" fill="#FF3D00"/>
<path d="M16.5 32.8805C20.6328 32.8805 24.388 31.2989 27.2271 28.7269L22.2752 24.5366C20.6148 25.7993 18.586 26.4822 16.5 26.4805C12.3385 26.4805 8.80491 23.827 7.47372 20.1238L2.25616 24.1438C4.90414 29.3253 10.2817 32.8805 16.5 32.8805Z" fill="#4CAF50"/>
<path d="M32.1888 13.7472H30.9V13.6808H16.5001V20.0807H25.5424C24.9114 21.8538 23.7747 23.4032 22.2729 24.5375L22.2753 24.5359L27.2272 28.7262C26.8768 29.0446 32.5 24.8807 32.5 16.8807C32.5 15.808 32.3896 14.7608 32.1888 13.7472Z" fill="#1976D2"/>
</svg>
