<svg width="220" height="45" viewBox="0 0 220 45" fill="none" xmlns="http://www.w3.org/2000/svg">
<path d="M22.1435 44.2957C16.6956 44.2957 11.2464 44.3045 5.79854 44.2919C3.0124 44.2856 0.693554 42.3826 0.134569 39.663C0.0428701 39.2133 0.00644128 38.7448 0.00644128 38.285C0.000160543 27.5173 -0.0023516 16.7496 0.00267299 5.98069C0.00392914 2.54638 2.53884 0.00644842 5.97942 0.00519227C16.7609 -0.00234461 27.5425 -0.00108847 38.3227 0.00519227C41.7671 0.00644842 44.3045 2.52251 44.3083 5.96938C44.3196 16.766 44.3183 27.5626 44.3083 38.3604C44.3057 41.4417 42.3022 43.7631 39.2648 44.2492C38.9106 44.3057 38.545 44.2944 38.1845 44.2957C32.8371 44.2982 27.4897 44.297 22.1423 44.297L22.1435 44.2957ZM22.1435 42.0459C27.5337 42.0459 32.9238 42.0485 38.3139 42.0459C40.5423 42.0447 42.061 40.5474 42.0623 38.3328C42.0673 27.5513 42.0673 16.7697 42.0623 5.98822C42.0623 3.76987 40.5486 2.25872 38.3227 2.25746C27.5563 2.25118 16.7898 2.25244 6.02464 2.265C5.54228 2.265 5.03354 2.33535 4.58384 2.4999C3.08149 3.05009 2.24992 4.33262 2.24992 6.00078C2.24992 16.7107 2.27505 27.4194 2.22982 38.1293C2.21977 40.4544 3.92311 42.1037 6.1892 42.0723C11.5065 41.9969 16.825 42.0484 22.1435 42.0484V42.0459Z" fill="#3084C2"/>
<path d="M14.2097 26.9911V27.7686C14.2097 30.7319 14.2097 33.6951 14.2097 36.6584C14.2097 36.8179 14.2147 36.9774 14.2022 37.1345C14.1494 37.7726 13.6683 38.2323 13.0704 38.2235C12.485 38.2147 12.0265 37.7688 11.9688 37.1495C11.965 37.1068 11.9625 37.0629 11.9625 37.0201C11.9625 32.2217 11.9575 27.4219 11.9662 22.6234C11.9675 21.7253 12.843 21.1588 13.5854 21.5808C13.8429 21.7266 14.0527 22.0092 14.2072 22.2742C15.8226 25.0465 17.4217 27.8277 19.0271 30.605C19.6639 31.7054 20.2907 32.8121 20.9502 33.8999C21.528 34.8533 22.2767 35.6246 23.4349 35.8331C24.0114 35.9373 24.5993 35.9813 25.3003 36.068C25.1307 35.8381 25.0226 35.7125 24.9372 35.5731C23.9373 33.9501 22.9048 32.3473 21.9501 30.6992C18.615 24.9486 15.3089 19.1829 11.9876 13.4234C11.4613 12.5102 10.543 12.107 9.65368 12.3645C8.96029 12.5655 8.53948 13.0202 8.40381 13.7186C8.34101 14.0414 8.32844 14.3793 8.32844 14.7097C8.32467 22.023 8.32593 29.3375 8.32468 36.6508C8.32468 36.838 8.33096 37.0277 8.3096 37.2136C8.24554 37.7826 7.79458 38.2022 7.23936 38.2235C6.69168 38.2449 6.21058 37.8517 6.10758 37.2852C6.07994 37.1307 6.07743 36.9686 6.07743 36.8104C6.07617 29.3803 6.07743 21.9514 6.07617 14.5213C6.07617 13.3908 6.31735 12.3343 7.06978 11.455C8.75679 9.48288 11.8632 9.57835 13.4749 11.6485C13.6784 11.9098 13.8693 12.1861 14.0351 12.4725C17.9191 19.1904 21.7994 25.912 25.6821 32.6312C25.8266 32.8811 25.9823 33.1248 26.1356 33.3698C27.2523 35.146 28.8602 36.0039 30.9579 35.9863C32.9087 35.9688 34.8608 35.9826 36.8116 35.9851C36.9837 35.9851 37.1608 35.9863 37.3279 36.0215C37.8856 36.1383 38.2499 36.5918 38.2348 37.1307C38.221 37.6796 37.8014 38.1369 37.2362 38.216C37.1507 38.2286 37.0628 38.226 36.9761 38.226C33.0017 38.2499 29.0285 38.2876 25.054 38.2863C24.2514 38.2863 23.4437 38.1708 22.6473 38.0514C21.5381 37.8869 20.6512 37.299 19.9805 36.4185C19.5182 35.8105 19.0848 35.1736 18.6992 34.5141C17.3124 32.145 15.9507 29.7596 14.5778 27.3817C14.4949 27.2373 14.4032 27.0966 14.3165 26.9546C14.2801 26.9672 14.2449 26.9798 14.2085 26.9923L14.2097 26.9911Z" fill="#3794D9"/>
<path d="M30.1063 17.32C30.1063 17.1567 30.1063 16.9921 30.1063 16.8288C30.1063 13.6771 30.105 10.5255 30.1076 7.3738C30.1076 6.58243 30.5711 6.08373 31.267 6.10258C31.8172 6.11639 32.2606 6.50706 32.3372 7.05222C32.3573 7.19417 32.3548 7.34114 32.3548 7.4856C32.3548 12.1409 32.3548 16.7949 32.3548 21.4502C32.3548 21.5946 32.3573 21.7404 32.3397 21.8836C32.2819 22.3508 31.9591 22.7126 31.5006 22.8269C31.0296 22.945 30.6351 22.8031 30.3525 22.4187C30.1565 22.1524 30.0033 21.8547 29.8362 21.5658C27.8628 18.149 25.8932 14.7298 23.9122 11.3168C23.6007 10.7805 23.2678 10.2516 22.896 9.75545C21.9514 8.49805 20.586 8.29204 19.0786 8.29958C19.1665 8.43022 19.2293 8.51564 19.2846 8.60608C20.2054 10.1072 21.1563 11.5919 22.0406 13.1144C25.3053 18.7394 28.5462 24.3783 31.7996 30.0108C32.0307 30.4103 32.2669 30.8085 32.5357 31.1816C32.8409 31.6049 33.2617 31.885 33.783 31.9817C34.9425 32.1953 35.8444 31.4918 35.9713 30.2759C35.9976 30.0184 35.9901 29.7558 35.9901 29.4958C35.9901 22.224 35.9901 14.9521 35.9901 7.68156C35.9901 7.50821 35.9838 7.3336 35.9964 7.16151C36.0416 6.54851 36.5026 6.11011 37.1018 6.10258C37.7022 6.09504 38.1733 6.52339 38.2311 7.13513C38.2436 7.26451 38.2399 7.39515 38.2399 7.52454C38.2399 14.9119 38.2386 22.2993 38.2424 29.6855C38.2424 30.4907 38.1444 31.2708 37.7864 32.0031C36.5302 34.5769 33.1148 35.0769 31.1162 32.9653C30.8022 32.6324 30.5296 32.2468 30.2998 31.8498C26.6117 25.4849 22.9337 19.1138 19.2507 12.7451C18.9253 12.1823 18.5824 11.6284 18.2495 11.0706C17.1265 9.19019 15.4747 8.29456 13.2815 8.32973C11.3156 8.36113 9.34972 8.33978 7.38385 8.3335C6.68167 8.33098 6.27468 8.05212 6.12519 7.50067C5.94933 6.84999 6.34753 6.22945 7.01455 6.11891C7.15649 6.09504 7.3022 6.08625 7.4454 6.08625C11.5354 6.07117 15.6267 6.02846 19.7167 6.0674C20.6676 6.0762 21.6436 6.26588 22.5569 6.54223C23.6246 6.86506 24.3268 7.73054 24.8858 8.65633C26.1482 10.7466 27.3704 12.8619 28.6052 14.9685C28.9996 15.6418 29.3865 16.3201 29.7784 16.9946C29.8475 17.1127 29.9267 17.2245 30.0008 17.3388C30.0347 17.3313 30.0686 17.3237 30.1025 17.3175L30.1063 17.32Z" fill="#5BB5EF"/>
<path d="M215.572 27.0962C215.572 26.5974 215.572 26.0986 215.572 25.5956C215.572 20.7104 215.564 15.8293 215.58 10.944C215.585 9.34858 216.331 8.45811 217.638 8.3839C219.093 8.30145 219.975 9.2249 219.983 10.9316C220.004 15.1037 219.992 19.2757 219.992 23.4478C219.992 26.5315 219.975 29.611 220 32.6947C220.012 33.9974 219.666 35.1105 218.343 35.5269C217.048 35.9309 215.98 35.4939 215.106 34.3767C210.901 29.0009 206.659 23.6539 202.425 18.2987C202.145 17.9441 201.836 17.6061 201.193 17.3422C201.193 19.6756 201.184 22.009 201.193 24.3424C201.205 27.4219 201.25 30.5056 201.23 33.5852C201.222 35.0775 200.43 35.8856 199.123 35.9185C197.734 35.9556 196.814 35.1435 196.806 33.6305C196.761 26.0903 196.761 18.5543 196.773 11.0141C196.773 9.83503 197.449 9.05999 198.567 8.72607C199.779 8.36328 200.653 8.89921 201.395 9.84328C205.385 14.9058 209.388 19.9601 213.391 25.0143C213.973 25.7523 214.57 26.4779 215.16 27.2076C215.3 27.1705 215.436 27.1333 215.576 27.0962H215.572Z" fill="#003B66"/>
<path d="M56.8205 17.4453C56.8205 19.7127 56.8164 21.976 56.8205 24.2434C56.8287 27.2776 56.8576 30.3119 56.8493 33.3419C56.8452 35.0446 56.1073 35.8979 54.6932 35.9227C53.2009 35.9474 52.4464 35.0982 52.4382 33.309C52.4052 26.1027 52.4011 18.9006 52.3557 11.6943C52.3475 10.3339 52.6855 9.23316 54.0707 8.75494C55.4889 8.26848 56.3794 9.05176 57.1998 10.0948C61.4213 15.4582 65.6675 20.8011 69.9055 26.1481C70.2106 26.5315 70.5363 26.8984 71.1217 27.591C71.1629 26.6593 71.2041 26.1646 71.2041 25.6657C71.2082 20.7351 71.1959 15.8045 71.2124 10.8739C71.2206 8.93633 72.7583 7.72017 74.2466 8.59415C74.8856 8.96931 75.5081 9.98346 75.5205 10.7173C75.6111 18.1585 75.574 25.5998 75.5782 33.0451C75.5782 34.2077 75.1329 35.1311 74.0157 35.498C72.7212 35.9268 71.637 35.5434 70.763 34.4262C66.995 29.611 63.194 24.8247 59.4012 20.026C58.6798 19.1108 57.9501 18.2039 57.2245 17.2928C57.0884 17.3423 56.9565 17.3876 56.8205 17.4371V17.4453Z" fill="#003B66"/>
<path d="M132.003 25.4472C133.261 27.8795 134.58 30.2335 135.668 32.6864C135.969 33.3667 135.845 34.5169 135.437 35.1394C135.112 35.6382 134.023 35.935 133.351 35.832C132.741 35.7371 132.053 35.0775 131.719 34.488C130.391 32.1381 129.159 29.7306 127.955 27.3106C127.563 26.5232 127.081 26.1975 126.199 26.247C124.933 26.3171 123.659 26.2635 122.163 26.2635C122.163 28.7906 122.179 31.1899 122.158 33.5893C122.142 35.1146 121.429 35.8897 120.093 35.9226C118.613 35.9597 117.834 35.1559 117.83 33.4862C117.813 28.5103 117.826 23.5302 117.822 18.5543C117.822 16.1838 117.813 13.8133 117.822 11.4428C117.834 9.45987 118.605 8.67246 120.559 8.66009C122.975 8.6436 125.395 8.65185 127.811 8.66009C131.723 8.66834 134.918 10.9316 136.155 14.5554C137.387 18.1626 136.2 22.178 133.207 24.5196C132.84 24.8041 132.469 25.0844 131.999 25.4431L132.003 25.4472ZM122.171 21.8317C122.501 21.9224 122.633 21.9925 122.769 21.9925C124.471 22.0049 126.174 22.042 127.872 22.0007C130.461 21.9348 132.086 20.294 132.205 17.7091C132.329 15.0583 130.82 13.1908 128.198 12.9764C126.508 12.8363 124.793 12.8899 123.098 12.9764C122.777 12.9929 122.22 13.5371 122.212 13.8463C122.142 16.4847 122.171 19.1273 122.171 21.84V21.8317Z" fill="#003B66"/>
<path d="M152.542 31.3796C155.729 31.3796 158.553 31.3796 161.381 31.3796C162.614 31.3796 163.846 31.3425 165.079 31.3961C166.353 31.4538 167.223 32.4226 167.182 33.6181C167.144 34.7766 166.308 35.6258 165.054 35.63C159.509 35.6506 153.96 35.6877 148.416 35.5764C147.698 35.5599 146.631 34.8508 146.387 34.2077C146.111 33.4862 146.309 32.2742 146.783 31.6311C149.628 27.7847 152.617 24.0414 155.556 20.2569C157.353 17.9441 159.143 15.6273 161.167 13.0136C160.383 12.9682 159.909 12.9187 159.431 12.9187C156.397 12.9105 153.363 12.9229 150.328 12.9105C148.688 12.9022 147.727 12.0736 147.752 10.7379C147.777 9.45577 148.712 8.66011 150.275 8.66011C155.156 8.64774 160.041 8.66836 164.922 8.64774C166.015 8.64362 166.901 8.96106 167.4 9.96285C167.924 11.0182 167.623 11.9664 166.922 12.861C162.606 18.3935 158.306 23.9342 154.002 29.475C153.598 29.9944 153.198 30.518 152.538 31.3755L152.542 31.3796Z" fill="#003B66"/>
<path d="M108.266 33.449C108.303 34.8383 107.821 35.6257 106.765 35.869C105.665 36.1246 104.655 35.8607 104.152 34.7105C103.488 33.1934 102.837 31.6639 102.276 30.1056C101.942 29.1821 101.501 28.7575 100.437 28.7946C97.9267 28.8812 95.4119 28.8688 92.9013 28.7987C91.9201 28.7699 91.4542 29.1244 91.1409 30.019C90.6421 31.4496 90.0443 32.8471 89.4548 34.2405C88.8117 35.7618 87.7522 36.2977 86.4371 35.8277C85.2292 35.3949 84.751 34.1251 85.357 32.5956C87.4677 27.2652 89.6197 21.9512 91.7552 16.633C92.5673 14.6089 93.3919 12.5929 94.1958 10.5646C94.6534 9.40617 95.3831 8.65587 96.727 8.65999C98.0792 8.66411 98.7636 9.4639 99.2253 10.61C102.119 17.8203 105.022 25.0307 107.912 32.2411C108.101 32.7193 108.208 33.2305 108.27 33.4449L108.266 33.449ZM96.8919 16.8021C96.7559 16.8062 96.6198 16.8144 96.4838 16.8186C95.4738 19.3292 94.4637 21.8398 93.4083 24.47H99.9921C98.9161 21.811 97.9061 19.3045 96.8919 16.798V16.8021Z" fill="#003B66"/>
<path d="M184.603 31.26C185.147 31.359 185.593 31.3713 185.976 31.5239C186.957 31.9196 187.501 32.6782 187.374 33.7501C187.25 34.8013 186.64 35.5722 185.547 35.6052C183.366 35.6794 181.182 35.6753 179.005 35.6052C177.904 35.5681 177.306 34.7766 177.195 33.7336C177.08 32.6658 177.64 31.9073 178.617 31.5115C179.001 31.3549 179.446 31.3548 180.011 31.26C180.04 30.8313 180.101 30.3819 180.101 29.9284C180.11 24.7587 180.093 19.589 180.118 14.4193C180.122 13.5165 180.064 12.9435 178.902 12.8322C177.714 12.7209 177.104 11.785 177.207 10.5895C177.306 9.46401 178.007 8.72195 179.153 8.68485C181.239 8.61889 183.329 8.61476 185.411 8.68485C186.623 8.72607 187.324 9.5176 187.378 10.7173C187.431 11.8551 186.809 12.6466 185.692 12.8486C184.966 12.9806 184.467 13.0465 184.471 13.9906C184.508 19.5396 184.492 25.0886 184.5 30.6375C184.5 30.8189 184.558 31.0044 184.603 31.2518V31.26Z" fill="#003B66"/>
</svg>
