<svg width="25" height="24" viewBox="0 0 25 24" fill="none" xmlns="http://www.w3.org/2000/svg">
<path d="M5.4998 20C4.94752 20 4.4998 19.5523 4.4998 19V7.31846C4.4998 7.17452 4.46873 7.03227 4.4087 6.90144L2.96141 3.74709C2.73336 3.25005 2.94781 2.66205 3.44231 2.42854C3.94268 2.19225 4.53976 2.40821 4.77322 2.90989L6.43079 6.4719C6.59487 6.82451 6.94851 7.05 7.33743 7.05H17.6622C18.0511 7.05 18.4047 6.82451 18.5688 6.4719L20.2264 2.90989C20.4598 2.40821 21.0569 2.19225 21.5573 2.42854C22.0518 2.66205 22.2663 3.25005 22.0382 3.7471L20.5909 6.90144C20.5309 7.03227 20.4998 7.17452 20.4998 7.31846V19C20.4998 19.5523 20.0521 20 19.4998 20H5.4998ZM10.4998 13H14.4998C14.7831 13 15.0208 12.904 15.2128 12.712C15.4048 12.52 15.5005 12.2827 15.4998 12C15.4998 11.7167 15.4038 11.4793 15.2118 11.288C15.0198 11.0967 14.7825 11.0007 14.4998 11H10.4998C10.2165 11 9.97914 11.096 9.7878 11.288C9.59647 11.48 9.50047 11.7173 9.4998 12C9.4998 12.2833 9.5958 12.521 9.7878 12.713C9.9798 12.905 10.2171 13.0007 10.4998 13ZM6.4998 17C6.4998 17.5523 6.94752 18 7.4998 18H17.4998C18.0521 18 18.4998 17.5523 18.4998 17V10.05C18.4998 9.49771 18.0521 9.05 17.4998 9.05H7.4998C6.94752 9.05 6.4998 9.49772 6.4998 10.05V17Z" fill="#8C8C8C" stroke="white" stroke-width="0.5"/>
</svg>
