<svg width="24" height="24" viewBox="0 0 24 24" fill="none" xmlns="http://www.w3.org/2000/svg">
<path d="M18.0799 14.5014C18.1053 14.5776 18.1154 14.658 18.1097 14.7381C18.104 14.8181 18.0826 14.8963 18.0466 14.9681C18.0107 15.0399 17.961 15.1039 17.9003 15.1564C17.8397 15.209 17.7692 15.2491 17.6931 15.2745L14.9431 16.1911C14.7893 16.2423 14.6215 16.2303 14.4765 16.1578C14.3315 16.0852 14.2213 15.9581 14.1701 15.8043C14.1189 15.6505 14.1309 15.4826 14.2034 15.3376C14.276 15.1927 14.4031 15.0825 14.5569 15.0312L17.3069 14.1146C17.383 14.0892 17.4634 14.0791 17.5435 14.0848C17.6236 14.0905 17.7017 14.1119 17.7735 14.1479C17.8453 14.1838 17.9093 14.2335 17.9619 14.2942C18.0144 14.3548 18.0545 14.4252 18.0799 14.5014Z" fill="black" fill-opacity="0.75"/>
<path fill-rule="evenodd" clip-rule="evenodd" d="M1.41826 10.9964L3.44466 11.6717V16.833C3.44466 16.9601 3.48427 17.084 3.55799 17.1875C3.6317 17.291 3.73584 17.3689 3.85593 17.4105L11.7953 20.1586C11.9208 20.2037 12.0576 20.206 12.1846 20.1653L12.1931 20.1629L12.2023 20.1598L20.1441 17.4105C20.2642 17.3689 20.3683 17.291 20.442 17.1875C20.5157 17.084 20.5553 16.9601 20.5553 16.833V11.6717L22.5817 10.9964C22.6752 10.9653 22.7598 10.9121 22.8283 10.8413C22.8967 10.7705 22.9471 10.6842 22.975 10.5897C23.0029 10.4952 23.0075 10.3954 22.9885 10.2987C22.9695 10.2021 22.9275 10.1114 22.8659 10.0346L20.4215 6.97908C20.349 6.88881 20.2524 6.821 20.1429 6.78353L12.1998 4.0336C12.0704 3.9888 11.9296 3.9888 11.8002 4.0336L3.85715 6.78353C3.7476 6.82097 3.65095 6.88879 3.57849 6.97908L1.1341 10.0346C1.07253 10.1114 1.03045 10.2021 1.01146 10.2987C0.992473 10.3954 0.997131 10.4952 1.02504 10.5897C1.05295 10.6842 1.10328 10.7705 1.17175 10.8413C1.24022 10.9121 1.32479 10.9653 1.41826 10.9964ZM10.3617 13.5166L11.3889 12.05V18.725L4.66685 16.3979V12.0787L9.66806 13.7457C9.79299 13.7873 9.928 13.7873 10.053 13.7459C10.178 13.7045 10.2862 13.6245 10.3617 13.5166ZM5.92387 7.36101L12 9.4644L18.0761 7.36101L12 5.25762L5.92387 7.36101ZM13.6383 13.5172L12.6111 12.0493V18.725L19.3332 16.3979V12.0787L14.3319 13.7457C14.207 13.7873 14.072 13.7873 13.947 13.7459C13.822 13.7045 13.7138 13.6239 13.6383 13.516M4.26353 8.07966L2.63618 10.114L6.00393 11.2366L9.62161 12.4423L11.0351 10.4238L10.9526 10.3951L4.26353 8.07966ZM21.3638 10.114L19.7365 8.07905L12.9649 10.4238L14.3784 12.4423L21.3638 10.114Z" fill="black" fill-opacity="0.75"/>
</svg>
